<mxfile host="app.diagrams.net" modified="2021-03-14T15:57:08.682Z" agent="5.0 (X11; Linux x86_64) AppleWebKit/537.36 (KHTML, like Gecko) Chrome/88.0.4324.182 Safari/537.36" etag="0NFKYQNN5CltDWHceuUn" version="14.4.4" type="github">
  <diagram id="F99K0qYWwm78ji042ZVV" name="Page-1">
    <mxGraphModel dx="2182" dy="713" grid="1" gridSize="10" guides="1" tooltips="1" connect="1" arrows="1" fold="1" page="1" pageScale="1" pageWidth="827" pageHeight="1169" math="0" shadow="0">
      <root>
        <mxCell id="0" />
        <mxCell id="1" parent="0" />
        <mxCell id="xFTIAXRf07ciZsqD7t0A-1" value="" style="rounded=0;whiteSpace=wrap;html=1;fontSize=21;" vertex="1" parent="1">
          <mxGeometry x="-90" y="240" width="240" height="120" as="geometry" />
        </mxCell>
        <mxCell id="xFTIAXRf07ciZsqD7t0A-2" value="&lt;font style=&quot;font-size: 21px;&quot;&gt;action client&lt;/font&gt;" style="rounded=0;whiteSpace=wrap;html=1;fontSize=21;" vertex="1" parent="1">
          <mxGeometry x="150" y="240" width="110" height="120" as="geometry" />
        </mxCell>
        <mxCell id="xFTIAXRf07ciZsqD7t0A-3" value="action server" style="rounded=0;whiteSpace=wrap;html=1;fontSize=21;" vertex="1" parent="1">
          <mxGeometry x="610" y="240" width="110" height="120" as="geometry" />
        </mxCell>
        <mxCell id="xFTIAXRf07ciZsqD7t0A-4" value="" style="rounded=0;whiteSpace=wrap;html=1;fontSize=21;" vertex="1" parent="1">
          <mxGeometry x="720" y="240" width="190" height="120" as="geometry" />
        </mxCell>
        <mxCell id="xFTIAXRf07ciZsqD7t0A-5" value="&lt;div style=&quot;font-family: &amp;quot;droid sans mono&amp;quot;, monospace, monospace, &amp;quot;droid sans fallback&amp;quot;; font-weight: normal; font-size: 21px; line-height: 19px;&quot;&gt;&lt;div style=&quot;font-size: 21px;&quot;&gt;&lt;span style=&quot;font-size: 21px;&quot;&gt;&lt;font color=&quot;#0000cc&quot; style=&quot;font-size: 21px;&quot;&gt;FollowJointTrajectory&lt;/font&gt;&lt;/span&gt;&lt;/div&gt;&lt;div style=&quot;font-size: 21px;&quot;&gt;&lt;span style=&quot;font-size: 21px;&quot;&gt;action&lt;/span&gt;&lt;/div&gt;&lt;/div&gt;" style="endArrow=classic;startArrow=classic;html=1;entryX=0;entryY=0.5;entryDx=0;entryDy=0;exitX=1;exitY=0.5;exitDx=0;exitDy=0;fontSize=21;labelBackgroundColor=#FFFFFF;verticalAlign=bottom;" edge="1" parent="1" source="xFTIAXRf07ciZsqD7t0A-2" target="xFTIAXRf07ciZsqD7t0A-3">
          <mxGeometry width="50" height="50" relative="1" as="geometry">
            <mxPoint x="390" y="320" as="sourcePoint" />
            <mxPoint x="440" y="270" as="targetPoint" />
          </mxGeometry>
        </mxCell>
        <mxCell id="xFTIAXRf07ciZsqD7t0A-6" value="" style="shape=image;verticalLabelPosition=bottom;labelBackgroundColor=#ffffff;verticalAlign=top;aspect=fixed;imageAspect=0;image=data:image/png,iVBORw0KGgoAAAANSUhEUgAAEo4AAAPoCAMAAADJ/EvqAAAAY1BMVEVMaXEZGiAZGiAZGiAZGiAZGiAZGiAZGiAZGiAZGiAZGiAZGiAZGiAZGiAKWPcZGiAZGiAKWPcKWPcKWPcKWPcKWPcKWPcKWPcKWPcKWPcKWPcKWPcKWPcKWPcKWPcZGiAKWPcysqDXAAAAH3RSTlMAYDDgEPDQwECAIKCwkPBwUBAw0GCgQIDA4CCQcLBQPcAVRAAAAAlwSFlzAABvxwAAb8cBXEbJMAAAIABJREFUeJzs3WlX28oSheEANjMBMpLR9///yrsCyWEouy3JGvauep9v964DkSUht3Z3Vb+b34cvP79+fnj49r9XHh5+ff365csCxwMAAAAAAICkvv/++uvj/9reP/z49IEbAAAAAAAAAIf58vXX+2YO9Xqt1I/f95xwAAAAAAAADPLh568QOO338QelewAAAAAAAOjry49vA7KoJ+9/fWKRFAAAAAAAADr78LlHhd52JFIAAAAAAADo5PvX4euiXq2R+kzVHgAAAAAAAPb4PaRf1C7ffrJECgAAAAAAADvd/xxnYdSz95+/7/rHAAAAAAAAUNv914M7Rm1DzR4AAAAAAACiicKoPx4IpAAAAAAAAPDKhGHUYyBFyR4AAAAAAACe/Zw0jPqDHlIAAAAAAAD468vYDcy3ef+VXfYAAAAAAADw7t33hy3h0RS+/eZsAwAAAAAAlDdt06jXfrFACgAAAAAAoLYPH0NmNKX3P6ufcAAAAAAAgNK+zhpG/fHAAikAAAAAAICqZusa9dJ7OkgBAAAAAADU9HvGrlEv/WCBFAAAAAAAQEE/Qk40l4/fud8AAAAAAACK+T5vD/PXKNgDAAAAAAAo5sNChXr/fOWGAwAAAAAAKORTyIfm9pkGUgAAAAAAAGUs1zbq2UfyKAAAAAAAgCI+h2xokTzqA/cbAAAAAABAAfcPIRlaxnvyKAAAAAAAgPzul9xS7zXyKAAAAAAAgPSE0ijyKAAAAAAAgPSk0ijyKAAAAAAAgOTE0ijyKAAAAAAAgNTk0ijyKAAAAAAAgMz00ijyKAAAAAAAgLw+hyxIAXkUAAAAAABATpppFHkUAAAAAABATp9CDjTIw8PD1yefHx6+kUcBAAAAAABgqy8hBerp26+vv7+E3/z9y88fD+RRAAAAAAAAeO3D+xAC9fDxx+/78Ctf+PLzF3kUAAAAAAAA/nN/wKZ6v35+73Iif38+oHSPPAoAAAAAACCVwW3MP/5sLot67ffnwWuwyKMAAAAAAAAS+Rnin24Z0ee+IdH9p6FLpMijAAAAAAAA0hjWOOr91x4Lo559GdjZnDwKAAAAAAAgiUGNowaGUe+GB1LkUQAAAAAAADn8CMnPlGHUu8GBFHkUAAAAAABABl9C7rPX54PCqD8G9ZAijwIAAAAAAPB33zsY+vhlhA99P2BNFnkUAAAAAACAv96x0NeRPvKHAS2ryKMAAAAAAADMfQiRT9u3EQOhIU2ryKMAAAAAAACs9VyidHjXqJe+vA//AHkUAAAAAABAZj9D3tP0aeRT8b1/wR55FAAAAAAAgK/7XsuTpkiCPod/hTwKAAAAAAAgrV7dmz5+n+I09FyfRR4FAAAAAADg63uIeho+jto26tmn3f/kDuRRAAAAAAAAnvpUyo3bxPylT70bmpNHAQAAAAAAOOqzOOrzhJ/vA3kUAAAAAABABT0WR02ZRr179yH8e+RRAAAAAAAA6fRYHPVx4s9O/ygAAAAAAID8ui+OmqqL+TPyKAAAAAAAgOy6L456P3ka9e7d1/CvkkcBAAAAAACk0nlx1Dy5T59d/sijAAAAAAAA7Nx33s7u0ywf7f5j+IfJowAAAAAAAPL4GdKdHX7M9JE/dM7HyKMAAAAAAAD8fAvhznZTb6r37PfWf7+JPAoAAAAAAMBE1+zn/ff5Pk//9lHkUQAAAAAAACa6Rj8/Z/w4911XbJFHAQAAAAAAmLkPuc52D7N+rC9bj6GNPAoAAAAAAMDAp2bE82zGUr0/foUDII8CAAAAAADI4GNIdbb6OvNHve+/ux55FAAAAAAAgL7vIdPZ6tv93J/k67bDII8CAAAAAAAw9zNEOlt9mv9TDuhmTh4FAAAAAACgrlut3scFPkXXplbkUQAAAAAAAD467qv3ZYkPNGh5FHkUAAAAAACAsm5LkB4W+QTDlkeRRwEAAAAAAAj7HNKcbRboHPVu8PIo8igAAAAAAABd70OYs8W3hQ5/4PIo8igAAAAAAABVH0KUs83PhY7+vlNYtgV5FAAAAAAAgKafMcrZ4n6pY/8Rj4U8CgAAAAAAwNivEORs8Xmxz/c9Hgx5FAAAAAAAgLFO1XBflvt8H8PBkEcBAAAAAAD46rT6aKlG5u86FxNuRR4FAAAAAAAg5/e2HOetHwse9X04GvIoAAAAAAAAX19DhrPFoqnO8Go98igAAAAAAAA5DyHCid4vetAHVOuRRwEAAAAAAKjp0sl8uX31/vgQjoc8CgAAAAAAKDu/u7i4uD6b3s3FxcX5pdm90Kkz06fwY7P6Fg6IPAoAAAAAAIi6uzndzGx9fesUSX0J8c0W38OPzepzPCLyKAAAAAAAIOj4aj13FvXX9bnN/fAppDfRt/BT8zqoeRR5FAAAAAAAmMnRWUiJZnTmEkh12VjvV/ipeR3WPIo8CgAAAAAAzOF80TDqj5uVxYX+FbKb6Gv4qZmFIyKPAgAAAAAAWlZXIR2a36lFC6mHEN1EX8JPCR5kG3kUAAAAAACY0t1SPaNeWx8bXOUuu9bdh5+a2YG9zP9HHgUAAAAAACZ1E4Ih8qidQm6zxa6fnU2XBlfkUQAAAAAAYCGrxbtGPTvV7x8VYpvoIfzQ3H6HYyKPAgAAAAAAKlanIRRa0LX6fdFl07rl46gv4ZjIowAAAAAAgAitNGqzuRO/MboEPYtvrPfuPhwTeRQAAAAAANCglkZtTsTL9TziqE4drsijgHEd313cnM3j6uLonKtX3Or89uJqnvvt4vZcv5QeAACgt+OjucZTW9xcFB9iqaVRm81FOEYpteIo8iigo8vb+bvwnd4QSVV1eXt9Em6IqW83h81vAQAAurq8vQ4jntmd3l6WvWBXy5/+t9bhIKV0iaO+LH/A38JBkUcBk1ndzh0N/HNyU/f7q67Lm4Xut9Oj6qceAACkcSSzpdtV0QH9XTgTArSHu59CYBMJxFEP4aDIo4CJXC6b61+zRKqWoyVXNZ9wtwEAgARWF0vNJm91VbFmb7XediqWpr253teQ10Sp4ijyKKBp4TBqU/X7q6jlh0433G0AAMDdkVQY9adGrOCUn2Cp3h/hOJXUi6PIo4CGC4VUf327+wCRya3A7XZKHgUAAKwdy5TpvVCuJ8J5OAUapIPBgnEUeRSwy7HKbhDXRAQFnGvM461paQ4AAIxdhNGNhGp5lGIm+If0PH/FOIo8CtjuSKfg+ZSW5tmtBLZ+eXJC+AkAAFytVGOQYnmU6uKozU04VCG/Q1YTpYujyKOAbaTqnVmyktydULPH0+oXAwAAuDpW6xr1Qqn+UaKdozabs3CoQr6EqCYSiKM+hoMijwLGpTazQh6V2k244EuSnjUCAADYRWmCL1gXWoF+GT69Cvs46mv4qdmFYyKPAsa1Umkb9R/yqLwu1e62gpu/AAAAf0dhUCPlqs4tdit7EYijDheOiTwKGJVeGsWWZ3kdy83jSX9PAwAAbCWeRlWa8RN8l/qLOOpg9+GYyKOAUUk+Qa+5xikpjpxYHgUAANwchxGNmjIzfrq1etrX4HuIaaKH8FNz6xKakUcBw4n23rvgkiYkOY/H8igAAGBGb715VKX5hvA6Ne1RbkhpouXjqC77/5FHAYPJFjvTPiofrSbm/7msfl0AAIAXxV4bQZXuUbL76qnP74eQZovwQ3P7Go+JPAoYje5CX3bgT0f1y/q2+oUBAABeRKf4XlsXualOwieXoR1HfQshTXQffmpmn8MhkUcB4xGeWiEkSEZ24ES1HgAAcHIeRjOSavTnXHEFBnoIGU30xeEgyaOAgS7CU0vHmt31UhGuq69+aQAAgBWHUr0yrWCVs0Htt6kuC48W31ovHBF5FDCalXQXRLqZZ6K8GzF9ygAAgA/lUdVLNXbKFp7dF+990qUt06/wU/P6EI6IPAoYjXDnvQ0tplORXlR+V/3qAAAAI8LNil6p0Q/hLHxuGeLN5D+FgCb6Fn5qXj/DEZFHAWO51H16PrrhSmehvRsx6/AAAICNuzCUEVWjl7nwIFe8E++XkM9s8T382Kym6mROHgVod47a0D0qkZX2LB5xFAAAsHEdhjKqKtxTytP76v0oQjyzxafwU7PqsvsfeRQwjPSKlQ2b6+UhvIp5QxwFAACMKO/k9kaF20q5kVc4WDFdsp7Pix7ylK2jyKNQnX4bRPH+e+hIfRkecRQAAHBhU6tXI466CZ9ahnzvroeQzkTvw0/NadLWUeRRKM5gpS/NzDOQbmO+IY4CAABGxLcieqnCbSVcAyDfhrfL1nr/WzSu6RKYkUcBw4Rnlh6q9RJYyReFEkcBAAAXp2Eko6pEnYPw+ZffO/p3yGa2+BF+bD738XDIo4CROKz0pVovAfHGUcRRAADASBjIyJIvFhuBchGAfJnJ9xDNbPEt/Nh8PsXDIY8CRiJc6fyMaj176o2jNpvNefVrBAAAXByHgYws+WKxEdzqnv4T/bPXad+6L+HHZvMxHMwkyKNQkv6iFar1EpBvHEUcBQAAfDgMrf6qMI4X7sV7HQ5Wzq8u4c5ye+t1Wr01BvIoVBSeWYqo1jOn3ziqSJ9NAACQgsG6838qTPidhE8tw6AbRaeN697fh5+byY9wLORRwFhMVvpSrefNYQ0emScAAHBhUd/wpMA9tQofWodBGvgh5DLb/Aw/N5P3Ww6GPAoYx5Hw0/MFqvWsWUzgXVW/SgAAwIbDwvMnFTqZK28NFQ5WUKfmUUs1M5+nkflf5FGo5io8syQZVD1jJ4/uBkSeAADAxGUYyMiq0MlceObVYvn/5xDLbPMp/NwsOmVl5FHAMKfhoaVpxfW1ZdE4arM5rn6dAACAC5P6hj+OCtxUwqWTFmng75DKbPMQfm4Osy6OIo9COeGZJarCN1lWJs0Nql8mAABg4yYMZGRVmPATPv0W71D3IZTZ6kv4wRnMuziKPArF2GwSS7WeLZOdXyo0NgAAADn4dDJfF7jjlLeG8kgDf4VQZpsllkfNvTiKPAq13IZnliqq9Uy5JJ4VGhsAAIAcwkBGVoUJP+HSSZM0sGPos0D3qNkXR5FHoZTr8NBSRbWeJ5PGUZvNXfUrBQAAXNjUN2w2FwVuKuGtoUzSwI7Vet/uw09O7Gc4hjmQR6GMk/DQUkW1niebteSX1a8UAABw4VPfUGLCT3hrKJc0sFu13v++hh+c1v37cAjkUcB4VuGZpYtqPUcmjaNqNDYAAAA5CC/HeavACF75heo8HK2mjtV677/Pe/SfwxHMhDwKNdyFZ5YuqvUM+Swlp5M5AABw4VPfcFLgnlIe77qkgV2XIc3bzfxL+PfJo4Ax2axdoVrPkk3jqBqNDQAAQApG9Q0VBvDCL1Q+aWDXdUg/w09O536JPub/kEehAp9NYqnWc2R0f7ksZQYAAOUZdTK/LXCthLeGugoHq6rrQqQ5y/UWK9V7+qTkUcjPZ/EK1XqGnBbfEXYCAAATRkOsChN+wi9URmlg15VIH8NPTuV3+LfnRR6F9C7DM0uZT7yPR06dySo0NgAAADkYrT8vcMcpv1AZpYEdm5n/738/wo9O4/tCu+o9I49CdkfhmaWMvc+8XDqtvSPrBAAALnzGWKcF7inlCdhwsLq6NjP/3/9+z/IZ7j+Gf3h25FFI7iY8s6TdcT86OXW6tyo0NgAAACkY1TfcFLjjhF+orHaO/qq1aGjZxlF/kUchN6tO5qxg8eKVddLJHAAAmDCqb6jQ+lX4hcoqDfwewphdvt2HHx5d53BsWuRRSC08s7RRrWfEqXFUjcYGAAAgB6M5v+MCt1z40Dq8Sku6r0f6OHke1bmTFXkUMJjRJrFPqNazYdU4ymwpMwAAKI1O5kqUX6gurc5k9+VR/3sIPzyupTfVe4E8CnndhmeWOKr1bFg1jqrR2AAAAOQQBjKyKkz4Cb9QuVWW9GjX9Dn88Jg+LL6p3gvkUUjrKjy0xFGt58KsSX6JxgYAACAFo/qGiwJ3nPAL1XU4WG09lkdNmkdJpVHkUcjLbAUL1Xo2zBpHuS1lBgAAhRnVN1QYup+ETy3DLg3ss5vddHnUF600ijwKWa10H567UK1nwaxxFMvuAACAD6P6hgITfsovVHY7R3/vEwRN1c9cpov5M/IopGTXyZzYwITdsjs6mQMAABfCy3HeOClwTynXBISDlfc1JDEN0+RRP3f/g8shj0JGF+GZpY9qPQNujaNqNDYAAAApGNU3uPUuGkL4herU72zef1t60VCfesEZkUchoevw0NJHtZ4+u8ZRhkuZAQBAVUYjrQoTfmfhU8twfG/63Svhef8p/ILD3H8M/wZ5FDARtwY/myJrfs3ZNY7abDar6hcNAAC4MKpvqDDhJzzwtdw5+iEEMU2fRy3Yk2ti/gJ5FLK5DM8sB8fch+L89msk5AQAADaEl+O8VeCmOg4fWofla9P3kMO0fRwxpenVuWp25FFIxrCmarPZ3HAbavNrHEUJKAAA8OGzDt2wd1FvR+FTyzDdAqp3JvQ1/IphPsgW6v1FHoVcHDuZs5BFnWXIeVv9qgEAABfKy3HeqDDhdxU+tQzXnaN7p0KjLJC6114a9Yg8CqkYrfR9iWo9ZY6No+hkDgAAbAgvx3nLsndRT8JdKlwbyX8IMcxeh3eQ+t1rS7+lkEchk/DM8kC1njLDxlE1GhsAAIAcjPoiVJhEDh9ax104WBMD1im9/3pQIPWlZwN18ijgYEYrfV+hWk+YY+Mo36XMAACgHqO5vwLX5jx8aB2+O0cPaeL07VP4NV19/xV+myzyKKRhtNL3Nar1ZHl2x2fBHQAAsBEGMrIqTPgJ9+I1nsL//n5IGvRt2Aopm5VRT8ijkIXnQhbCA2GejaNqNDYAAAApKC/HecO1d1Ef1+FTy7j2OYvB75DCdItqPn8Pv6rt/pP6dnoBeRSS8OzyQ7WeMNdbivV2AADAxG0YyMiy7V3Uw4nu6bfeOfpHSGE6+vipxxKpD58HLcNaGHkUcgjPLBukB5pc19utq184AABgQ3g5zluX+e+qy/ChdXjvHH3AoqVfnzqtkfryw2IzvS3Io5CB0Urft6jWk2TaOIpO5gAAwIfwcpw3Kkz4KQ9/w8FauT9o3dLHH7+bi6Q+/PzluC7qH/IoJGC00vctqvUUuTaOqtHYAAAApLAKAxlZzr2LuhKuDXCfb/1waF707dfXLzG2uf/y6YdX7/JtyKPgz2ilb1Bg6a8f215kJRobAACAFIxWo1eY8DsLn1qGfTnJpy0xzIDg5uHh19cnPx4e7PqW70IeBXs+K30j6858Sdlu1LjZrKpfOwAA4OIiDGRkefcu6kb49PvvHP1zRxQD8ij4M1rpG51yA6qxbRxF7ScAAPAhvBznrQITfsfhQ+tIUE3ymdxpN/IoeDPuZE61nh7fxlE1GhsAAIAcfIZcFaaPhXvxpmgkTx7VQB4Fa0YrfbegWk+Mb+MobiYAAGBDeTnOG1cF7qqr8Kll5Jhv/bU7jQF5FJwZrfTdgmo9LcaNo2o0NgAAACkchYGMrAoTfsK9eHM0kr9P03t8CuRRMGZcXLWhWk+MceOozWZT/eoBAAAbRlOAx/nvKuVevEnmW8mjWsijYOsyPLO8UGAlxLlxFCvtAACAD6P+CAXuKuVevFkayZNHtZBHwZXRSt+tyBCEODeO2mxuql8+AABgIwxkZJ0VuKmEe/HmeVcij2ohj4Ip62Y/G6r1lJjfS0fVrx8AAHBhtDV2hQk/4V68iRrJk0e1kEfBk3cnc6r1hHg3jirR2AAAAORwGwYysu4K3HLC/SoyzbeSR7WQR8FSeGa5oVpPhHfjqM1mXf0CAgAAG9dhJCOrQCXDsfDpTzXfSh7VQh4FQ8pPz46o1tPg3TiqRmMDAACQw0kYyaiqMOGn3Is3HKw18qgW8ij4MVrpuwstfyTYNyG7qH4FAQCAi1UYyMiqMOEnPAzOdvrJo1rIo2DnKjy07Fxz1wlwbxxVo7EBAABIwWjgVWHCT7hGIN3pJ49qIY+CG/cKqz9W3HWLc28cxW0EAAB8XISBjKzzAreV8OnPN99KHtVCHgUvRit9d6Nab3n+seZJ9UsIAABsGG2NXWDC7zx8aB0Jm+ySR7WQR8GK8tOzM6r1FmffOIq7CAAA+PBZll5hwk+4F2/K008e1UIeBSdGK30bKLNamH/jKDqZAwAAG0ZbY18VuKuuw6eWkXO+lTyqhTwKRoSfnj1QrbesY//GUTUaGwAAgBSOwkBG1m2BO+6E0z8z8qgW8ij4EH569kCd1aJWGfrhbwpfQAAA4MWoTUKBCb/L8KF1ZD395FEt5FFwofz07INqvSVd+dwou53WvX4AAMCM0VRggVtLuWtFONgsyKNayKNgIkPPnw3VessyWi7eUKGxAQAAyGH3iEbNWYE7TrgXb+L5VvKoFvIoeMjRyZxqvSWlaBxFogkAAGwYbY19U+CuOgufWkbm008e1UIeBQvCT89+qNZbSo7GUZvNcc3LBwAA/BhNKFeY8AsfWkfq008e1UIeBQfCT89+7rjdFpKicRSdzAEAgA+jrbEv899Wx+FD68h9+smjWsijoE/56dkPnX8WkqNxVI3GBgAAIAefrbHXBe642/CpZWQ//eRRLeRRkJclS6jxXacoSeOozeai+pUEAAAujLbGrjDhJ1wqkP70k0e1kEdB3U14aNmiWm8JWRpHcf8AAAAbRltjV5jwEx4O5z/95FEt5FEQlyZMoFpvGVkaR5VobAAAAHIw6mReYMJvFT60jvNwtOmQR7WQR0Gb8NOzL6r1FpCn2POk3LUDAACujLbGLrD59Xn40Doq7D1OHtVCHgVlyk/P3qi2ml2axlGbzXWxSwcAAHyFgYysChN+wmvVasy3kke1kEdBmPA+EP1RrTe3PI2j6GQOAABsGG2NXWHC7zp8ahlFXo/Io1rIo6BL+OnZH9V6c8vTOKpEZT0AAMjBqFvCbYFbTrhaoMLpf0cetQd5FGSdhIeWM6r15pWncdRms6l04QAAgDWjGcECE36X4UPrOA5HmxR5VAt5FEQp7wMxANV6s0rUOGqzOS104QAAgDejdgkF7jTlCdpwsGmRR7WQR0FTqk7mVOvNK1PjKKJMAADgIwxkZFWY8LvRPf1n4WDzIo9qIY+CJOF9IAahWm9GmRpHbTZHZa4bAAAwZzShfFPgXjsLn1pGhdP/H/KoFvIoKBJ+eg5S6pG7sFSNowpV1gMAAHdGE8oVJvzCh9ZRa6qePKqFPAqCMjX/+eOEm2wuqRpH0ckcAAD4MNoau8CEn/JatctwtKmRR7WQR0GO8j4Qw7DGZSa5GkfVqqwHAADefLbGrtDY9TZ8ahnlZurJo1rIo6AmWb0V1XrzydU4ihsHAADYMJpQrjDhJ7xW7TocbHbkUS3kURAjvA/EQFTrzSNdkEkTfAAAYOIuDGRkXRS4p4TXqlU4/W+QR7WQR0FLtk7mVOvNJFvjqHKV9QAAwJdRJ/MCE36r8KF1nIejzY88qoU8ClKEn55DUXQ1g2yNo2o0NgAAADkYTSgXmPBTXqsWDrYC8qgW8igIOQ7PLH9U680gW+OoipX1AADAVRjIyKowMBdeq3YaDrYE8qgW8ijoEN4HYjiq9SaXrwN+xcp6AADgyWhCucKEn/BatapVI+RRLeRRkJFvkQvVejPI1ziqZmU9AACwZDQxWGHCL3xoHUfhYIsgj2ohj4KKdB2ANlTrTS9f46jNZrPKftUAAEAWRhPKBSb8lNeq1S0aIY9qIY+CBuV9IA5Atd60Mq6pK1pZDwAADBnNDBa4vYTXqlXeqoc8qoU8ChLOw0MrBar1JpWwcdRmc5X4ggEAgFzCQEZWhQk/4Ynas3CwhZBHtZBHQYHwPhCHYKXLlDI2jtpsbvNeMAAAkIvRhHKFCT/htWq1t+ohj2ohj4KA6/DQyuGSm2syKRtHUeAJAABsGE0oV2ilHT60jrtwsKWQR7WQR2F5J8KPz0Ow1GU6KTdjLNHYAAAA5GA0oVxgwk95rVr1rXrIo1rIo7C0y/DMSoJqvcmkbBxVvLIeAABYMZpQLnBjCa9VY7tx8qgW8igs7C48tLKgWm8iORtH0f0eAADYMJpQrjDhJ7xWja16yKOayKOwrKSdzKnWm0zSxlHlK+sBAIAPownlCq20hedqeSMij2ojj8KizsJDKwuq9aaRtHEUy+kAAIANownlAhN+ymvVzsPRFkQe1UIehSUlLbzaEC9MJGnjqM1mnfJyAQCAjIwmlAuMyJXXqoWDLYk8qoU8Css5Ds+sPFibOoGsjaM2m+t01woAAGQVBjKyKrTSvtE9/WzV84Q8qoU8CotJu9aFar1JpG0cVaOxAQAASMFoQrnChJ/wWjW26vmLPKqFPApLEQ7zD0e13ujSNo6ish4AANgwmlCuMOEXPrQOtur5hzyqhTwKC8m72IVqvQlkXky3Sne1AABAUkYThAUm/M7Dh9bB7Px/yKNayKOwDOGn5+Go1htZ3sZR3CwAAMCH0YRygQm/2/ChZbBVzwvkUS3kUViCcpg/Aha8jCpx46jN5irRhQIAAKmtwkBGVoUJP+G1amzV8xJ5VAt5FBYgHOaP4Yh7akzX/nfEblR2AgAAE0YTyhUm/E7Cp5bBVj2vkEe1kEdhfok7U2+YEBhZ7uySTuYAAMDERRjIyCow4ae8Vo0B7mvkUS3kUZidcJg/Cqr1xmO0o/AQWS4TAABIz2jF+nH+q3EXPrSOcLDVkUe1kEdhZkaF58NQrTeaVe7o8izJZQIAAPkZbS5T4GoIr1Vjq56APKqFPArzSt7JnGq9EaVuHLXZ3KS5UAAAILnLMJCRVWHC70z39LNVT0Qe1UIehVkZFZ4PRLXeSJI3vWcdHQAAcKFcHfZGhQk/4bVqDHC3II9qIY/CnITD/JHwEB5H8sZRm81lhqsEAAAquAkDGVl3+S+H8ii5QOeuAcijWsijMCOjwvOBqNYbRfLGUZvNOsFFAgDYPGhXAAAgAElEQVQANRhNKBeY8DsKH1pHOFi8I4/agzwKszEqPB+Mar0xJG8cRSdzAADgIwxkZFWY8BNeq8YAdwfyqBbyKMzFqPB8MKr1RpC9cdRmc2F/jQAAQBFGPRQq1Cmchk8tgwHuLuRRLeRRmIlR4flgVOsdLn3jqM3m3P0aAQCAKozmCSvkIeFD6yjQuWso8qgW8ijMI38nc2qmR5C+cRQ1nQAAwMdVGMjIKjDhdy58+hng7kYe1UIehVmEZ1ZGTAscKn3jqM3mxPsKAQCAQoSrw94qkIdchA8tgwFuC3lUC3kUZlCgBmuz2VxxKx0mf+MobhIAAGBjFQYysirkIcLztvQsaSKPaiGPwvQq5Axs4X+oEqHlrfc1AgAAdShXh71RYcJPuKkFA9w28qgW8ihMzqjw/BBU6x2iQuMoOpkDAAAbwtVhbxXIQy7Dh9bBAHcP8qgW8ihMzajw/BAUYh2iQOMo+t0DAAAfRoOzAnnIXfjQOsLB4g3yqBbyKExM+Ok5Jqr1DlCjoPPM9voAAIBq1mEkI6vAlbnRPfsMcPcjj2ohj8KkjArPD0O13mA1ut1vbkwvDwAAKEe5OuyNCnnIWfjUMhjgdkAe1UIehSkZFZ4fhmq9oWo0jtpsjjwvDwAAqEe5OuyNCnlI+NA6GOB2QR7VQh6FCdXoCkS13gGq3CKXtlcIAAAUI1wd9laBPES5koABbifkUS3kUZhOkZUvVOsNVqNxFHklAADwIVwd9laBPER4tMwAtyPyqBbyKEzFqPD8UFTrDVKkcRSNHgEAgI8wkJFVIQ+50j391+FgsR15VAt5FCZiVHh+KCYHhqjSOGqzufC7OAAAoCaj6cIKE37Cw2UGuJ2RR7WQR2EaZTqZbzabc+6h/sr0FqOYEwAAuDDqpVAgD1mFD62D95/uyKNayKMwCaPC84Oxz2l/VRpHbTabldu1AQAAVQlXh71VIA85Dx9aBwPcHsijWsijMIW18ONzbCfcQX2VaRzF3QEAAHychpGMrAJ5iHC1yWk4WDSQR7WQR2F8heKGzWZzzB3UT53GUTR6BAAANpSrw96oMOEnXG3CVk79kEe1kEdhdEfhoZUZ1Xo91WkctdncWl0ZAABQmHJ12BsVJvyEq00Y4PZEHtVCHoWx3YSHVmbUY/VTqHEUjR4BAIANo72ICuQhl+FD66A2pC/yqBbyKIzMqPB8DDyR+6hVyelzXQAAQHFGC9gLTPgpV5uEg8U+5FEt5FEYV3hm5Ua1Xg+VGkfR6BEAAPgw2ouowF0lXG1yFg4We5FHtZBHYUxGheejoFqvh0qNo0gqAQCADeXqsDcqTPgJV5tchIPFfuRRLeRRGFGp5kAbqvX6KHZvHPlcGQAAUNtdGMjIqjDhJ3z678LBogPyqBbyKIznKjy0kmMNTFe1GkcRVAIAABtGexEVmPBTrja5DEeLLsijWsijMJpS3YE2VOt1V6tx1GazdrkwAACgvLMwkpFVYMJPuKKAN5+hyKNayKMwklV4aKXHIphuajWOotEjAADwEQYysipM+AmPmq/DwaIj8qgW8iiMo1oncxr6dVWuqRj3BQAAMGHUUqHChJ9wScFtOFh0RR7VQh6FUVyEh1Z67OffRbXGUTR6BAAANoymDQtM+Clvc3gejhadkUe1kEdhDEaF56Oho99+1RpHbTablfo1AQAAeGK0F1GBCT/lbQ7DwaIH8qgW8iiMYB0eWvmxaHW/ao2jaPQIAAB8GM0bFpjwE642oSrkMORRLeRROJjy2tLJ8Fzeq1zjKBo9AgAAG0Z7EVWY8BOuNrkJB4teyKNayKNwKOW1pdOhWm+Peo2jWDMHAABsGO1FVGHCL3xoHUfhYNEPeVQLeRQOdCP8+JwOyUNbwcZRNHoEAAA2jPYiKtDJXHke9zgcLXoij2ohj8JhKnYyp1pvn3qNo2j0CAAAfBiN4AtM+B2FDy1jHQ4WvZFHtZBH4SC6T89JUa3XYjThNh4iSgAA4MJoL6IC95TwNodn4WDRH3lUC3kUDlCxR9CGar02o24EI7pqnhMAAAAZRnsRVZjwOw2fWkaBUsk5kEe1kEdhOOG1pZNiKcxuK6P5thHR6BEAAJgwGsEXmPBT3uaQ3qjjII9qIY/CYMJrS6dFtd5ONduJ0egRAAC4MNqLqMCEn3JhwSocLQYhj2ohj8JQwmtLp0W13i4lG0fRyRwAAPgwmjwsMOEnPHg+CQeLgcijWsijMFB4aFVBX78dajaO4oYAAAA+wkBGV4G7SnhLanqjjoc8qoU8CoNUzR5YurpL0cZRNHoEAAA2jEbwFSb8hEfP1IOMiDyqhTwKQ1QtzKJz9S5FG0dtNnc7TggAAICY2zCQkVVgwk95m0N6o46JPKqFPAoDCK8tndo198sWdfNJetsDAAATRnsRFZjwU97mMBwsDkEe1UIehf5OwkOrDqr1orrFmzR6BAAALoxG8AUm/IS3OaQ36sjIo1rIo9DXKjy0CqFaLyjbOIrFcgAAwIbRCL7ChJ9wq4ubcLA4DHlUC3kUeroLD61CCCCCso2j6GQOAABsGC1nrzDeDh9aB71RR0ce1UIehX4KdzKnWi+qfDuch7MBAAAgyWjIVmDCTzkcpDfq+MijWsij0Evh1TBU6wV1G0fR6BEAAPgwGsEXmPAT3uaQ3qhTII9qIY9CH3VbBW2o1nurcOOozeY0nA4AAABNRmO2AneQ8EblvOxMgjyqhTwK3R2Hh1YtVOu9VHqp3FU4HQAAAJIuw0BGVoUJP+FtDumNOg3yqBbyKHR2FB5atVCt90LtPmLcCgAAwITRCL7AhJ/yNof0Rp0IeVQLeRS6ugkPrVpYwPqsdOOozeY4nBAAAABJRiP42/x3kPJG5eFgMRLyqBbyKHRUu5P5ZrPmRvmndOMovq0BAIAPoxF8gQk/4QIDeqNOhzyqhTwK3YSHVjV33Ch/FU8mz8IJAQAA0BQGMroK3EHCg2h6o06IPKqFPApdFK/P4iH9rHbjKBo9AgAAG0Yj+AoTfsIVBvRGnRJ5VAt5FDq4DQ+taqjWe1I+mGSZnKjL80e3F01P/9Fl9ZMFANt0eI4+/SdbfhaijEbwN/nvIeWNyumNOinyqBbyKOx3FR5a5RBDvKNx1GazIckQ8feV6ezs7GzYTXlydnZ29fRuVf1cAihqdX5+fnFxcT3oQbo+Ozu75iEqz2gEX2CkLbzNIfPuEyOPaiGPwl4n4alVDtV672gcxbf1slaPEdTZ2Wm4Lgd7fKti3RSAAlZ/Mqirs1G/0NdnZzcXtwRTgoxG8AW+goXDQXqjTo08qoU8CnuswkOrHnIIGkdtNpvrcE4wvT+vTtdn8wyp12fXF7fnLFkHkM7l+dHF1eSP0rOziwueoTqMRvAVBtoTTKeNhd6okyOPaiGPQlv5hkEbqvXecR9s+Lae2eX57cW4E/jdnZzd8EYFIIXHZ+nM78EnZze3LDgVYDRyqzDhFz60Dl5zpkce1UIehSYWxVCtR+OoRxQizGK1wLvTdqfXF3eEUgBMXd5dXC1aZX92dXu+4u5ZkNEIvsCEn3I4yN/pDMijWsij0HIdHloFUa1XvnEU39bTW53f3gzsTT6h0+sLXqgAOFmd3y4bRL1wcnZxx0KphRgN3QpM+AmHgyfhYDEB8qgW8ig0sCpmwzJW1sj9iSXCWcFojo8u9IKoF9ZnF3dkUgDkXd5dXOv1r16fEesvwWgEX+D2EJ7epwZkHuRRLeRR2OkyPLRKKv6kpnEU98Bkjm9vTCZwT64vKNgEoGp1rphEPTu5OqL8eVZGI/gKE37C4eBtOFhMgjyqhTwKu9yFh1ZJtav1aBy14dt6CsdHLknUs9MblkkBUHN8dCW8bdez9fUtkdRsjsL5l1Vgwk85HGSqbS7kUS3kUdjhJjy0aio9fqJx1Kb6LTC+c+3qvKaTqyNaoQAQcX57bfU0XV/f8gSdhdEIvsCEn/L0fjhYTIU8qoU8CtuRRDy52Xp2aqBx1COeEGNZ3d1YTOM3nVyxSgrA0s4vPEdpPEHnYPRNW2B5jnA4eBYOFpMhj2ohj8JW4aFVVOFdJ2gc9Yhv61FcHl0p9zbp5/SGBe5vnd9dXJxN7+LijnM/m+N5LupLNzS+7uDYbFXUW2fU7U0snHJdS5+q86OLq/AcGpfwH+t65gd8R9cXtxm/CMijWsijsMVxeGhVVXbUROOoJ5XXx40kxaqoN9bX1O39M/v1Pb3hZXZyx8stvjmloqthdXSV4bv5hEx/QkaTiYtO+CUcmiSS8IuePKqFPAqRUR/EiZVNIyjXfHIXzgz6OL9IO947ZYr/z4B+kT2sT25ILCZ0vHTicUZWsdVxptfn9RXfrhO5DSdb1nJD7PMUuW5up0fhsnkjj2ohj0JwVf0h+J+q1Xo0jvqLt97hLo+8S0r2O6m+TudouRLMK/40J7LgRX12Tc3eG0mWRb1CIjWNReYIhlkqb5B4ymGv02QzE+RRLeRReIsFrP+p+bpJ46i/1uHUoJtU8/gNlROp82Uv8UU4IBxO5TVtzQKpFy5vjRKGXtZXLDIdnVHUssyswh1hlI1k3/PkUS3kUXij+vPvhZLVejSO+uc6nBt0cFdqGXzVRGrx/YJOeZEd27nQa1q2Oo3BLm9zR/snF6x0HNUqnGJZi0z4XdKLwkmylbLkUS3kUXiFtTHPSlbr8WX9DwswelsdZZ3HbyjYy2gl8Iq8ptRnVCutP13yqMdlphUWcpxxrUd0F86vrCU6mdOKwsxpuITWyKNayKPwEk/rFwpOwHP9/0PBSD8ls6gnp0elut0ca6x/4y12ROdqaxrLX93L2zJFRRTtjcdoBDf/hN+K2VY7V+EqWiOPaiGPwgtl3yi3qVetx+K4Z/TT7aFwFvWkUF/eS5XkonxiMR69l9h16SKu7DV6AUukRmIUuMw+4Scyj4JebsN1tEYe1UIehWd0+XuhXLUejaOeJVskPKnqWdSjKl1QFCr1nqxZUzEOsUK9J0uU8mhYHVVcxLGmi9QYjIZwc0/4HTG8dZRtYoI8qoU8Cv8Y9UGcQ7XXHZYyP0u2Rng6tXqXN11XWCIlFF2csIJxDDoB4ytFq6XvrsKZqIKavYMd+9wqc8/2HoUjgIVsExPkUS3kUfjLqA/iHJItE91n8e2ylBS79gNdlmi2293JbfaEROorouTmp2O7FK0Lq7g8qvrz9IwNCg5jlLnMPOFHGmUr28QEeVQLeRSe0Mn6lVoFW2SRLzFRu9fqqFiDky7WV6lrTlZar8vsN3AwmVZgQbnirZJFem+c0ETqEEZTivNO+JFG+boOV9MceVQLeRQeMRx6rdKAWPe1ZBHh/OC1c4r0djhLHJKITVjQ4e1QopV6m3ILVC9veJ4+IpA6gNEE0azfkkZFjAjSvYeRR7WQR+GdVx/EWVQaELPS5aW6jXQ7WdXZhXyI07RvVGqXnVfXwwinUaWewSyMeoFAarBwLnXNeVrYpMdavvcw8qgW8igwhRAUmnyncdQrdKVpOK7bbberpG9UcgW9LI86jHQK4nxi+7i84G35NQKpYc7DmZQ165ObsNdawm958qgW8ihQXx2UqdajcdRrDId3omNUJ+uLhF3N9XJIukcdQnsSosa37znh/hYEUkPcxhOpas4JP3rimgtX1B95VAt5FFgh81aVaj0aR71Rro1uR0zkd5cwkNK7+DPvz5SL+PxThaiRcH+XE5Lm3q53nEtBM8aNlz5nBVtlfBSQR7WQR5XHkta3qtSCMCZ+bR3OEJjI7y1bICVYzc1f6nDH4tFy+jxidUELvobMe0JMw+h2mnHrYt5r3KVcFkAe1UIeVV31h94WNVbJsCzuDTqZb3HHsK63daqBlGItyF04SnSkPgmRfG3yJXuT7nPFKuU+VntOp5AZpxGMGmphu4twUTMgj2ohj6qNx3ZUolqPxlFv5fz6O8gRE/mDZGqCotiDg2q9oeQ7qqR+CrMfRBdrvol7MBrIzTjhxyyavaQ7C5FHtZBHlWbUB3E2Far1aBwVUCXw2oqWUcPlaYKiOLA/CUeJTvT30U08F3TOO3JHtJDqzqhl93wxI7Ps/rJWK5BHtZBHVcZ03RYFVovTOCpIuCnaAQijDnQ2Y6OMKUm+Q1PPM4z+Yz9tEEEY1cc1f+EdGd1W89VYG7V3xw5pm2eQR7WQRxVGNc4W+av1aBwVsOLiBcKoEVylCDglvyFoHjWIwVropHEUYVRPVOx1ZPRFPdv3IdvqJXAdLmsW5FEt5FFlGfVBnFHeB+FfNI6K6Efzn0vWTI4ixSuV5JnlXXWIlcGra8pVMfTgG+A0yfLSaemX3/5nvgk/WpAkkPg7njyqhTyqKmqst0pet0XjqC1KNLDvYsXSudEkaIIieV7ZBXMIh5TZ76zuxcqogS6on9/ryOdyzjfLyx9cApmnnMijWsijijLqgzinRBtjbUPjqC3onvqIMr1x2TdBkTyrVNYO4DD3lC9nJIwa7oQFUvsYzR3NNuFHzUcGqV/CyKNayKNqouXfVrmr9Vj9sk04TRURRo1ubb7sTrPOKBwm9nKYhci2uzdh1GGoyt3DaGpxtgk/aj4yyD0/TB7VQh5VEi+f22VeJU7jqG0o//nTc4HnwQS8m6Bovk+zbKI3i7KeXD3qLwmjDkUHqTajS9n8HGOi5iOD5JW65FEt5FEFsQPFDokXitI4aqts0/ID0HB3KjfGQyvNN2q21uvLoY95rncQdoQYBU0dG4wWAp3u/hQjIwROYL7bZSHkUS3kUfWwUGaHxNV6NI7aKnm7sP0oK5mQcUtzzXdqinj6sijRTvS9u2KNxkjO6Gi+k9EecvNtXcyEawL5d7omj2ohjyqHEdMuaUdANI7aLuUG491d0kVuWrYLpDS/I3J395uAx4bweSYFqHsez5ptRnYx+tqe7W+bmo8MCiyKJI9qIY+qhgURu2RdLMN6uO3W4UxVwkz+9FwXSGk+MdIv5R+bxVd9mqfwOXXPo2Ix5A5G99lsTcAY42ZQoWcceVQLeVQx1R95uyWdfadx1A6lO5kfcVfMwbM9meiymnCcaLHoY54ldaCD+ego2NtqZXQJtx3/JJhby2DRv6u5kEe1kEeV4rGAfxk5hz80jtqh8PTrOTfFTDx3idI8l2y41cfKYxVFii/dFfXwEzjhD34Lo4VA8034EQYnUGR+mDyqhTyqEo8p02WkrNZjoLxL2e4UK7Z/ms/asSECW+v581gwkGJ3U5aaTqT8ZiNbGC0Emm/Cjz/ABKrMD5NHtZBHFcKb6G4ZN3agqH6nqrUAdNyd17XfjaaZYdNNpgeP5r7rBA9hlppOJ0VaOS6jhUCzzR/QyTyDMtNN5FEt5FF1MHTaLWFvaxpH7XQSTlYJx6xrn5tf0YnmGlq21uvB48/cP2FkqemkaCD1ltGIbrati5l0zaDOnzp5VAt5VBnVH3lN+eJ50sedSr7c0uRkEW4Fe+eSZ5Gt9brzeEHzv6LU6U3Ms/nedIyav8434Ucn8wQqzQ+TR7WQRxWh+Z6hIl21HuHDbo49fQ7FZuQLcSvY0zyL4TCxi8cfunv7PpaaTm9NHvWSUfPX+Sb8+DNMIGOvlJ3Io1rIo2q4rf7Ma8pWrcca5oZ6ncxX17vPBqZlVrCnuaqSF9OuPJYLuL+AsChjFjQ0f8GoNpRO5uih1vwweVQLeVQJvJA25arWo3FUSzhd2d1xOyxobfVSpfnSw9Z6HXk8+c37mLPUdC7kUc+M2i/MNuFHJ/MMik02kUe1kEdVwAiqKdd6URpHNVRrRMPSqKU57RKlue6DrfU68vhbt04Z6MI3o1J1PG1GV635OcZkVMCInRb9s1oAeVQLeVR+q12PAjxKVa3HeLml2BbSLI1antEuUZo9BtlarxuPDpFnDqdyF56nsyKP+suo+et8E36MdBOw/joYhDyqhTwqPZoJ7ZGoHIRr3VSqAIClURJ8donSnLdga71uPJbFGhdn8DydG3nUE6N2ZfNdMjqZJ1Bw6TN5VAt5VHb03twjz6iHxlFtlSrVz7kXNPjsEqVZ1R0OE1t47Fdi/PrB0qj5GS0tnZJRDjrfhF/4p+GnYmNI8qgW8qjkmEbYI0+1Ho2jmrJtothAlxMhLovyNF972Fqvg5VFWHJiGy+wNGoRp+RRXs1fZ3tYH4d/Gn4uw3UtgDyqhTwqN2b19smS0RNBtNWpVD8mmFRisihEcx0tW+t14LEV/Gzbbo2NpaYLIY/y2kMuHPxU6GSewMncf0oayKNayKMyY0PUvZJU69E4ao8yleoelTuFeDxhNB8gbK23n0ezY9eu9Cw1XQ55lNO4br4JP/4kE6i6TQl5VAt5VGJMI+yVI6SncdQ+RdZZrCjPlXPt8FalOXPB1nr7WfzFr01LM46NiqXyIY8yav4639bFjHESuA2XtQjyqBbyqLyYRtgvRXsS6rP2qTGwpbBEkcVbleSdw9Z6e3lMOZm+fLAVzLLK51FGyct8E37hn4Yf2+Ltg5FHtZBHpcU0wn7zTepMh9hxnxqV6rw9aXJ4q9L8rgiHidc8+ph7xoqXzPIsrfrySKNLNdv6RzqZZxAuax3kUS3kUVlVf+R1kSCooHHUXhWGtRTqyTrRX4OpGWWW3H6nD4+ZCMup8DuWmi4vSW/PgYySl/m2LqYFSQJ1thbagjyqhTwqJ48mp0uzr9ajcdR+BSrVKdQTtpZ/ymgO8usu6e/G433VcQXyymPDwvRK51FGyct8E37UAiSQoShlOPKoFvKolNhkqwv7ByMlBfvlf62lUE+afB6lGWywtV6bRx9zww5Ax3yriqicRxlFovM9qVkEnkCRrYV2IY9qIY/KiPm9Ltyr9Zgs6iCctWRW1/KXoDj5PEry8tSu1dnLo0z7SPwsbsFMng7D22csRpnofBN+4Z+Gn+pV+ORRLeRRCTHB14l3tR6V9B1k36GLuXx96nmU5KRz6RYTe61OwgkT5HcNCfel1M2jjC7SbCsg6WSeQI2thVrIo1rIo9JZVX/mdWRdrXdMx6AOkleq03TXgXgepbnKMhwmnnkU6NpNhB9bpHyF2Lf3HMio+et8E34sXEyg+o6Z5FF7kEdlQyfzbpyT+hXLYrrIPb9K2ygP2nmU5jC/+qL+lstwthTZtf86ItwXo78RxDSMvtjnq6qmBUkCBbYW2os8qoU8KhneUjsyHuzw3dxJ5uEslSU2pF+rNGcv2FpvN4s//BOzPubsqCfo1LAZ/giMvtnnyxeYgE2Ar3XyqD3Io3LhNbUj31IuGkd1E05cHpcMz3xI51GSZ5Gt9XbyWP1s9uLB41RS9uaP2xkVjc73xRb+afgJV7Uk8qgW8qhUWHPekW21Ho2jukncEJlbwIryNL/kizhb6+1k8bJq1iTknMepporPAY9i3Cfh4KdCC5IEaqbLEXlUC3lUIk5fZgszbVBC46iO8i6xYHmcGeE8SrJKia31drGoxV97fbXS30BWwW4zdz5XZ77HNJ3ME0i+tVB35FEt5FF5GH2ZLc10qEOXi47uwqlLgtcnO7p5lObNFA4Tjy4t1vFYfbPSNkpZvXYzRt/u8+UL/I0mkHtroT7Io1rIo9LgVbUzz7WjrIzpKuv2XAzNDMmWL2mWQbC13nYWf/tWX6y0jZJmttBuBGc+F2e+fIE/0gT4Uv8PeVQLeVQWRl9mi3N8PNI1qCvb3mBt1Gp6Um2DspI8m+zBs5VHCxWnHU1pGyWu3PZ6RtdmvgF0+KdhZx2uamHkUS3kUUnwlO7OsFqPMKIzs3a6HTGZ70r1aSPZG5ut9bay+ON3ahHCWmN5xdqZH/tcmfnyBTqZJ5BzQD4UeVQLeVQKRl9myzOs1qNQq7OUb7QsjvMl2jrhWvGEsrXeNhYNfddGy1n4OjVQq+WMUUBKJ3P0wBTTK+RRLeRRGTDb14ddtR6Xt7uM9T6UlhhbaxYxSXYbZGu9LVYWf/0+O0is6GzgQPS5ORGjhHS+fIHYOAEK8F8jj2ohj0qA53YfbtV6rI3pIZw9f6SR1jTb8mruxRoOEx5f7j5B4jF1zx5KtY8yuinnyxf4S00gXNXqyKNayKP88dzuw6xaj8ZRPXjum9hEGmVO8r3qUvKcsgtP4FGIb3PhmNuxUal01+iyzPdtFv5p2Ek4ID8UeVQLeZQ9ntK9eL30sPSth3xD2Bubc48dJG9KyddyVvYHFqVlNg1CyPaN+BSAHsqoafd8WxfTyTwBpx0u5kIe1UIeZU79ua3WNteqWo8BdB/pGqASRiag+MCRjDnoe/qWxeN/vlfUA9Ec2YlmmfMUJDv5bTff3IrRScEutXYk6Ig8qoU8ypv6IEut3sBpASnFBb1k639KGpWC4KofycE+W+u94dHH3GVRG09TL2W2NpDc53S7+aZWjE4Kdim1IUFn5FEt5FHWxJ/ba7kD9GmSSeOofsIJtLbi/SkHwXl+yWU3bK33hsUKgetw2JJWvN+6cdt1ZqgTn+syX/RsdFKwwzpcVbwjj9qDPMqZ+HP7Wm75ls8KUvKIXnK9zpJFpqG3IFOzRXY4zNo0G86/sfaY3eFpaqjG4gqLP/O/wsFPZRX+adhhfmkH8qgW8ihf6s/tC7mvW5PpXBpH9ZWq9wzvT4notfSUPLdsrfeKRR9zjyUslzxNDdXYmOvO58LMly/QyTwBmkHuQh7VQh5lS/3L7PzdO7WhoEm1Ho2jesq0Fw9pVCpyt6Zk1MHWei9ZvKZ6JAZ8lXoq8T5r1LR7vmkVOpknwPf5TuRRLeRRrtSf2yu9Zuse1XoEEn0lWlzBxc9Frn3UjeLpZTb1hZVF9xSLeirSKFcVyvUsFkE+mW/kTKe3BHy69M6PPKqFPMqU+JfZiWBxvEe1Ho2jerLZcHw/0qhs1NooSO7HytZ6L1isD9CrQt3iiDTKVYXuM0aXZr50kE7m/mrU2g5FHtVCHuVJfKj1+IZBtV5/NI7qy6Yn2F6kUfmIrfyR7M1B6+M7OQMAACAASURBVNNnlw4ZikUfc75JjeXfXU9zV4mt5tspjU7mCTC71EQe1UIe5Uh9W47H4YRaZYhBtR71Bb2lKfUhjcpIrO5E8QyzMfQzi2oVh259pFHO5KqcRye5TnU7OpmjB58tzJdBHtVCHmVIfbD12M1ObQJIfx0NiUR/WRoncu1TOtFaSSJ5k9Fs4h+L9zGH1WykUd7yrHnewagpw3wTfnQyT6BC47eDkEe1kEf5kWxJ+8LTCVWrBJd/7aFxVH9J3mVJo5LS6rMjufqGrXj+ceid4rByhS9Sd9mfCUZf9/MthqSTuT/WOu9FHtVCHmVHvJP53252VOv1w5Ruf0kaJ5JGpSX1YiU5/5y/U0xHFqsDDKqjSaPsia0qHZtTl6T5rgSdzP3RCXI/8qgW8ig34g+tvysCqNbrhcZRA+RonEgalZfUi5VkNZjFRm0zWDl8ARjsZEoalUCanpBbGXVJmu8PXr0jLjrI/Xc7EvKoFvIoL+rbcvxbhqQ2vJaecSOSGCLHygpeoBJTSlskZ+WZUH1i8RTQr6LiYZpB7m7mRl2S5pvEvQv/NuxQed8FeVQLeZQV9W05/nWzUxsYSm8JxCh6iBSNE7n0qSmN0BTrIWg38chixYT+alQepjmk7mZu1CVpvgk/OpknwL4knZBHtZBHOVEfcf07lWrTHcpjaRpHDRLOoyFeoHJTqm+S7DrIEPadSXfjNduBYCaZ11kY9WWY7zKId8RFBwa13BrIo1rIo4yID1yfiy/EvnWFp+FpHDVIhjof9W0ycSihfgqSM9As8DdY8vxIvjaaNCqNxDW8Tl2SwsFPhiGwvxy9XOdAHtVCHmVDfVuO57cvqvU60mwctZZfU56gCzLL4vLT6YMi2Z+DrfVM+pjLJwSkUYmo74Q8nFGXpPm2LqaTeQJ8lXdGHtVCHuVCvcnEc+hDtV5HmsPoO/nl09LdwDohjSpA5zVecszP1nomayTVO/WRRmWSt/DHaEH0fM9mOpknkKKX60zIo1rIo0yot/x7Xgugto5LtVpPM5O4eRf+LzX22+8Y7fiM4XRiU8VFOGytJ79Z7iP12JA0Kpe0m8YbdUmab4kancwTCFcVu5FHtZBHeRAvoXqZ+agdquZqGs3GUaf670j2e3LRMqyGE5kW0IpvQmytZ/GCqnMTb0calYx+4/yBjC7TfMtd6GTuj4mlXsijWsijLChu1v3Cyx161Zb9SFbriTaOOtbvruu+GfQlaVQRMhP9knUi5bfWsyjZFa+MJo1KJ+nyKIulkH+Fg58MYyF/adczToQ8qoU8yoB6y7+XjySq9TrQHEcfGQzwzb/9NHNITEGlrFQy+Ki+td5KfIbpkfjMN0348km6PMpiE80n8/3R08k8Af9erjMjj2ohj9Kn3vLv1bsF1Xp7aY6j/6wjk09LzF9jSaPqUFnIJzkzX30/Hoe2KWvtPn2kURnlXG1htI5vvgtAJ/MEyi9z7o08qoU8Sp762PXVI4lqvX1EG0et9Ja2Rd7fflSXVKISnSqe8uJb61ksDNBOBvKnUWd/XDy7+fO/HVbVHSLn8iijaaj5pm/pZO4v716Y0yGPaiGPUife8u/1I0ltpC1XrSfbOMpg17fTcDadMP4qRaXWSfHro3gHVIs+5uGolaRNo/4kUHfnrX7Sq/Pz24vrs6SddzIuj9Kf5ns235JIOpn7k2zNq448qoU8Spz4Q+vNI0ktbVGr1pNtHGWQl1h/+1FdUsx8W2Y3KT5wam+tZ1GmIl0XnXCD0pOzi6N+5/z86CJfKJVxeZT8NN+zGUNoOpn7o5P5EORRLeRR0tS35XjTB0StbaNYXYhmKPHU6Eat71fg3HLGaXcdjEFkfYlkH93SPSccKq6kk/9kadTp1e3g8O/y7ibXMpOEb7hGy6Ln63jotGQMO4jMuLkhj2ohj1KmvqrizUhKrVpPq+hAcyB98vR2KP+a1KphEHfJZGA5GoM1ybn5ylvrWfQxV84LM6VRZxfnh5/q85s8m2QkXB4lP833bL4w0GjJGHYxHpAvijyqhTxK2M2OR4GKt2dObWSk9MgU3eD76RTpN9gN59OGZscwTEokCVe8yIW31rMIppWvT5pn6dnFeKns6ug6SUiXb3mU0YWZb5qAOCqBcFXRDXlUC3mULvHBV+hKqzb5q1StpzlP9vfdQ76lSbjVfBhNkGI0GsujFL9ACm+t5/AoUH7S5kij1ld3oy8DurvKkEil263LYh/Nv8LBT4ZWmv7mK+1MhzyqhTxKlvhDK7xYqDXJERreSLZx+e9LRb6IJNxqNthUrySNR49i/lF3az2LVQHKRRgJkv2Tm4lO8OoowdnJ1pDGYueCJzNuXcyQyF/hNc4HI49qIY8SpT58jYMHtYI0mbG1Zjfrk3+ztPItUdU2SeyMmcCi4sNxAYoD/7pb6zn0MVeul9LcmbaHybKoJ5cX7kuksi2PUu+28cKMGxgQR/m7DFcVnZFHtZBHadJcUfMsjq3Uvn5VFtVIN45yaHHg+u2XcFtydCLxZiU5oVF1az31r/PNywkKQQ7nr2F9NUN3niPzcsZk+xwY7Xw44/SJ+R8yqNU7EHlUC3mUJPHV11umuanW207zSv43E665duuFLbeaBdEYclKnZ2cXFxd35+fnbzaOOv7zf91eXFyd5dqffAeF5VGSW2oX3Vpv5ZBMC69C9V5nenY0U9B3bv1wTVbJGz6frji3PBlamdurvD3uGMijWsijFIm/y24bOlCtt43mdNDz9ZMf6W+71RxUamN+dn1xe9757+34/PbiLPWegxJRuOJXSNG2Ew6lZsKT3vJTJg3rqzlX91oHUqmKgJzu2XDw0yGOcle3/+NYyKNayKP0SE5tv7CtzYTamFuiWk9zVLJ+nq6Vb3Gw7VYzUKRJwunVxfnA14jjo4uzrPWMCsujFN9M823n3oXDO9haNwwwrno+mWth1H/OfXP+VPtuGlWlzRowhH8dXlgcdTDyqBbyKDnqA9htC/vVthJRWKIgWrH14itFfjrV8+vPaF+doU6vjg5fgHh5dJVxndSMexXtpBiI1pxadViyohsUrmwfEGfbhkmTO3KtEl9n6ixn1Ht/1j/9gi0MUmFx1AjIo1rIo9Sor63YOpWqNokpUK0n3jjKYbbKcox6mbyN+dnFiCnh6ugq3SBVIERVTESzbZ/ViUPnI4X8dAfX+rOzpZ4BK9eVuRI7ko7EKEOdNTS13yKzNuFFtE7Io1rIo8SID8G2v1VQrfeWeuMogzqS7beausydkU7HjKL+Ob7NdcoEOvFchoMSEI4yP4s+5rprUE3fXxcLo/449ozwhDPRvtS7bbw0a8LgvStBeZkS4yWRR7WQR2kRH8Fuf9lSm45ffHQj3zjKoMXBVTirBuQbcg21vpquGcplqkRKYBZR8UukYOcJh4eB7lPW8/V10TDqj1vL5bkau8+Mwahl97xbF1uE89jBcjQuiTyqhTxKieTE9gs7qs3Df7ewhV8J9RtHGcw9O+7FlbRx1MnN1C9ZlzdpqvYEBm6KSyTqza46bLGl27XHcieuxcOoP7edY7af523XqF5y+9zyZKjW85Vo+eLiyKNayKOEqE8J7hhuqXVKWjjK0Gwc9bqEUf71f8etpixl46iTm3mmru80/2p6E3jDV1yWs2MiIzGHuinZkNDxUXqySAPzyHCJbp5m5kbfYjM/ktWn2rHTaaa9BhZHHtVCHqVDfSSx47GklqItG+Zr1sG9Pif6LQ7CadWXr3HU+mrGV6zLmxRx3vKv+IqTGuU25nFYKSl7UQw31VvrBK53fs/RNIsnjU793BN+LI8yRRo1LvKoFvIoGeIzqrtiHrlwY8lqPdHGUa9PiXwthOHra7rGUafT9YvabnWRIJBavge/4hOo2tZ6ogXbr8m27PFbKXml9MrmV7CXJa12WgI09x2bfdfhrEijxkYe1UIepUL8gbazxJ9qvf+Ivoe8WeUi3+Jg+d0R+0rWOGp9tcTLaoZAavky03BIAsJB5ubQQ0a2gNKoAc+TU7HS8pVdnpdkH3mjBvy75panI799Dra4Jo0aHXlUC3mUBvXupztTHqr1/uPQOMpg+tlu9X6unWNO5l4Y9Xwe7QOpnaH9bBQX2dbaWs9hlcSJ6nuGW7AvVKf3H7fKqJ1DSy9GK6QX+JpK0h6ylHpNH+dAHtVCHiVBffpg5yuF3Oh7sck2h8ZRDi0O7GZLHToXd3W2aFPeS/cmE4u/5iuewFpb6zk8DUQ6bwduRT1nkt9VRut0NnmKeY1GAQsEgIYt4Ypb73zlw0HIo1rIoxSov4ftPkVq3zNLTbZZNI4ymLxfhzMrLtFC9KvFhyDn3sPWxZMXxZux1CyrfGu++fd578zsnXWtuq7HLI+S7WPWS/hYuhapxSePsiLVES8X8qgW8igB4g/rRr9JtRegsBxoHqKNo8L7sXw5RONWk6ReZtvdlcRcv133mJeW3dhTNA0ptbWeQR/zMEWhwmttpObSqEdeeZRfs8gtHGLof+LRz8CvqVlhah3xciGPaiGPWpz67vuNEQPVeo80v2xjlwD5t323tRRZZv00wijLzaFeWPwkhiNaXqWt9RzCVBb1jEB2adQjq1OZ4vlgtEZ6qemBW/bX83ASJrExKvKoFvKopanPrbSeT1Tr6TaOiitu5VscmM3LGHUwbZGa6jdeINXI7eehuDpn6XMyH4fmR4uv4Nvh2Olt9VS8wswqj8pQrWe0sm+x76jVDYGUvmtWRk2OPKqFPGph6i9grQGD2rEvMfkj2jhqy2UL/5GamKApc1qjv9uZ2Ajk3HbYuvhMv+IqzTrjW4eCFNGrIVrtvp1+fZlTHpWhWs/o7l1wI4PVLS2kpF0vtq9yLeRRLeRRyxIfxjbbS8tFMfM/UF0aRxl0OvJauW/1DrWL4Nrsle1uhUu/7CtObJRZ++8QTqu++xu1llmr7kz4klEelaBaT73bxkvLLoS+PLo5yzBqyubk7OqWdVGzIY9qIY9alPjzub3gSO3g53/7cWkcZTBI3XbQuhKU6q01m3W5ntml71/FRKTM1noGU/9r0dlvo947p7o9zF8yKh/bsorbjNEq6ebcchbCL1TSTecwF/KoFvKoBanvvt9+n1B7c5x9H2vNofTJthcP+TGq1Zd1glK9a9V3K7Pdyv9ZerCvOE3fns3IwyFSEV2pZrQ/qc2Eic96M/9qPaN2hxWexsovVCxBwjvyqD3Io5ajvvt+e3F69Wo90aH01ilH+fl7py9r/1K9E+HTbdpAqv2snJ7gWSuytd7K4IYVfRc1epL6VJ6ubPr0qHbX786ouLw9t5yD8gtVgdOPLsijWsijFqM+t7In36ldrSc6lN6+zCj8Z2rCEQuzL9W72POHvSyrrbb+s/TiCcUXo3CQKTlUR4muhbQpLNu2O4gsh30en3iUPzYYfVVVWJ0jPDKrslQYe5FHtbz/wh20DPG5lX2z27Wr9TTXxG8/B/LVZU7zpO6leuqblXvmUUtX6ylObZSoT3CoNxNdGWFTmHvKvq+T2D535kO928ZLFbZOE36hyrCNJMZBHtX0idtsEeGZpWV7tPFMbmnsnN+4Ro2jDLqbGH1Zu5fqGSzat8yjFs5eFOsUSmytZ1Cvs+NbYWk2q3iu3F7lXVoazd7uc2RsY6glfGodZbaZxX7kUU3kUUtQn1fd++KqNpyc8ZHv1DjKoLup0Ze1d6me/NKoR4551MKJquJEfYV2JQ5vpKKr1Fx6HBkubHDpaWS+ZMdoLOC1dfEwyi9U9nWpGBF5VBN51ALUR7J7R7FqrR/mm2yzahwlvf/tE5/WHN6lejcm43/DPGrp6edwQMsr0C/DoY+56BoUlyU8jusaXBaeLb0BxIGMOpnvGhpmIlwEsHQtP7SQRzWRR81PfW5l7wmpW63n1DhKcxf4V4y+rG22Ldpi7TP6N9oB/p+FI1XBV6MCBSIG6yPWmhPzJrn+2rPKRn3T5r/MO+qEz6OrQh8/4Z0Rdg3NURR5VBN51OzE32w7tJeuWq2nOQ2z3pXGyY/8fZZRuEzpb3O26/5QZNSW46+F558Vg5FwkNk49DLWXBdh0oLPaku9l+Tr8x95B9ZOK6XDwSck/EipULeOPsijmsij5haeWVo6VJurjXlmmoMQXbqxcwJMPkOx+bJ22krnLbMRkV3wt3Cmqpjf7XwiZWFQrSO6aanwSoYXbNMoiypS95Y68jvEPCtQNy1dBFBik1n0QR7VRB41L/W5lQ6zqnKvQOEIpyA6sbs7bpB/abIpIjNqFvHG2m5A5DG//8Kyi88UM3Lz1jB7OZREaf7dexSTndimUS5n2HrDMY9I9ZF5VWQnyi9UBqcPMyOPavrA/Tgn9bmVDkMxufmIWd5/NN+TG/Nf8hOlLlVkfhVk/5z6TUOv3Np0LRy+hONZ3u6EPAWHgjPN91CPtTun1hu/WUydWPfU8ag3fWQd+3UkvJ5adIkqFkUe1fKePGpO6nMrXU6FWjIzx3a2Zo2jDCrMXDpImBRAbHG1++7Q5ba93sJ7aQumd8kbuBrUkza+FpZksfLRO43yKCx33nFMfoeYF6yLIjsSzl8XHhpAk3ke9f7h4cfXf348PLwP/8VBvt1z285HfG6lsdrmmdpykRlGN26NowyW7bu8tRpso7Wd6S7PRr05NsunqoLTG7knhR3e9zXLJS0KyczTKJPue8blkEadzJ1Tv86EZ68qLE5Df6551PuHr5++bPm0X35/HTGU+hh+P6aiPrfSaZV/vWo9u8ZRBimKSVritJHOS2vbFj5m7aOWnYJWDO/CQWZicHdqdjC2WGVqn0Z5bF5oOlPyzmuzjQqdzEXniR8Zh66YkmEe9f7Xz3YZ3YdPv0aKpD6H342JqL/cdgv01SpEJl8Vq/kO0lyGIN9EorGyS4lbL6O/fHeHcquOXHYOVPELJfMw3CGd1qzRcUiZ/dMoj1aHxvW8RvuatGYrsxC+20ssTsMQZnnUtx/bFkVFH358Cz87ANvrzUV9bqXbSFZtSn7qB79o46jmxQr/uZpwxJLMSsf+sX6v8tge6p+FO0SE41le5q31DNaeaL6FOvxRZ0ijLG5Rl76RWxjNlWTf4vSddhFAhcVpGMYoj3r/uVsW9eTD5xHWSLXXYWE04nMrHXMduf4Z037xii4Ibn5o5UXMj5pLu2SY9jE/836vMpqBXvzVSvDlM/GsvEGpjuarvsOD9CRFGsUCvilZtIr/K8ft3Ca8eL3C4jQM5JJHffvUt7X4/aeDPxrtzGciPijrGuiXqtYT7cbQbvMlv6qnffgqPPuYu2/pcmkVAi77aiVYA5V3az2HUEWzCNqgVM+4vvk1gzTftsuzQynkX8ZL0LoLn1qHSTcKLMIij3roszDq2ZeH8Jv6+RV+JSagPrfSNdAvVa2nObrbs7pIcMet1ywGpPJrzLby32DYqF/s0ney4Kna82gyJv9UVc0CDUr10qRRDsujPCajtjCan8o7K/BM+VavsDgNg+nnUQPDqHcjBFI/w2/E+NRHZc36rxfkXtMnrNbTfDVuN44y6MBtMfi3qhr7J8EicYvtof5ZNv1THJCHg0zC4D1/LfkSZLCqLE8a5bD9hm1ibTQiMN6+sDPhIoASi9MwnHge9XF4GPXu4EDq/ffwCzE69bmVzmNZtdfF6V4JRV9B9uVv4QfEWGw74tVT+y/bOoiXjGoiFn61WoXjWV7WrfUMdtnUfAc1WFOS4rH5l8HTMxyzifBBdFUoFhOuAfZfo45pKedR7w/f3u7TIU3NH8Kvw+jE51a6B/pq48vJ0g3Red19i93l5/Etth1xWqPzT5LXKoM3//8suyBF8AGVdEsng102NVedGKwqy5RGOXxxmWYlDm3i/wkHn5DwjV5hcRoOoptHfR6jmfj9j/B7u6Ncb3rhmaWle7W5XLXeVMMb0cZR+96A5ZvvOFSUWXUw+ivLa5XTuH/ZVyvBJ1TOPYUc+phrrkvTT0dsexltp788yvRl3SCR/idvB79nyr14sy4RxnhE86hvh9XpPfvyLfzurijXm5x6Z+QerxFqI8yJxpOijaP2ftXJb2RksIDC4fXzrTyT/EZNOpZNXwQfUTmb6BpUnGmmKvqxfrbCGv2vLtNHhMFeBv8kS1i3Uu6msO14gVck86hfYyyNenLAAinK9aamPrfSY5pfbWw+TeNA0TUa+0MH+fnoPZ3YFRhtovNPopITo+VRy75aCQ7JU07MG+yyqdnHXH074Q6Lje3IxyamjZ6NyvdzlZ9uJxx0W3SjwNL08qgRuka99HtwB6nf4XdhVOqDhB6fVe4laIq1saKTjPvnchX7G79iMBrVf4sKUo1AfbpHLduWX/E+DQeZgMFyPc0lp/InTjPFO4j+l5flaZUfV71QoVhM+NFSYXEaDqeWR337MPJF/T70A34bb5EWthF/w+o1qa2W1Ezx+DdtHGWwJZzBWn35escg13yo0eZ6y77OhsNZXsJXIYPbUXNCXv67aH/puyH5MN+yl7nRkl2LrYsPFT61jqTbeWBsWnnUw/gZ0P2v8K908zX8KoxJ+Om56dtBQW2l1wTrbVwbR9HJfAROvbSfZGuA4lMYQS/zN/KNxR0ayUkWQOufuJRVTfLpqWUvc6PNTSoUiynXTxt0o4AEpTzq8yQnZGgDKbqZT0n9DbfXuCx/tZ7o5eoyjpOvj9CfGzVqpf0kWxplNPZfNlwV7HGWb2s9g5tR86TLd+DLWVUjX1Zm+XXF/hpShHvxmvZGwwJ08qip1iN9Cv9SJ9OEY3iiPqTtF+hkr9YTndbtVOYmPyMdjliNfInJW+nSKKNGHcuWngouhEi3tZ5BIznNFyD5BvBZV5Go9ym1PO9Ge+1WKBYTvsdzbi6LSajkUeM2MX9pYB41dh8rvKDejabftVL7NGMPxzVnwk669KmRfwfQ33rLaAudR/k2hzLaVXvZ21nwrz3d1noGyyI0F5yqn7iEbcyfyM+nhCPWZ7C55n8qFIsJN0izrEXFQjTyqOnSqKF51EP4PRiN+Ctuz/kquUn5cav1RJeydfqQ8o0j5JfyGPXRfpQxjTJq3xUOfVbhcJa37AkZncFaSc1HqvxzNO/+Y+oreQzzEqNRQYViMeXl05ad+rEUhTxqyjRqaB71JfwejER9wX/Paje5L4NRq/WMG0cZ9OuQ7x5rtjhqnXMu1OYqLDv4FJwkzvWWv9K/ETVX+cifuMSLGNTXlhq+sMuPq55VKBZTnq4KBws0LJ9H/dx9cKMYlEexPGoy6lOsfavNM1frOTeOMigtUX9bNVsclXKrcqdm5svGq4Ivnrk6lxjch5q5ivqJy/zSrj7cNOy1LVwc9laFTubCT5d01eqY2NJ51PRtw7+Gf7MDukdNRX1s1neFReZqPePGUZrVO6+FI9bisKv7Sym3KvdoIP1k2cG/4AZDqd6GLvUfB5qNodX/ftM2jnpnsBOE4d4b4TPoqlAsJtyLN+d2nZjQsnnUrxku7efwr+7H5npTEV+zsu77seXGO+O9A4kmhx3HGPI9d9R31bFZlfMk70yoy3T0sqssBP/eUy07Ud+CRHa5qfqJy/3OLn72/bbW8+llWKNYTHiWIOsEIaazZB718X6OCzvkA34PvwWjEJ9j7T88UMvXRlshKzru6Bo7CK6WeE08PzFbHJW44kT+Tv5r2bX5gusgMhUrGLyFak7Gq5+45EsY1B+e4YDVuXwbFSkWU157WWFfQ4xsuTzq/Tyhz/378C/v9SP8FoxBfZfY/hmB3NfzSF8ConFE57xQfoN88c4yXoujUm6q95dNtV448lkJNoxe9oSMSr+Pedci7pmJr23M/squPuC0+94yWCX5j2ElZG/CDT57V5oAC+ZRv2c6+R/Cv7zX+1nWbdWj3h65/8p1uZfFkfq5alZVdm90IV/ipD135LU4Kmsb8ycue+ste0cLviflmR42WBOhGe+rD3hSPzjf6T887UoljbbbrVAsJrzPYYV9DTG+hfKo+VYgDWhn/in8EoxAfZfYAZNVarnHOPOd3o2j9HuYjroF4gS8Fkfl2sPsLZettZd9tRK8Y9O05TEIpzW78KifOM29CMckvkraLTKRH1e9kD5q1e7FW2FfQ0xgkTzq44xX8iH860pHV4j4mpUhGUHKaj3zxlEGvU605468FkclH/i4dI9d9t1W8CyluS/lK583a82VaOKpvl8n7d7El6e5PSLuwifQFQ4+IeHTX2FfQ0xhiTzqw4xX8nv/9lFzHl4d4ZmlZUhGkLFaz71xlMHqHu1xqNXiqPQvVSbZ4LK3tGCLrSzNSwzyUM3H6aX2X65ohjcq8c57bhVNRgODAlmr9JM5cTtPTGv+POrrrFf0Z/j39/kcfgcOpj6uHZTkqFXTj1Ct5944yqDjpvTckdXiqD63hSeT9rELv1rp3bNZXojk+/Cplj6LryrLX6onn+W7PSKEi8PeqlAsJtzTr8K+hpjI3HnU3MVwvcv13odfgYOpd0QdlBHItXY5eM5TdAqsT4cg+Y6b4YiVqDfgfSX/onCTzbUXfrUSfFMKx2jJ4Gmg+QwQX5lT44VRO8t3237MaJ4qd0PJJ8I3d4V9DTGVmfOoLzNfyP676821718l6j0oBl0Kub2ED530FF3DdhMOdDf5zfG1XwWMts+pMAmqvlv5Xwu/WgmG6CmKoQyWSoq++ogvJanQ6lm+vCwcrzSTb6JHBSpRlQdqFfY1xGRmzaN+zX4dP4dj2INqvfGJv+YOzAiSVeuJvn70+lTyHTel546cFkeVmOI3mZMOxz0rwb/5FAv39Dd2FC3XFW9NUGTnK/Gr4JUJGo0MxLcuHoXyPoc1wm5MZc486vvsV/G+bzdzqvVGp75L7MCMIFm1nmjjqF4fSr7jpvTckdHiqArdeG06dix7LQRn7jO88RssiBDtgaT9V3tSpNWw+KDTK7HWj6b/49YkfgjhWVe3KlSomS+P+rHAJ/8awd2O9QAAIABJREFUjmIPqvXGpt7JfGBGIPexDhqeJ2gcZfD+rjx35LQ4qkQ3Xpf9jBZ+tQrHs7gM/TP0o1DRdtDio50y+7BrT6541TTpb2rwnwqL/4THBRX2NcSk5sqj3t8vcB17L4+iWm9s6m9VQzMCtVqaQyaGEjSOknwzfSMcsRCjMWeFKVCPnfY3y7/h6gUnCcbkBtm0aLSvHYMUeXLK56leqUk4fF0V4lbhW7tIKTAmNFMetcTiqP7Lo76F34DDqE+0Dv1wch3ah6/Dz9A4yqDARPk91ST72Og2jRmdepXzXwsPQQUrScIxulnpF+72nKmYi3aOV6PI+ZH2JKjVa7vR0OCAMbCP8KF1VNjXEBObJ4+av3PUuyHLoz6EX4GDiHfkHZwRyJVwD18BLto4qucEuPyUvugr1COTRkWbSmMej25eC79aCf7V27/065eJqvZA0v6TLbR4QXswYLWA8jYcvqwKW5woz7oWmSjEpObIo5aqgvsRjqTtZ/gNOIT67vvDM4I01Xqibx994zX5jpvCOYr6X+kLdQpOrsNnV7RwqyTBuXv3ihGDh4Hoo1Q7BKnSx/yd/JIeqzjK42voUYa2ffsIP2Mq7GuI6c2QRy216uh7OJK2h/AbcAj13feHD2yzVOuJjtx6Dy3kux8Jr5qQu5d3qlKqZ9PLfOlXq3BAi3NfhKK/UlI1kqaBtozw6ZVYvbcbbblbYY8T4aFahTQQM5g8j/q42FX8FY6lLfwCHEJ9zcrwjEBummLYcFO1cVTv2CH8CjHCu+AaLY4q1J5APcl/snQcpZdCm4/K9XvFqPZAokJMh3aPCKMTadLC8JHy1sVjEZ51rbHjMaY3dR71abFr+DscS9uX8BtwAPGp1gMyArnv6WFzxjkaRxm8RQlXmXmsw9kUe6eS783/aOl+HXqzxeb3qP5qCNXlZ9pnrsKuY8+0x53hcHV5TIo8MTqtg4UPraNCGohZTJxH3S93FXs2M6d51KiEn56bAzMCuaL6IXVMSRpHGXTc1K3hEV0gt0WhvaFsdtgOhz0vwb/7hc/IYfSjadWGxdqLo4pV0mh3PDJ6cfeZqioxV6U86xoOFhho0jxqqUbmf3wOR9P0K/wCDKc+w39IRpChWk/0221ASijf/kh3dlp+T8L/1FoOLt8N7VE47HkJPsGcM9NL/Wha9UGqvTiqVJCvnqIYrVQz2nNXeevisQjf17WqgTGtKfOo3wteuw/haJq+hV+A4dTXrBwyLkhQrSe6LmbIHkDyNSa6PbhtmpVW2Mj5BY83gXDY8xLsbeJcFqW/j5bqMh8WRynRHngaPSFsVk7X6Csp/HyukAZiNhPmUYtexJ7VegvWFeajvmbloIxA7nWx96cRfeEdsJZdvuOmbpSi37v4n1rtT0zqJJYuPNELU4231jPoY64a60uH+oU2JH2ifSP7bHLo0cDwSYUFgMLpYKFdZjCDyfKoZQvgelbr0ct8ROL1JoftuCs3A9d3lCP6vjukJEv+PUp3elp/QcRf1Wb4PeKopTNCvdvX+D7Vrw9VfZPXXhxlnJAOoz0e8LkcPoX8ylsXj0Z5D+Ri5cCY2lR51LLtwXvurfc1/AIMFp5ZWg57cZD7buhZrZencZTBq7ts2yPlEc4rzPBLWjqO0vvL922iIb8fhO65ZXGUFO3V0j5x1E04dlnCWxePRnifw8Om9oFgojzqe/iH5nQfjqdpybbr2ai/UB2YEajNJfebH0rUOMqgz47sZjo2A85afcyJo3zPUjhGEwZbbKo+RlkcJSacAyU+18NjO41HFW5y4cFahTQQ85okj1q6O3i/z/QQfh5Dqa9ZOfBVSm4yuVf5tuhIY9gLh/yLVDhiEQavoE/qzb7J90N7tHQcJbi6z7VsQX53Ut1XThZHiQknQYnPq7v0aXytQmdJ4VnXcrOFmN4UedSyraPevfsRjqjlffh5DKXelubACyv3JtSn+FB0omXYt5p8xZlskYlNc4hifczfubwLLJ4Q6OWppreq/mq8YStnZ0CrIjXSy3psynl9tjlR3rp4POFD6yg4PsPkJsijlm0d9e7dp3BETeHnMZT4FvIH73am9vl6VOuJVqEPHKgJ19Q/kd0F12U1vm9DnuEsFq4t/q6rN2Ns+vovX/Csu3mT9KmruDhK+4rYfJnpN5P7T4XV08rpYDhY4HDj51FL71X3IRxRE1vrjUV9zcrBGYHcCqPO4/VLzVfdoSNn+QZIqi9SNtOfFfdt0c8HFLIXvYpwz6319NdJytY4sThKDnHUGGx23a2x765wOnjw1D6wzeh51JZ/Y17hiJqIo8aivmbl4E2jj8OvXFjn72TRRTFDV/zKv7irpin67WKeVBhsBsRRXeh9y1iu5NNvIreWjaS1/1BL7sAufUls3t3FyxteqtC7SHi0Jrv8H+ZGzqOW7mT+7t1DOKaWpWsL81DvZH74Nj2u1Xqiq4kGv9qG3ySm356H8/Holl203sQjK1w8jpKbE/AsXNDfYVN2lY/2KvCSSb747RwOV5PL8GBTpHeRcDp48NQ+sN24edTyW9X9CsfU8jX8PIZRn90//LKaVuvlahwl+Ub6mmqZiUtviJL1JvJx/qPlL004pMUZhqfyj1DhJSXasXHJxVHiz85wuJrkW3K+YHJKD6GcDtZ8ymAOo+ZRPxa/ZF/DMbUQR41FfPn/CDUVntV6yRpHGbQ9UY1TTBbj11wcRRzVjd6sh+FMvX5hqOxJ1V4cJdtwa1rEUSOw+AJ6UmGrE+EWdarL/5HBmHnU8vHOz3BMLcuv5kpCfcJ1jBcptWCn09dCssZRBlVNoq9SLo3May6OIo7qRq8ux6+Pif46CN3mJNp/pkU3YCeOGoFF88InFXoXCd/TRUNvzGPEPOrT4pfsSzimFuKokaivWRljtzO5IKTDhxJtq3DAgEI0X3smurrHpJF5hT2ct9Hf60xiWlrvNNm9G63kl0nqLpDU7gFfdccr4qgRhOPWVaF3kXA6WHTCEDMZL49afqc64qhFqDdHHaPcWW5WeX+1nuhE+CHj5vDLxIjmKfqbaT2p2ibTYvHa8nGU3mmyqxzRX4en+wzQDo2rPjuJow6n30/uWYXeRcLDtaJrMDGTL+9DTmMbR30Px9RCHDUS8aW+45Q721XrqTaOOmA8If/aLrq5kcXqm7qLo4ijOgrHtDS3Thra3Y822gGf9MKyss9O7TjKoxeiyfhgU6R3kXI6WLO5J2byqZHX9PRh+WvW64A/hh/HIOGZpWWccme5eqfjcIiviRa2HVI5Kb8/nGgvGfkaxydl9xAmjupG7z42G51fhw+gRnfxg3bXrbJFNDT0OpxJLf+mSCdz4XSwakkwZtFvL7o2gSvWPL4g/DiGUH+ZGmekJjca3dO3JF/jKIO3Kc3Rp/6aiEdlJ/iJozrSe23yql3Qv8+EUxXtNeBl918njjqcyXTVpkjsKtz8RHT5P1L4HCIa4ij0pL5mZZwhwSr83oW1394TNo4SL5fYyLaKUO/t9lfZxVHEUR3pvXp6ba0n//w80V1tpt1fp+5rInHU4cJh66rQu0g4Haw7RsPURtxVjziqLvWlviMNceWW5rSq9RI2jhJMBN8SXUnu0ci8Ha+mRhzVjd55stpaT7+PufDLpvYop26HYeKog1l8/fxVoXdR+NA6Wu8cwAG+j5tGEUcVJT7nOtZrrlxFd+tVSHSC5bDJFe3uHXuuyHLkT9uTwlsIy+esG404Su88ObUyEZ2ieGGcLo+T0P4TLRzlE0cdTD+m/k+FG104HazQSB6L+DDalnrEUZWpv0uNtY7dqVpPtDzrwEshP2zSXMrs0ah0XXnPlnA2BClkrXIzH07jc/nnwGFrZ6el3ZHAq2Z0VMRRB9Pf4OA/woH1aITv6AqN5LGET2OnUcRRNakv9R1tqOZTrafaOOrAxEG7maxqP1mLpTelF0d5xFEKF0jvxcknRNUvyVEOVbSXgBeO8omjDibfUu5ZhdxVOB0sPUjDdD6FcOZgX5a/XL0+wkP4cQygvmZltBGB3ATprvUKqo2jdsZnHakXm2gulRDeNviF0oujiKM60vuu8WnaI799lvIm4toFzxXWjOxCHHUok413H1XokSacDt6FgwUON+qWen8tH0d9CMfUQhw1CvWlvqN9ULmv7V3VeikbRxkMmzSXMsuvKXtUewfhcDoEKcRReqmAzXS9+v632q+a2oOcym+JxFGHMukt+cjgdB5KeZhbes4QE7mfIo0SiKO+hGNqIY4ahfialREzArmYZ/tyo5yNowyW+UguZTaZ+xRuGzODcDoEKdzdejfzrhWqalbyfcyVz6T2Q7R0g2HiqEMZdTJXXkA5FuF0cNf8NzDc/chb6v31afFLQhw1P/XX3RFHuR7VekkbR8nGbM8kx576qyI2xctNiKO6kwtVXJq76vcxV5551/7q2ToMqII46lAey6cfVbjThZ81tZewYxIfvoVkZhRfF79cX3t9jF/h59Gf+lLfEXc7s6jWU93Oe/tKrj7kh02SL1TyLWMeVegJ0RDOhyCJSyT3DDBZmXIcDlyN5q6kf2kvLTv8q9UYcdShwkHrkn5IjER4mFt4A09M5MPoW+r99XnxK9Yvjlo+PstAfc3KmGM1h2o90fhhhG+y8DvFbAsHF6f/Hropsgi/weIiSbxZ6b18erTTkI/ypVeZaZeJ1354anf1MoijPEYIT7aMd9MJH1pH8UlDjG+CLfX+Wr747SEcUwtx1BjEB7qjzl7LRW8x5BFNB0coxpIfNkkuZZavcHxUYdazQX8PfpWxqF4wYDFE199dU7p3nPYYJw4CKtG+NgZPB4+ddx9VaJKmPMwNBwsc5GcjnznQ+8WvTL+eWMv3usogPLO0jDrrKvdVESZGRUsnT0ZYQyDfBEnytUB41+BnpXvxEkf1oDdYdwgD9PuYS+4C8Y94e8zau0AQRx1IvqvcM5dGfYcQHuZWOP2Y0yRb6v1zv/SlDEfUtPxOgAmor1kZd5wr93L/Ziiat3GUwbBJcejpsRJf+mV0BhZxlMapCoe1NIfuuvJ7Z2lv2aS9wjRMSdVCHHUgj+aSjyqME4SHuaW3TMDo7vtVs/W1dL7Tb2O9/30IvwC9qS/1vRv1kqpX6+VtHGUwbApHLMCjVq/2/D5xVA9yb58GU8bqm9+qv7Vrry0r3l9Ye1hgEEeFY9Y17mBek/D9XOH0Yzb3/YrZelu6GVPPQsTw8+hPfc3KuG+64tV6eRtHvXu3Cr9WjOR7qUWt3ij3hzPiqM7kHnEGhabyfcy1HwDiM27Fs/xwPqTox1EW3z1/eWwbcRDlYW71WUOMabIt9f75tfDl6leJ+C38PPr7f3t3tt22znRrOI4l91Eiy3KfZN3/Va4Rd5EDNwJFAnNWvc/ZHvtf+SiSJolCNeI5K2NXAchtlG6+IkQbR81H+YqQ/2xSTGX2qNVLv+vmsCQQqQnSa60hv0YSfS38Nc4LYjLas9uS1+qJh6P0V/Dyhbx/aZf0jkP4UyDD6Ucrl1NHo7r3Mr8pjugj/QcBRlA8tLSMve8qlwy2kaqv2jhqnB1C+c8mxelwFrV6fOY4hKNEkv/0TpV6AsRMPkNSu9xMvNQxea2e+AdocbhytIOtr2TIohb+zE2fxI7xXHwQmRlL325Mt3W/4q74B1BNfSE1dvNDuZ3mjc1R0US1kS6B/GfTGO3ax2ZRq5e9kbnHrG2VWtTiwHpTjwfIx/HF83vEz1/yChrx/N/ieOVYfCI8yvChIFxYzXcaxnJXhGMmcN/1clUG3PoebBDq37qjb13rVuuJZsKMtYxV/2xS7CHjUatHSwKHggmVj1G5oLv4vCHVnNm/FOP4G7RfPNlr9cT3Q4vjVaM/5uAvg77wOxN+Wmc4/Wiirq3SUH3r337WHXXvOYAhqOesjN6VQrZaL3TjKIPPJsVO5ha1euSAE46qIPcAFh+tJ59VKh7OE493ZE9ZIBy1G/nGchvkT+bulD9z3c8tREw9Uu/FsufvreyNVfz3qCeeszL+3qFqtV7sxlEGn02K6wKLRPz0jcw9wlEqNWly50q79Zl8WzLxPubqo4PFU8smpzfa4BX582fUyTxDIqBw2X72PEyM5LZVNOq/i46X7FdxNB9aFf8AqqlP3z8d/ZLq/eLHWqfYjaMMPpsEoyoWtXoGg/In57AmUEnV14uvFIeoRD4iLR6NnmnXOqYfAyH+6CyOV41wr6J/jf8xr0c4n108ixUmzicfqffiZ8czUlmPuC7+AVRTz1mZYEtfrvjhYaKb6GtsvB0V+c8mwU1+i51PvnI8phuphKP09gOUe2rIPwLESx3VpwxkWKJ/SLseXT+jpDhkXYqji8cmuqv8O8npx+Qu2kWj/vvvttv1XFb+zJ6JXGGk62Qu+H16Jtw4arwu1eoNeRW3qYW/bf7KXm3yxWSLWibcKpfvI/ydLp7bYzDHQDxSnL7SWfvRqR5sNRl28ijDl0Lxo3UwcQa7q5w3t6N+4+pqf+d58S+gmvo6aoIrqrc7P5NtHDXex7L8Z5NgQ26LoTl0JDAJRxUH3YtcgEC4m7R44yP9Ttzqz9DigLMhHLUT8eS/VxLc2cKd/miqgN21Gan34qbbJavsj7Uo/gHUE998neRrQLBaTzQNZsQ6LPnPJpVOzxvEu7w+Ejxv7RmEo3S+RuUycnXXnPJ9zOVbH4k/Q+XDHZMrTokU+esjH6/+K8O9Lvy44VGDXS0bR6P++++y0zU7L47kYz27XIWhnrMySV8auVfGWfjGUeotIjQbyDh0JCIF/ItHAw+dr1G5wmTdmIp8ta5y260H4meQYH5xSqTIr+Et6vkfqSdSjkH4ky3D6cekls1G6r247nRFa+NutI4agXrOyiRdPSxqoASM2DjK4LOpOOLu1KdePmDP7QvhqDp6z1+ZU/MP+fRIwQrn19Tf9ekb74nn/8mv4Ysj1pWhTZrwHFT5nQOIO78pojDT69PM/Lb2d/XruR6Ies7KNF9rRjtKPY36+aD+YwVbIFm0hWBcyxePRYHQwkquQlz0S12+j/lccBrpa+IfOPK1jpMjHLUT+WreDQnyqJV3EOWf1dB23nKk3ot1l3NSmxy1Kv4F1BPveTJRvxOLnjzdjVooKf/ZNElZ6G4s2kLwkWOyKBBaWMm9dURjqvIFzvqlZsLZCn+cFgecjfhoZ/VwlPpk7A0ZQq+iA7J/M3IGu2o7Uu+vHnlH1clRd8U/gXrFQ0vLRAUmVOtt4WDUQIN8BFBwRSo/492hWqcJh3CUUKmE3BpKc9EpP4xUv1BX/RSSWyoeclUPR1m0l3yU4VNBODpI5Bu7uC9CMI30SI+q7th+XvwTqKa+jJrqY4BqvU/Nx62TlM/00WviIb8a/c166onwpugLoYI0uSpUzbiK/LhG/cZH6vllzIEQv8nVG+44bFk9ydBKW/hu5ksNO2g+Uu+v9sP1qpOjbop/AvXUc1am2tE3SnHuZeS3l3jRhNAY/BfypTq/qdV74vA8EVr5ygVaJetI5FvHCdY3/0v8tUPrKPUrJB6Ocsrzz9BKu/jROtIPTcBwy+siAtNO++F6P2t/G7V6Y1DPWZlqsWuReNLVyKm98kPiBPMjHFL4qNV74BCOKg66o+LgelM6OU9m6hH8ff1QtPp7ngIa9XYR4jEUh7TcZ8XBx6P8vElw+jGR5aoIwLR00fi6Xlb/Nmr1xpB281D9U7+3cRtHGTTX0cskt9j4JAP8gUEHD6n0P7maBsFVp3yI02Buu3qCKY9P9YCheDWlRQb1owyttIUTWvX7/EFVn5F6fy2WTU/M8qY4gk9QqzcG9ZyV6XIvjF7jPYzcOIq11QDytTq/qdV7Jt/lR+xzVO7xqxcXkI9GO6xv1HedaB2lnt5THLAWgxfPswyZgMLVJhk6d2ESl52jUa1r4a6K//3PXBX/Bupl7WROtd4nRh/gLZ8+ohdXcZiZQ63eI4NkS6lLJdezUO9jXX2hOTcIpai/5WkdJb9PVRywluJ4dY3+TSlIuL+CQS4rJF18EotpoWU38/P633Nb/COop/4tMGEJBdV6Hxh/6ao+AEZwYeAwM4dik0fFidEjFXCR2weRS/WRbwrjsNuungNN6yj1TRfBCSebnHZVE7TSVq42IY8dg9wVwZcObtqV6w3ok9W+13pI6gkYE55z9SbuPY3fo1a+8kQvzUe+29Zvik2eObT50tqcLg6vM7lwtHwf8+KIBamfxAwJI58Qn9chXpGqPhl7U3Hw8Qh/s5GIiUHWRfCli5/Nrt6AH9y61XpQ4gkYUzY/dBpJ0tr4+1js9VdzGNaWoTvpNhxCh1rNuuVWocUR9iX/1+8wtV0+d4TZ6+p5peLhKKNN1QyttIWf2iRiYoDOI/U23De6fANKE2lkPgr1Tf1JH6EOtVB9TLBny+qqmvi28QN29x85dJ3XWvrK5eVqPQBO1N9OFqsb+XklxRGnox7IF7/PHT4SnnwrDj4e4WoTPtVQ71wmGvXff+dNrt+QIYI0Mh+Fes7KpI9QqvXeMUXdmvwAmOKIe1MfevmA3f1HDplsxUF3JXfGtLqgqVfRzy06kajX6jF7Xb7aTLtDmsVHwpMMrbSFNxEcslkhZkhsZjKLFu2jljf1h9/kwBJQ3z2cdLVLtd7bxm8cZdDqWa/qzOH2pB/BE4MhiGI9eeWyIuj0XsNir12+Vo/Z6/KbgtqXyKK/5JMEbSaVq02KgwU+caEUjfrvv1WDsM+QbLB18a9gCPWclWkvavE/h98TbaPILwz0cvLlC02S5N9vRT75Ty4TQ25fX+r8kNYzBvlHKLPX5avNtC+RQ1buE/ERhaMQrtknERO1BnRRmtb07cwH9W2/Lf4ZDFE8tLRM/Ag1SGnoYJLtQPneOlqlOl8MVqS/WU79ZdCHTm10pNr9rZTpJz8vy6NIV76xDnNJ5fcEtWucjD5h9UYXj084/s3OISqJjNTbNHUe0qCfTHLUONRzViZ+hDr0H25umhCgfJ8uufWV+pSBB8VRJ+XQwkOt6kQuoaw4wm5m6tFNj7WN/iO0OOR05KvNtAOvRuN4MhSmCidJs3OIKsufRdxFwLShn2EBOJKjxqEej5k4ZcWpD2QrE7Wold+nLo64N4dYaYYNz604tPBQ6/YjV2eikwehHryfpLvg+ORzzAhH6T85iyNWYrFn9SRDK+3iR+sgERM1lkIj9TZNGY8aFo0iOWok6p+9Uz9CqdYrTPTRUPzviNGrrHeY+8js4CcOsUO15YBcq36Zel35JbrJTrt+Q7fj9ORfc8VdpcRpGo9HCHsnwg9uhs6gxvmAAXNtTBf9GVicSHLUSMRzViZvfki13r8myqiWX2DpZZI7tI5ix+2JQ0dZtYslt7Mv8wxQD6OYdMUl+Rk7077XHcadPNEbXTw+4XRMEtlR4VxrpN4rU8WjBkaj7op/CMMUDy0tk38KOOU6NzHVGZcvm5Db73e4Ndlxe2YwWE9vm1+t74nKF7v6JsncJArNZhN2ph2OcnjvPNEbXTw+4VS/DJ27MBa5kXqvrJYTXOihrbIWUxxMSuo5K9M/QuVbGrU1UeMog6pIuRWWft+THF+Y2zFIZdPbnVZbS4mcIfk+5i4rG4dyZ4jTfscZ3T0ZCvuFPwMydO7CSK6KoIuW1fnoV/p2aKus++KfwjDqS97pU1YcFv0NTXbC1Zfrenk+Dm3NGNbyrDg1evTWVXKVJsURdqFegGNTdWM0dQyqpGOv6pOxNyWIhyhXBxcHC7xjYNVaQ4tfbx/5YJdDixNvuInGor7knb75IdV6myYb3y3fxUOvsr44REEJmpNuh8F6Q8gVU0nMdJdfYrqsKx3+KKFOZr7BW5x2U984/GiEG8tn6NyFUSyvi5iLoHE7Ng1PB7ss/i0MJJ6z0iJlhWq9v6Z7ZdHJvJbDWopPnGcOywK9KIJc4EUi20+9HYxNha5Rm2fIkg6+GpWjmow/2InwQJPJdpoRzHJo1VpjIxbs3Q4PwE035i8d9ZyVFikrDiOxGpmwQ638WZb76HRYS/GJ88zhahUH3V9xjJ0pBKXVR7dP1l5wdOw0YXcSGZPvMbrFM3wsCO8kSCf5QYfySL3XFmN1bbof/pPpYz4e9S/fFqsDp+r7iU2YGyA/AKY44t4cPjRpHfXMYMCRYiqb2mkTKNmdqXfZs1nXUIePERT3lRD5HggbMsRDhJvVmQxDRWe/bKJRYyVI7ZAa9d9/Y7ewykw9Z6VJyorBTKw2pty+Um8qK7dWt1hLFUedVnFq9CjuTqvVmgg8BtTfyT41N0wpwe7mxX0lxKk7WoJ4iPDWtvRtDBkXRcBF292u2UnLnYYI/iz+PQymvqff5MrSYeLRlEsx+eCKXD8UuS7Pb9Br/96LQ4ql4u60XMSgOMLW5J+U0rVLrziMJoU66fCrUaeJDPEQ4Y+2DJ27sLO7IuCibnG102++2CkZjFK9MYnnrLTZq6Za78F8ynWGfHBFbq3u0KOUdgTPHIKHinEEud397idJfYdIeuz9a+oZuXAgvediFHHNEA8R/mgzem6jm3URcDFwczH4dF3c7PbzKNUbkfpObKOUFar1fk8dW5DPQJNbqzvclDY9jSdHJ/OBiqPsrHc3NPXqm32fv3mnQibIkl7HG0VcM8RDhPt9Ss+HhASXkXqFm6shWUrL+x2DUf/dFf8mhlPf0//e5toaDcudzrShPzqZV3JI2VPsjd2JQSdzzd1ptQ/43osm9Si00fACivAxgkYfoYM4NevPEA8pfrQOtg7xiXPXaNSfqrl1bVPz27ude7avin8UO1D/YGuUsqI+X7CFg2lfV+o/X26t7tCGV/lDvbHi3OjRnLOtVm3SuTRHvReMU7c4oxn40KUcRnH6ck0QDxHOx2TrEJ84dxqp94bV/e3HP3DD8mKE0Nti+/89bIFO5o9oMjFp4yiDXB+5THKHphA+TY2n5pDLppnXohZ/6fvZfiL+JpobTcf0hXVsAAAgAElEQVRymoEPXcq3vFEC4H5x8PEIbybIjeqBmN16emvYLiJ1e/9zlKOlcdS4ioeWlmYpK1TrTdyUWj7XR26tbhAhzfCBuSWHTuaayyq5DeXiCFtSD0I79X9x+JuEvuLGEmJQI/4sQzxE+PHN1Bl86KKItni6WV98FJK6/XW3a8OoZ7tN9MO/1Ht9NisvSV+tN3UNhny8T22t7pBuo1n91YXBLrXonG25HJaeKX/qL2Srig/2mDAC6Xve6AJnqOwX3kMkkx0fsRyp957F9dXF5b/NzZeXF1fXI2aArT84mxhAPWelXcpK8mq9ycclqbfxkFurO7SOMupqPDU6mQ+m1ru7512t/pi06kbMvFyMQPW5+cVk0+pZgk7myo3li4MFXizHqV4Tc3N9ff3z6urq5/X19VgpUS9WQ2b54QPq+4ftUlYcOvVMaPKtE/UTINeh1yELvzjovIpzo0e1zkrtTu94ntRj0Fb1Nk5Dx6BLuT7VYdPqWXHw8QgXWSgHVdHb0nikXic3RKPGJr4Z2zBlJXeficnzqNWLUPS+OYsj1OM0ZGtiDrvUqrvTau1f+93WM/U+5lazsZyW6tClXGRmVI+aYbKbcMm+U9M/NHY+eupQeItzbtKRqY+eaRjRTz2FZ/oFmPr4crm1unz8LkkziC05RLNVYwlqW8r91k3qi0uvbrjJE54xEuUiM/Xi3g0ZGk0Kp7TTWAHvOQ8wUq8xolHjU1/ztozoJ/54nbxxlMHZVVury8fvxAdgN2bQyVx2DKJcUVVxhI2op9iZ1XskbweJkQi/5pw2UTNMdit+tA6rxFa0FGWkXktEo8anvuZtuS+VuFqvwcwN9a6ycpnkBq2jZOMbHRhcLt3SSrW4Qa8ZROo3kVf42anLM4QVd5YOhxzqZwkmuwk/cvhYwzuu8gSRRnPx9qnELtRzVlpG9PNW6zWouZI/uXI9eosj1JMh+35bBpdLt3mEWhimU12D+oaIWfcRWkdhDMo9jxxyqJ/IjS6egPAjhz6feNs6SISoJaJRUxBPZ28b0Tcqwx9VixIM4Ykjj9TaIDlse9KN4AWdzHehVunYJ+6i3se8QUn3qGgdhTEoL+Qdxu8+yTDZTbj3H30+8ZbldZ4g0lgWRKOmoD4Jue2HQNLd1CbTkuR38dQyyR22PelG8MLh2VEctAy1tKA+C1D19mPKHZ3fQusojEE5KdDoHs8w2U24JYXb0xtN3K5iRIhaoov5NNRzVtpG9NWDcxNp8p6S38Urjrgzg23PDNud2zKYty1cc6KWW9blVLE3NK6kr3OMTbgFt9M9niCXWrklRXGwACP1BiAaNRE6mb+SslqvzaaV+i6eXGjFYNszw3bntgweHXLd0TYUB9tZcYANiAeg525jNBOPJsGYhPNKnO7xBLnUwh0W2DtE6RfRqGo3RKMmop6C0fh0ZKzWa/Oakm+to9aVm15EXoqTo0e5eYTai6hD6S6ZyiMzSFiEA+F7XL2+d0OGyW7C2/uMnUHhwiwSpGC1LE4jxlE8tLS0rplIOBm6SeMog108tUxyg8hohkk523JoPK88Z1stdNA+0joTbjvyW3y82NuyTibBuJTjKEadzDNMdhO+HIydwb/usoeWBvhJNGoq6uGX5uUl4kuCCTRad8nv4qlVohhMhWJy8F90Mt+N2vlrX4dK3fzIlPu4wIhymZPRacww2U24w4JbqTWmtlzbxYL6W3NbTkY9Z6V5D0mj3OdxtErhVd/Fk8v0MWgdxeTgvwwKg6SbR6hllzXfCFHvSexX66Fe/AgTwi0SHZJynyUo7Rfe3ieVHa8tGalX76I4jRiN+iKqeXlJtmq9ZhUYxf+yGLVMH4eJOcrFX60ZFAZpBxSKw+2reexOPBuyUU33mNTTzWBCeLCeU7PT4uDjEd7eJ5Udr5wTjaq2IBo1JfVFVPszkqtar9mwJPldPLUdUIOJOey3/eVQGCS8qhJ88BYHOC31B6T2zfMmo7Y6UCac1mPUrd+v91w94eIKpiBj0zkj9aotGKk3qeKhpaVDeUmuar1m7Q3ld/HUPjkNvjPZb/vLoWhCu3mEWnZQ47Mlvg3iOCW8+BHAEMWdpcNo9zTDZDfh7X2mIGPDBdGoaiuiUZNSX0R1eIOlajjR7vzKR1fUalEMvjNpHfWXQWGQeDKb2hls+/mufv8Y9sF1aqsDYcKD9Zy69RvmV1YrfrQOszOJSd2bRYIUrBipNy31nJUes0kNWkiPpWH6tHpVqFomucN3Jq2j/jKYgyie4KIWPWha3DATf+s4Vno4tdWBMOEHp1PINcHngvDlyFAqiW0xUq8eI/Wmpr6I6rEna1SNv6NmjaMMoivNB2l9wiBJj9ZRGwyS2cRDCmqPiKZPBPGXzr5fH3OLCDEcCD84nbr1Fwcfj3AEPEOpJLaz/OkWChJwx801NfFFVJcFb55qvYa5Z/K7eGqFZwbfmbSO+sshma1HqmkNsQShljkR6o9Hy74jidKcMSXhKjOjbv2O3edqCUfAM5RKYitLRurVY6Te5NQXUX3eYFk+Y1tu/8tHV9QWXAbfmbSO+sshhq2e4aJ2yxcHOB3xUmbLwPNJ8TOAIYSrzIy+VTNMdhPe3qezAh6d37iFgvpb/OLmmZz6IqrPGyxJkv9By+Wp/Dktjriz4gD18IHzl0Eym3BD3kdq57BdKbN4l6O5Y6nel73idwBDFLeWDKeQq3py7giELwedFfDokpF61RaM1GtAfRHVJ2Ulx3fsvGk0QX0XTy2T3KBFKR84GwyS2eRTXNQ2R5q9fdT7mHumQebpAYlJCTeBdvpUNZzNWUt4ez9DqSS2cGEWCVLASL0m1BdRfXZlnYbnDte0llx+F0+t0aPBVCg+cDYYFE3IF0uoPSSanbBvxf+0FNOZTOqzXGFCbcrJBvEnxyb55NwRCG/vZyiVxOeusoeWBrgmGtWE+CKq1xssQ7Ve228s+dY6ao0eDW5BPnD+ciia0G9HXRxyX60ekV/Ffve/PItyc2wqYXrCLzqjTuYZBp8IXw7LYRQY29ouFtTfmruwCfVFVK9tqQTVek0bRxm01lHLJBcfefmbD5xXHJ4YxUHLEfuab5X+J76mNJ0QnmdALqYl/KIzuvIZdq+KH63Dsv0fxrW8zh5aGuCem7AN9UVUr54VCTZWG+94q+/iqfVBcsi2KQ46MYOiCYOSK7WzWBzgJMTfwp59zC2GC8CC7h+AQYfJFwl2r4TTXE0LrjGm25VdLKi/C27BRtQXUd3eYOHbTrQO9BUHIEatD5LB1j4fOBsMiiaEO6A8UwvMNEmZVO9j7joQy6iOCcqEmx4ZdJh8URx8PMKXw+Dtj4mdM1KvGiP12lH/Yut2Ypxe80O0ruNX744il0lusLVvWsMzjeLs6FHrjvYGtcdEk+0Q8T9124EFxS8BhhBuemQ0PDLD7pXw5fAcjooR/SIaVe2GaFQ7xUNLS783mEOt1A72W6efy7fWUcskN9jad82amIJ8uNWkIXVx0H21CFKrv2pcx7M7/EnCgfBK3qDD5LMM6TnCRRWe4ygwnguzSJCCFSP12lGvPO+YfxG7Wq/5u0m+tY5ae4jiAPW4rlOn4JBN6XAexR67LZZQ4oFn2wbE0ROc0YruSt6px6lBcu6ulC+H95nFzu6yh5YGWBONakj9i63jGyz0x2z77T716J5aewiDrX3hjhrtGRRNWBRdiZ3HBudMvEmc71/5WfFbgAHUppxscOpkniA9R/hy2JZcYxTLtV0sqL81915L6ouojm+wyNV6HXohFMcgRi2TXL64UbqjRnsGyZQWrb7UdgGKAxydeLmN7zgsozomKBNeyTsNjywOPh7hy2Gb5IoxLBmpV4+Rem2pL6J6npu4X7MdBnfL7+KptYcwyLbhA+cvh6IJi1Zfag+KyQtSxReUvjHn4N0f0Yzwi85oeGSG9Bzhy0Gjz8zOiUZVWxCNakt9EdX1DSbf7WiwDhve8qWPakkABtk2vnkT43MomvBo9VUcdl9T3+Qnc7Ef/FqHnYuxiBdBwobwi0776fFKhjm8wpfD90GOnZ0zUq/agpF6jakvorpuS4UdzNPjrMon+xRH3FlxgHrUTllPBkUTwh1QNoklpU79sBRvcGQ8HTzudhLaKm4tGU4ZgAnSc4QvB40+E7sgGlVtdZv9rmlOfRHV9w0WtFqvS8qZ+rlUyyQ3yLY5KA46MYO2ySZlV2JncuKecuJ/585/40Z1TFAmXGVm0GHyRYI5vMKXg0afed2bRYIUrBip15z6IqrvGyzm9mqX8gv51jpqmeQGcx3Vmr93ZVA0YdLqS2yLZOK1qHiY3nkYVvFjgCGEH5xGn6gmybk7Eb4cxmmu2A0j9eoxUq8D8UVU5zeY0xDd7XVphCB/KveKQ+7LINtG7ZT15FA0YdLqS+1RURzgmMSjzs7tXmK+vdGecJWZUQZghvQc4ctBo8+klj/dQkEC7rLfNT2oL6J6v8GM+kRurc9Wn3xrHbVMcoNCUefMibE5tE026WWqlkg55Wmbab9h9p3b3xrkl8KC8F+B0Q2UYQ5v8aN1FMeKFJaM1KvHSL0e1BdRvd9gBsP2a3Xqg6C+i6eWSS5f3MgHzisGRRM2bYDEQjRTbiuLv2Csmw8b5JfCgfCD0ykDMEF6jvDlEO5/hgkxUq/e4pI7sgf1nJXeb7B4o6LnnbKA1PPM6GRejQ+cDQZFEzatvsTO5YRNN8T/yr3/woMOIkFrwhWrThmAzpmWWxK+HM5l1xjskmhUtcU591sX6ouo7m+wcNV6nfa75VvrqGWSyxc38oHzSnF29Nj0MhW79ye8zw+K/zElvbYuxuE0Ah/KhHMEjdL3M8zhFU7ItE50xUAXZpEgBYzU66V4aGnZ736ColXr9QohyKeZqb2t6WRuxaFowqZYQuxhMV2OkPiUdu9mL/Eym9GHcFTWKAMwwxxe4cthvbWAYa6yh5YGuCYa1cnX4qGlpf8bTHzBUKvbDpV8ax21THI6mVtxKJqwOZ9ieS2TtZVT72NeHLAVoxH4UCb8d+DQYfKZTXLucMKXQ603KhpY28WC+ltzY/aiHmzp/wZzet9/rl/1hXpVqNonJ53MvRgksxk1AiqOva+pQtXiARPz1sNGI/ChTDitxykDMMHulfDl6D2jHM0xUm+Ae+7TbtQ3EAU+iEON5+lXkVYcihi1tzWdzL0YJLMZtfoSiyRM9BoSz012L64pfhAwhHBRukGHyRfFwccjfDm8C69R75ZoVL0LbrR+tDupSrzBIlXr9VuQqleFymWSG3xnZugFsS2HtslGrb7Etkkmejhop+/MzQdhOY3AhzLhrjtGGYAZdq+EL4d5qitqnTNSrxoj9boqHlpaFGZxBKrWO+i3wJAP6qm9rQ2S8hL0gtiaQ9GEUS9TscfFNGF88Wei+5+30wh8CFPuumM0+DnDHN7iR+sojhWh/SIaVe2GaFRP6huIEm+wMC0o5h2L9+UHFBZH3JlB8Rf7bX8ZtE126mUqlkw5ycb+TPtP3D6ZIVSVPfoR7rojn3S+IcEcXuHLobCzj3YuzCJBClaM1OtKfQNR4g0WZpe159lUrwpVe1vTydyLQczaqpdpcfRdTRLJEy/HtW88bDQCH8qE0wSdOkkYJecOJXw5MuSm4QUj9eqtiUb1pb6BKPFJ7NAWZhtdW/2onxy1t7VB4xP22zYUZ0ePVS9TsfD1BFXO4q8V++VLrJG46Ec4MGuQlPvMKTl3KOEagAS5aXi2JBpVb83t05n4BqLIG0w9s2c7HRtHGURX1N7WBp3MmRz8l0PbZKvaSrEP+wnOnXY+3b55H3OvEfgQphxHMfo0zdDJXPhy2Ce7YmtLRurVY6Reb+obiCJvsBDVej0bRxlEV9Te1gaNT5gc/JfDI8IqwCB2Qsev1xEPYP4oDtiN0wh8CFOOoxjdNxk+F4ofLSNDbhoenRONqrYgGtWd+p6+yBssRLVe3wYI6tEVube1wbYnncz/MogeetVWir2axi9do4/5xMJMIEFfwnEUh6TcZwk+F4QvR4bcNDw4Z6RetQUj9fpT30BU2aIN0BS1c2WV+hmUe1sXR6gnQWvSrRk8Ibq2jqsmlrg7+vNB+9U7D/C3bTQCH8qE4yhOefv21b+fE36ok8qeBSP16q1us981CtQ3EFU+io0aRr6jcysQ+bayam9rh23P4qDzcsifFJ4P9RatAN/Y2ZMn2sGSAIuXKANI0JlymZNBUu6z/eLg4xG+HKSyJ3HvFgoSsGKkngLxDUSZN9jX4tDcdG6NJN9WVq1VisG2J+nffzm0TTbrZSr2aT9yOF97HRlh6Ugnc4xCOavUKG3fKzl3GOH1VILcNHz58oWRevUYqSdBfQNRZ3SXe7Ve78wI+bayam9r4YnBz+wnwY/IIX3S7JSKPTLG3V0WT36MsJVOJ3OMQviPQT7pfINZcu4Qwuspr8aRGGj50y0UJOCOu03CXvHU0qJTMmBerdc9rqdeFSqXDmDQhzfB9+XWDBrPuyWziUVsxr3bte+XEIkMdDLHGJQzBZ0yABNUiwlfjgy5aVgyUq8eI/VEqAdZdN5gThNMSp0bRxm0ldXJw3tSHKEeuhH8ZXC53NoBiW01j5oLqF2KOw9R2EEnc4xhr7izdDhlAAqfxrEIr6fYO0yAkXr1FpfZ7xoZ6huIQp/F1h+33bvGyLeVVXtbOzQroxvBC4dotVp3tE9pPXLHTC6bab9NlBfgW3OqY4Iu6TZqRhmAGTpNCl8Os8aRGOCSaFS1xTl3morioaVFqd7ZoJfPu/rnRahXhcpl+sifMO2BQ6057FLbRQ+1Pu7HvN21XyYxFo7e+cxQIR2bNdokzdBpsvjROopjRTQXZpEgBYzU06GegqFU72w8p0dgeSHfeqs44s4M4hsM1vvLYJfab1ia2N/AeOE88UhJjI10g9Gk0CfdAtpp4HOIlMuPCT/X+VgL7yp7aGmAn0SjdKh/sUlVUNlW6yl0AlFfrst9dBrENxis95fBw0GuO9qnxHYAxkug1P7jdusx9g7ndGbIkI7NGuRQv0hQLSa8ngryUMe71naxoP7W751MdKD+xSZVQWX7eatwFouDEiM3d8QgvkFzzBcOu9R+l0vsrI52ArUXkf3HXoyDwXrYnfYy3mjec4bSfuElgl3jSFRhpN4A99xjStSnk0udLNdqPYUPKvnlulomuXzrdwbrbXIoDDK8XMVv6GqsbEDxPuZRFi7FDwNqidc4qX/Ab8hQLbZf/GoZjJ0J7ZZoVL2L7HeNFvXZM1pvMNNJPRInUX65rpZJ7tCHly+cFw6Zk8VB69NKcBnrSaqd0uBX0/k2h4A+xCn0OfiI0f2ToFpMeIXg1zgSFc4ZqVeNkXpi1Ne8Ys1pzooDNKDxQSW/XC+OuDOHSW1q56wj4W3RZ46701qBm5E+6bXjJPOT4oA9MVgPu5qL9ztyuscTVIsJ109E2WTAW34Rjaq2IholRn3NK1ZB5dQ38oXGV4B6UrncWt0g9MmslhcOmRiOjefFnrjF8Q1CH/MmHAL60KbefdtpeGSCXGrhRw59PgO7MIsEKVgxUk+N+ppX7GvAsVpPYxEqf+bkFmEGTSHkur/34xCodtydFtv9H6X7lnYLQumx9lUYrIcdqTWULBjl62eoFhPeaKDPZ1yM1Ku3JholR7zERG4Wh1+1nsjqQj6pXG6tXhyhHkYHv3BY+loWYRW/oqsxlqcz7ZdunGULg/WwE/VKPY8a8WcZqsWER1QUx4oglkSj6q25++Wol5jIVQM55UY/UGkEIl84obZWd2gKwejgFwa5bJ6701ondowArPajMFDGY/HbgAoG0SindP0E1WLC46NprBDVkpF69RipJ0i7bEAw/cJuWI9KxEA9rUxure5Q/aX/ud6Kw7LAc3daK+1shI968T7mcRq8mM7BhYgDgz8F9Q/4TQmqxYQ/2hwbR2IL50Sjqi1+cWcJUs9Z0Uu/MMiC2CTzElJPKpdbqzNYz4nDssBzd1orH3WEqLV2YF6+Wc72GKyHHVis35269RcHH4/WHNhXAj3YseGckXrVFozUk6TeXUGv24lXtZ5MW1r5rDK5PDyDxicZepNuSfg79IVnLptYUKE4PvPf849IJR2WY3ChYd8jl8eoPVqcEQnvE96stmwcic8wUq/e6vaTk4o+ioeWFsH1rlW1nk7zA/nsEbmvT+GmmM9oR/DCIWmyOGgLYiVXOz8ntNNEI5XfOmWOQMr82KRm1eAr4VmGarHiR8uQGwqFMdy7hYIErBipp0m4894DxW4nTtV6Ogm68kuD4og7c2h8QjuCZw5XyzV4qBW/2fWRqv0gDDUq028KLjScuqSSqH/Ab0pQLSac+ZphrGE+jNSrx0g9Verp7Ipfxw5lOU+EhiSpJ5XLZZI7ND4JtXjdiUPrKNerpRVV2PEsnkinM+zH6WPuVcgEHfNjn7omp3rUBHNPhPca+FaLZ3ntFgoScJX9rtGlHlpRrN/32ZBSmgyjnlQuN97coUdZglE5W3KIUeuNhdiO1jf+jjlmWnMC/xXrD7r4ecAn5qdWj0mjvdEM1WLC+Zh8q4WzZKRevYvsd40w9cIzyTOnPiPumU7jKIMYnlwmufa69VGC/c4tOVTwuma+aOUJ7tbOUDvnMVhBR/H7gA8cnB27LdqNOkdkaDQpvDQojhXmGKlXb3HJXa+reGhp0ZzF4bIjpRRhkU8ql4usOFSaFAedlUPrKNvBRmLDI4rjqyG9fJzHGr5kUO58egQVljd/cUfpSlAtJjzmKMNYw1wuiUZVW5xnv2uUqX+wyVVQPTCp1pM6efIhvOKIeyuOUA+fOM8cWkdpPky3oVXou0sChXYF7vfieK0ZhKNc62ehwaHB5LME97rwZ4Dv2x9vujCLBClgpJ409f40ot/HFsN1tbrSqieVy2WSC2+0veAT55lDwqTvYCOtRMEdzuNM+s0RLbosP8zVt34WGgxu8RexUi/fJPwZkGCsYSp32UNLA/wkGiVNfRKyaG8ah7Y+YueuODwxcpnkDNZz4tDCw3c5oLXo2uGup495S/prddJLsRP1D/gNu/Xc8yDcYIE2n6Gs7WJB/a2z3zTq1Jtyi54+h9IcrcQy+eCKXCa5w74nw1qeOLSOMl4OaD1vhydSald5fyuO15x+971wpxxtuUzViTcm4U3Fj5aRYaxhHozUG+A++12jTn0VJTuLQ79aT+zlr14Vqpc64pCBR6nJE1pHTUorjDM8ricdH5mH+2vWD0fROgq7cKjof5YglVp4uyHDWMM0bolG1bvIftfIU89Zkd08lI8VaDWO0j9heqkjBuVf7Lg9c4gdOjePKH5MV8XhbUl7umi85iL6m0bE87ELh22QZwlSqYU3XemrEMc5I/WqMVJPn3pBkOwXsvxngFqluHpSuV4meXGIethxe+ZQM+HcSVYrz2Xgwkq7j3nAP+biN6qhdRR24tTJPMGVFt6Voq9CGBdEo6qtiEbpU89ml11BqVc5qk0klO+tI7d5pN1m5hGD9Z441ExYd5LVmlg0cJdEe+0Yb+6VfkM3WkdhJ/rlqC8yhF6FM9rJw4ziwiwSpGDFSD0D4tnswsVA2hNN5Ha65TuZy20eaRf2PCIB/Il8ZzT3pa/WX8Ow+147Zhnwb1l/Nimto7CT4o7SlWDvSjj+nWGsYQ6M1Ku3JhplQH1TX7h+QDpaoNeUVj6pnDM2AAngTxzGbVsvfbUiC8PeS9KZDGq9BsegH46Kl5GGlhxSqJ/Fa01XEH7gkMgew5JoVL119rvGg3oGhvCOrXQhgF6YQH29rpdJ7pCGr9agrJvizAjyjjdInc9BW83a7QYjRpb1cxaLQwYqOKRQP0vwsSC8hajWvQODLBmpV4+Reh60OnKUlDf0hQMsglE89RlHeptHDs2xi4NOymG+kXnrDq2uHMXhfW4m/QetN8lhBPIJpnQyx04cBro+S3ClhbcQ2TmM4PzGLRTU3+JX9rvGhXoGhvKGvu7Wq2CJo3yrZ73No+IQ9dCP4Il6WP+3f28grYXXgFwi6djIPGTVmHw4KmQQEO0It87+V4YpvMKbrsWxws85I/WqLRip56J4aGmRXu7KRlj0GkcZpI/IbR7p9z3J8YW5FYdMNvPtUa3QQn0flBPp/NCYpRzy9c6MgsBOijtKV4J7XXjTlU+1ABipV291m/2usaHeCFF781B1Z0qxC4j8PnVxxL051H/RHvORQ0NZ4SGlW9EKz9avraSb5wUtGpMPRyXo7owJOexZPUswRFK4kxeBb3/3bqEgAdeM1LOh3upT+xkqevYk57mrLwz0No8cBuvxjfNIv2Wyf+hQa3RE9UaJ9sIxaGMR+XAUk0mxC4ePhGcJhkgK1+wnCAZGx0i9eozUM6LeCFH7a00zNVdzo7s4TDF6MTyHJqVs7j9y6OBhf62kCiKrn7LS5ZySOxgjKH6oGu9hl+hNfV7xBvfs3G0IfwckCAbGtrx2CwUJuMp+11hRX0aJn0vF06fZk1a+mklv80h+Z5/N/Wfyffp/R1j5ai29isP7mHYf86hRkeKXqimOGKjg0LPwSYau/cWPlsHQGXPLVfbQ0gAX2e8aL7qPzwfqHS0U1xiaSbnCRfWP9IJ40p2Pn7Dl9kD+7g7RHUjraVtX3jaT/msOW8hR/FIx9BfGLiz2QZ4kKOwXLshmhKc3RurVW1xmv2u8qDdCVG93IpjzI1p2oV55JphJXhyjoOKgc3IomfBfDWj19q8L4Ug//8IGReRzcglHYRcO406eJcikFm4hGXNyahqXRKOq3Zxnv2vMqDdClH+GyuVKq+ZAqFeF6m0eOczMydAOYgtaTbbf4d+sWisVoCq8p/3HHDbHUf4ZyigI7MKpk3mCNmnC21K0VXB2YRYJUrBipJ4Z9V19+SWU2iQNzcZRBqk+eusCh3AUm/sPHGr1IkQOpQreqgLY0tH4uDERwlEIzaG/5BP/YvHPCcLqPSkAACAASURBVHfyUj91+MBd9tDSAD+JRrlRb4QofzrVqgFUm4DIrwv0No+EE79fEI564FCrp173vA2pxVfN8ko6Xhm4yS2vHYRW3FC6IryAPiHcyYsvNWNru1hQf+vsN40f9UaIBs9QrYCe7CtfPrail0nukIcfdT58HYtavQjdqrX+JIrDe5d2H/PAIRH5ZyjhKOxAvjfahgTNi4Q7efGlZouRegPcZ79rDKk3QjR4hkq1qD2QLc9Xzx8RzCSnPbYLh1q9EJ07tE709pXkaiXdr0QeuSQfjkrQTwfTsXjzPPHvXfgp4cfNnvipw3tuiUZVW1y8czIhTP1rzWBHXymiN9d946tXhQqmlTm0hSAc9cUkcBgi6KCVDLD120k6h2EeOSIiH44qjhjYnvq84k0JLqvwJ1vYaRXRnTNSr9qCkXqO1Fe8Ds9QoToM3R0Q+XImwUxy9Qjeb2pNHlnU6sXYHS1+Vk9bx2KlX7Oha2jUw1GB23ahAfV5xRsyNC8qfrQMRiCbuiAaVW1FNMqSdEsLk2eozgaVcK9I+ZaygnllxTEKIhzlUjERY3dUKrCzbcKZ9P0Re96Vet4iDYaxi+KG0pWgeZFwFmzkiuzILswiQQpWjNSzpN4I0eJjTaZaT7dxFEUTQxTHKIhwlEmtXpCog1QTpi3P6Uw6zTF2Rxf19G/CUdiB/C7fhgijND4hvO9AVwVLjNSrtyYa5Ul9W9/jGVocdifKCwuWBdUsPjX1Tlt76uNJHwQpydIa0Fkc3pukQ/HBcxbU3zvMu8IOHIbvPkvQvEi4kxf7hoaWP91CQQLust81tqQH/tg8Q0WSI6QXnOJVoYrLAsJRJrRCJO8IshjQ+qPYagNAOloZuo+5QTiKpAXswCEv90mG5kXCnbyKY4W8JSP16jFSz5Z6I0SPb2WNHDPp4nD5BBLBRs+Eo0w4tJMN0yGo+GU9bVV/Ih0RiV5BQzgKgTlMO3mSoCxVeKRJ7A6BMZ3fuIWC+lv8yn7XGCueWlpMxs5IvIX2pUN38s2eBZNHHBLxmdei34DvQZiiIKnY3zbBBJnWgm8Jv0ZUX68naKiDyViUiT9JEHgV3kAUnnKEt50zUq/agpF6vtTzL1ymQSikTGt3pFWvClUMqziEo+jEq39vPwjTsFqqPcc2LyjlgMg8fD+X4ieLoaULhpMOdf8jwZ0u/MUWpHVkIozUq7e6zX7XOFNveuLyDBXI/RE/VXQyr0c4yoN6W7TfPnmmW5D6q9iiBEL6rzh+xkLxk8UQjsJwTp3Mgzep+6LdyYvnjJkrt1CQgGtG6jkTHgTxwOUZ2j9nWj2PrDhgMYrrMvUQ3m/CUV9cdqjjDPDSyugtDu9fJ8rByjhByncVv1lMmKxFdODwifAkwbNGeWOqOFZIW2cPLQ2w5pa2pt5Ywebc9m5ociC+9STfXkcx8Ek4yoLFcKM4q16tdrGfnlfpuyPBlnnxm8UUBwyEubs3JGheJNzJi07mVpbXdrGg/q6y3zXmhAdBPPB5hnauelSPRumPwlc8gQ7hqDhZN0NZdJONtDUttYfyWSdq6e6MGdrbFj9aTHHAwLYshmg8SdC8SHheD53MnSxX2UNLA1xkv2vcqXcy93mG9g3szeVzH9SrQiWX61IzxN7BnHKL9h2RooZS+Uaf3f/SfcwTdHMhHIW45OcVb0iQiSk804RO5kYYqVdvcZn9rrGnvpLa8znBPddI+tEo+ciKZOCzOEpBhKPUC54fROpQI/XW+qRnn3RWaIYlinoCOOEoDKe+y7cpwWUWTmenk7mPX0Sjqt2cZ79r/KlXAxktojr2MzaIRslHViRXZsVRCkofjrJoZB6qjazUGf+4nnym3Mc8Rds39QTweXHEwLYc8qefZHjaFD9aR4ZE2CAuzCJBClaM1POnPqHc6QR3S5JwiEapLwo0N4+KoxSUPhxl0cg81FXSatZVHN4m6eyFFDPd1N88jILAYPKpfxsSNJkUftZkGGsYxF320NIAP4lG+VNvwmv1qdarjN8hGqXfX6c4YgXFUQrKHo6yaGT++6Q4bmdSuygfPX6lYyE5hhAQjkJY8rt8G4wabwwlXJnNY8bF2i4W1N86+00TgnqdidcHc5/0KItolHwKieTb2iLSkT0cJdy99K+PK8rsSNWYf5RXqVwMv5+jfINwFMKymKLxJNaOyJuEv3Kzf6a5YKTeAPfZ75oY1JdSnw3R1tIlPcojGiXf7lky8Gmx95lg0/ND6vXOD4L1rJZahX3woS8998rr5ToY4SiEZVEo/ihDjzThr9wkT3t350Sjqi0ust81Qah3MjfbUOnQV9IkGiWf5yMZVLEIR32UHJKAx6TtYDvTUif9/Zmc9DEXQDgKYVnshTxKcJ8rd/JK0SfQ3jkj9aotGKkXRPHQ0uK2odL+y/fApOBCfvqY5HqdcJQ+9bS/B9GWAl+LX9jR+ydXOfl4nqB25gHhKETl0bfw0QdJpFEoP2p4Bhi4IBpVbUU0Kgipr/o32H2ptV5/uESj5HscaAY+CUfJ8+glG66gsviFPRVH90T69ZqmlwjhKEQlv8u3IUG1mPBXbrDmkTFdmEWCFKwYqReF8CCIB3afzLO2uRKnNs1o1atCNdcEhKPkqd/Yj8I1rZY67e/lGUn3MS+ONirCUYjKYozGkwSDE4Q7eZ0VBws1jNSrx0i9OE6Lp5YWv5Vu0w1xo7mD6j0ONAOfhKPUeVRLvN/dyJXUOuydvwDp1IV3jjkgwlGIymMz5EGG+Ldw4T6D9dQtf7qFggTcZb9rIunQeruK4YZKuya7c6MKHPWqUNHVmUUufupwlHpA/1G8OgmpvN63P/UbZ8rWiRegfBfhKERV3Ey6EqTnKHcyzz7/WN6SkXr1GKkXSfHQ0mK5odJqgbrvNCpDfvyYZuBTvePWg8zhKI/kqIAb01IxhrdjO8p/vPMElTPPCEchKPldvg3f49+Eyk+a5ANn5J3fuIWC+lv8yn7XhKL+ofb2Z766NvGoM6sFhXqPA9EFO+EocRYXyKmod2vFj+zozYCCdKQywdrwBeEoBKXe+3VTgs8E5a+BRPsPjs4ZqVdtwUi9UNQXU6YfzS3iUWanRr3HgWgmOeEobTP1lmiP3mu17Uyqzvyt86j8yEsVASEchaA8SsUfJbgHhTuZZzj9xhipV4+ResEoPz5/Gy90J48iHDgV6n0x6HEgGt0jHKXNIzkq5IxnqXfXG/E+6SCI2+tjJ4SjEJR679cNIV9C/xC+HDxklF25hYIEXBONCka51+pv54j+j2mzJt5unStMfkKcaEiFcJQ0k+SokF1Mpf403vgTUH635pqyRDgKMSm3zv5XxILxfxU/WkeCRvK+1tlDSwOss9804aj34TXeUDmZsFTj8I29eHHyPQ5ET59FOCre2LZteSRHxWwbIRVkKOM7yrfGfq4+IurhqAx5I5iC/C7fhgST3ZQby5dvKIhYXtvFgvq74u6NRn2MvPWGyt5E2+OHb+zEy1PvcaC6IrCId6T90jFJjoo5018qM6A4xSfKt0ay+LH8or04YmAbJtshDxLUByuPj840u8LLcpU9tDTARfa7JiD1t5n3hsrseIIlyZlnZZR6jwPVwCfhKGUmq4GgxZRK1XBFvZVy/D1b3QbhKMSk3vt1wzzBLaj8PZB5/LE0RurVY6ReROrjzuw3VPbGPcP7x6YjsuR7HKgGPglHCTNJjtoPevql3l7/HJtyBGQecc7iRwhHISaPF9CDImAfkPJ6KtXwCiO/iEZVuyEaFZH62yzAKT/5PtYO1uF33zeK/IJA9dQSjhJmkhwVNU1f6vT/E+JRzgZN9+dKOAohqfd+3ZThqaM8vaI4WCi4MIsEKVgxUi8i5c57vwNtqHzdOz48HB762z88O97z3txQX7jLZpITjtJlkhwVs5G5WufD17UQypMb8jXOZjMEIan3ft2UoV9d8aOFFAcLAXfZQ0sD/CQaFZJy573fDIMIRL3HgWzg0yIcVfRxzsEkOSrs1ZHKDXj1rpIOVOZrIiIfjqKvC4b4VtxJuhIM81Te3s9QK2lnubaLBfW3zn7XRKX+Nss7QD4a9TwS2cCnRcgj56eO9Oy0DXHXukoX4FXQT7mPecLYMeEohKTe+3VD1AaGm5ST1QhH6WGk3gCM1ItKfdxZtparYcn3OJANfBKOkqUcc9gQeB2gtBrb/BtQ3iWfJ8hS+Jd8OIoh7BiiuJF0ZZjmqfyxljSDXdk50ahqC6JRYRXPLC0ZRsPmIN/jQHaNpl5P+yBlOMqljWzgpa5Udu/GcSknLaiOEJ1UcRbE0JUAA6j3ft2U4RZX3qDiEaPmnJF61RaM1AtLfdMww4ZKDuo5ProZJPIb+w+Kw07ApFAicjaMVKz2RPOw/pEzkbE4DWJYK2IA5YEJ/8pQj6r8ScAjRswF0ahqK6JRcam/zXiCRqG+dNcNfBKOEuVxYWIn6UtlB7yst6T7mOec4VacBjE0dsEAJuXiDzJcX+UHf8qsWGH3ZpEgBStG6gWm/jajwWcUxaUVo1vQ5BH1SNiPRr3v3rPQ8Yfi13b0snmiPCAk6Q5PcR7EEI7CAC7voN+/fx9kuL7FrxbCYkoKI/XqMVIvtH3lx2fORW5M8j0OdN/VHuGofN86LnUSsRe6SlmXz2loyj3F9pO+UosTIYYumag3U7+tN2TopC39rUY4Ssjyp1soSMBd9rsmNvW3WYbRsDnI9+PWvQqEoyRJF2Rtip2jr5Tf+xz4Uy5Mlh0gOrHiRKgJffYxDZd68d9JasUIR2ErS0bq1WOkXmzqbzNGk0ahXL7yWzuT3OOTM10NkPod/Sx4SF8qR+3xkJSHiKadDSI/diBnSy/sRH1AzKYMN7j09SiOFr2c37iFgvpb/OJ2jU39bRZ4Qnky6j0OvuleDo+E/GzhKJsJ28EvjFSw9qEQbiZcAT8/KU5gEvLhKHIXUO2suI10Zbi6hKOwhUtG6lVbMFIvOvVvND7RoigurRjlTHL1c/cgW9qF/PL2WfReQcUP7ujhfaW8JMm7vyP/98oQYVRzKRjP0qtf+ilTHC36uDCLBClgpF586m+z7NcnDPmCM+VM8uJgFSWbDOXSxzx+vbNS3uV38T7mKYZbvU0+HCWcnwtRys+af6UItxKOwqeusoeWBrgmGhWe+tss8ddzMOqrd+m5RsXRSioOOzKbPua/w1dnKdWrfBOvn0mcbSzf6i1ZPB8jUO5S968UMxSKX62kOFr0sLaLBfW35k6NT/1txoZhFOo9DqTXAh6hj1QD5G16dsRf5CrVxh1q54Fmfp/KN32W3hGBJJdxGr8z7It8EQ9Hpd/cl7C8zh5aGuAq+12TgvrbLMNo2ByEu/s+kM4k92hTlCnzwme+dvyronQt5tJPunmqiPE/9GeQZb46GMSmgWH4Aa+PpOebpE+/VHC7sosF9XeR/a7JQf1txuzjIOSHw0lnknt8dCbqkqw8O+21BIsAqWfLTDnqkXp3Rz8cxdwWVCruIV0pRp1Ib1OlD0cJOGekXjVG6iVRPLG0kL4ehXw2iXQmuUc4KlElkE+NRIYIhFJs8IdwYW3u5Yh+QiOj9VBHOhnnHynu7r3iZwtJH47q7xfRqGo3RKNyUH+b8fyMQn1rWjuJxCP6keev1adUL0WFhFK0VrnNW4rmLe/S/6NNkT+CEdmMd82S+yf9nZt+OdXdhVkkSMGKkXpJSMfy2S4MRD2/R3sloF9n8qA47qB8SvVyPEFN/jx6S/421Q9HpYgdY0SnxT2kK0VnNMJReN9d9tDSAGuiUVmov81SjIZNQX02nPZSzWS9nSX7wqdUL0fvaqdp5/3sZ++UrX+Jsl8hVPLZF0ky1k162zV9OKqv5douFtTfOvMdk8xB8cTSkru6IJAT8RtNPJPcZL2dJHpsFP3IkRAj/3SRkL5Rtv4lYvsNNeQHxGw4TXFlCUfhHUtG6tVjpF4ixQNLC8nrUciv4LXPs0mvohy9zGfqmX4bkqRbGF2RbmhMpH+X0JwANXx6GGaZuyu9wZ9+PdXTOdGoaguiUYmov834go5CvbxJPJPcZIBOjt03jzGHD3LsSFtdkl7mZBrr3yWkL6CGU9O8rymubPGzpRSHi1bOGalXbcFIvUzU32ZsFkahvhJQX7cXB6ypOO6AnIYZ0cwLT3IkJ3zIIGj50eED/3AKwxcHH1Lxs6Xw99PLBdGoaqvbnPdKVmfaD0+6XYRRXFoxe+InWv38PUnwB2uSqPYgS3KU/ITY/nI0Ev6YQdAy+RfP16OGiv91P0ZFykkS/4rfLaU4XLRxbxYJUrBipF4u6nM5GDQThPwaXj2T3GQbNH4648xollGeSRBOMcI+2NmxKG3KmA9+tHd8etjlBTc/PLZuHu80wiFHX0nx9ic5Cib1MFKvHiP1klGfy8GObhTy2Qvq59kkHBV/C1Q9oXRTmuQom+zBbnIsBj9hkEOX7JPnZO+0d3h/fuq7RndKCs0xNFI8HMWmRA/Ln26hIAF3+e6T5NTHnSVaTgV3WlxbLfJhFJfmONHzGZ0aR+VJjqKX+Sfm5BmbzCFLdKFm30XGkJ25PiidWubleBmJP2LUe1KEtGSkXj1G6qWjnrxO99UopMffOtRIuIzQCb4HalUUlimarx7v7ixHasJnHP560ywYZ8dCjY9MvzSNgvDz4uBDEs9XYzZUe+c3bqGg/haX2e4SyL/NSC2Nori0YuSXa+qJjM9ih0BmRq1jUyVHeWWtNZekjfCnDC5Vlhjyd61H6ZllVlrxM3SdFQcfkvi2IfUmzV0yUq/a4jzZTQKDuRxcoyDkqyTkV+4OdSZ/7BdHHol6kt8rqT49Xf4++sgUmPyIQTQ5RxbJidxO6IFhPMrpoZckL0c8HMW+RGsXZpEgBYzUy0g9d51nZxTqpWb6QRT1qQMvIs9u8aoIyxWDKH4+XlCi8cShuClDXeWeYFzQsIm8U0pokkoH9S/d4oAxqavsoaUBrolGZaQ+l4NpQFGojyMzyCQvjllU4D9ar4KwZHn5vQd0CYudsVjDIZ4c/+92pnkZ/E680/ZIkhb96s3lI+8WClrbxYL6W2e/aZJSf3QyBiIK9bWiQfqAS9fSuGtfl/ZdT5IVaKlHvDuiBeMzh4EQ4av1TlRLnu3y0oxC8FlC4uqfaaypGmKk3gD3aW4PvKL+6CSSH4R8pZnBgs1muR31r/arVRvzdE1LXUZPtpekifA21PPBHwSv1juSfY7OzTJ4bAr4E72O1NdU9DJv55ZoVL2LLHcH/lE8q7QkGQ2bgHxeicElsFluB63W8xqql697Nb3M3+G2yJ6SxU0Se8WoHBE067Hm9Mj7Xhx9TOrhKAq3mzlnpF41Ruqlpf42o5N5FOqhFIcupjalYjGjyDOroXoJd0GdUgWayrIQ3IbFTRJ6G066QYTZmXdKCM1SMCzfU4Ehq438IhpV7YZoVFrqnXmZBxQFGcy7Ux+D+VfIYhOX1l1P5vm+Os2y11oxHBg2IYubJHB/F/Hm215n3umdVBx8UPLXhN2JNi7MIkEKVozUy0t9LkeGicc5qC8CLF7RxVGritirxmmG0e+coXyzgGErNGDcZHGThE0Ln6k3QPTKKTUKwKepdJBPomZ7oglG6tVbE41KTH0uB2mlQZwUl1aMxZLNp1os3h+uWzQqY78gepm/JWgnt6E8/pCDfvnoFzxbVevJf1ZtSPMYKn65HJZV01sSjaq3jn5X4APqfRRouheF/Dwji/PsM8k+3LendMOTt2Ssc7ZprtYSfcxf84hZxly8O7Tfc/pzsRgT+SRw/elrxS+XQw+UyS0ZqVePkXqpqXcyZz51FOqreY9Mcp/sj2hrYKfv/gcpI/lOyQLNUPD+mscwspBBRIthEE4dt502SdKk5BS/XA7b/FM7JxpVbUE0Kjf15S1R/CjUG3Z4bEYbjXWOtRdqF43Ksxf9SnEawHDaf5jMXwz4B+wxmtQpHGXULC/0sMhXip+uhy2KaZ0zUq/agpF6yakX/2QZDRtfcWnFeLyfjbI/Qm3A+UWjknYrpZd5gT4h//Jo/xwvg8EjGmUVBywOXleesDgXIztG6tVb3Wa/a9JT/zCj60UQ8mk9Jos2o0E6gXb3/aJRWQP5dh2+JkeCccEkZhntT9gkGuU0Bt8oWzrRg6j46YLY6J/QvVsoSMCKkXrZqSdbMJA0iu/FtdXikklulP0RZ3ffMBqVdffT8FJNiy4hJZOYZbC/YZdolNNKXf2zalOeAEjx0wWxtJoOI/XqMVIP6oOITtNfoSjUh2u79Mx3mmQfJT3KMcSRtULra3EmkmMXvOTyBx3q2p24RKOcTrv6Z9WmPJUOxU9XlLO3ZAPLn26hIAF34W8LfEp9m9AobRofUv8Wdckkd5pkvx/jA9Tpk/9ZzCnx2yhORW5s6LzBJWYZKT3qq0+Z+dfi4GXtFwcvK1GapsX1CDm5U8CSkXr1GKkH/dIfow8DfER+mJHLjqjJVKhHIbpFOEajEn9q2uRgNMGa400uly9OepRRNOp3cfCynL4GXPLPR1D8dkmJLkhDjNSrt7hMc3vgA+pPzPePHFbkW27aLNuM9kNDLIYdo1GZs0otr9dkSC9+k0sHvjDpUU7RKKOuOk6dzBM9iorfrolyvfFdEo2qtjiPdhdgCPWkdaaRRqHe8sjnE9RquW1fKmTTfveVzO2rnZr7To4X6Nts5i8GSY86MopGORU6O3WSTNTErvjtmuYUn4ztwiwSpICRenig3tIzbweUaM6Ka6vFJ27itdw2/wb1ab/7Sub21U4JA5NjvfE2m+EEMeZfec2CMPqjMZqzm6nSofjtooI099RxlT20NMA10Sg8UM+0IJs0CvUSM59Mcq/RYd55Ok4lJhtyN4UoTkdebOe8w+chGuETyCsa5fTKogRSUvHjVR0QjxrT2i4W1N86zuXHbtT3/rNOKw/npLi0Yox2RL1CJM7dzPc8o1Hz3I9Np+Zq02Lz+102f9kB2u/ZVEY+Morhyn9WbcgUGi9+vCziUeNhpN4A91GuPnYm/qycc4WD+FFcWzFGp1m97vEfvvVCTo05NoWYZzic2d/HhH64XsLp+VQ52f81u80WMHphOaWdZap0KH68LuJRY7klGlXvIsa1xwjU22zQiDUK9ZW9051m1qvZNUVj5hrWyNzH/ItxFHF0vD7fZ3STeOc62s2CcCoqc8o7y9TGrvjxwvbpLziKc0bqVWOkHv5S/yZLvs0fiPpmtFMmuVfzKNfpel89m5gn72P+hV7mL5LXbH7M6Caxjir6PUadsniMTm6qSofi1yub+/RNFfaLaFS1FdEo/KW+/0+xQRTqrTqs7jS3jkaOafo/PNtGpe9j/icfozglObGZ8xGjW8J4uXhk9xi16tVVHL2uVKmaZjHYQzYudnVhFglSsGKkHjaoN32lrDkI+YQeq/exWxXZ3C8d3Kz77gZyYuzCtdPIXrP5CaMR+b7dzL1G6j1wCuI65YGmCo4bPVwezNm62A0j9eqtiUZhg/o2Mh/UUah/lnplktt95Lu1jzqxLdSzTqUYi9tiYBrZazY/4RRwdk14dGti/ttsY8qpi2SqSge/N9B+pk7zY1sSjaq3jnUPYFfq487Sl52Eof7t75VJ7jTe+ZFTe1jnQj23Mz0NepnbdmxrR37W6ybLGLNdE/Pfbn82TmnSqSodHDdE9o8pRhlmyUi9eozUw2t0Mkcb6h+mZnea33e+0Vf+zHFP/wVjcswiDRPxLfBqxepqGlbgfrUM6ludaPVmGxtyVTqY5uee0qx3gHOiUdUWv+wuMyam/tCk3CCK4tKKMbvTDDsb2cSjjoy+8UtOEyIn45c9OD5qNj9jtWT0S3o0bBvllhzlNLMhV6WDbevJfSJStc4ZqVdtwUg9/Et9+6o4YHiSb7lplkrgOMreZH3s28P8t2GTrokU5yWdVHOshvEq6TSLM7ummFolRzllgeYKj1uXi599Jw9ge4zUq7e6dbm6aEZ93BltUKJQb7lpl0nuWAfh0CvzyLiH+W/ySZ/Ry5yazU+ZxfStsha+mj5HvRquOQU9cr2Z7LsXHn7b41tiG/duoSABK0bqoaCeTk0z1ijUt0rt7jTLvWf5eNTMOzWKJ+Yz9+u4M2o2t+AV03dqH7VnOgvCrOGaU9S9OPjQYgzTmB+eHR8fHbG18T5G6tVjpB7eoP7RTvuLKNTb8djdaZ6NOcQXyT+su0bRvvovzz+P8VCzuQ2nuWR/ksVdLurM7MT+ZTbRxCjol6zSwbGbwscOJ3Z8/MMv7LX86RYKEnBVnEZAf3OFqHwQ8i037fKSnZqYblDO3jmxXUS9oAvpE/Uy9KlxI2zDLWhpkvvoOwvCrGbf6SmXLG83XjiqhfnZntU+ypKRevUuitMIGDR85RoFIf9y9jvNprGTM9nPjWPT+pINuYYXfag4N6lwI2zFbgCjRQmmcZ2SWRTXKZzq0DhyRNn3Q4Y79alJZqRevcVlcRoBgyABw4GiUP9CNbzTXMuRDjS/Nuzr9CjVe8W8I/1unLoMdWV3l+gv6l17mP82/Axw6pCXrdKhOAHY1qnJd8wl0ahqi/PiNAJfDMad0Y41CvVUHsM7zbRa7/fvuWBh5FGISWxUaP1lOmZ+HGYdcPrxS+RRj0c5t3C2i+I6Rf6Kgw+uOAHYmuInYunCLBKkgJF6eI/6J3uy/N7A1OugHO80305HaqvlAE2jflOh9Zr6VsuUknUN3oFfSc1cOsvEOTXKcJ5J8Qt0pat0SJ2euzODD/K77KGlAX4SjcJ71J+YlBwEId+jw/FOMx4edqh0vk+CJNIwTG1T5laydnMZ+vEr0RWOR828p9vbRXGdnnHpEjZD5Fv3Ix+PWtvFgvpbF2cReKJe7jPnQgXxo7i2WizvtJlx6+25TF1ZlGAUQYjXbGtZd5dshtVOnLrvPJGNR/kO1Htk193IKQM0XSF56mrxEWjfMIzUG+C+OI3AMzqZXa40DAAAIABJREFUow31j37PO836g+dMIkEqTjCKRnv/CNCafhga2ldwTKLTjEfN3Cue/fJ3nM54ukoH70zB/qQbud0Sjap3UZxG4IX6A5OGrFGoJy573mnqOWcfm/fv1HEUaAfzgCDEazH6gQ1Ax8UajimmOrmlf303ztV9YLglZRRx3y8OPjrjXgoahP8gzxmpV42ReviQ+gc71SdRFJdWjOmdZp4ActD3tP8I1d0h2xztT2XdnSanuIpnRFot5Ohep2c4Vc+rHjnfmI3MzQvHIbuvckE0qtqKaBQ+pL6fxX5/EPLzi0zvNMPGJ6/1a2k++x6rmMtuKNTksi4HiEtWMb1NpPJ5TwIE9g1zCp2yo/NVOiRuXjgS1Yy6C7NIkIIVI/XwIfVxZ/nye6NSz1t2vdPkBxZ+7rRLQCpSld4DUmIKAf44hqDCvZJpWPpUZgtlZr8rYtr+3yn/M2GlQ3EOUEkzRMxIvXprolH4mPrmSr783qjUF/+2o6gilJs1D0idBEuMonv129yb2Qyyz51QyTWYcqBRXTY7jvB3Zvln4/T2Lw4+vlC9ALo4ELxHlkSj6q2L0wi8pr65Qv1JFAfFtdVie6fFaJd51nDrdLYXscV1uina20i5HOBOqCVfSf4eiYbmIYJRorMKP2N06hUDC1NLO0tjPHr93JaM1KvHSD18Sv1znU7mURSXVozvnRYkA2R/r8nudMxY1O/f34pfipy9zMkoruebK9n9734vSJ6p5TBKpziqbf75DrLO0hiR3D7x+Y1bKKi/xa/iNAL/Un8WFQcMT/LdYn3vqwhtOx7MT6fe648ai8q59bwFp06/IzEcD9bfd9/rfdAzq2d2HKXo2TNY4pQanbHSIeH7Z2xqLTHPGalXbcFIPXxOfXOFRVYU6t/7xndapH7N+9+mW1x9PVYvGB2OGMTbbKuwhqOP+QDWz9BuVzxGz6gHB5791py2ojKO+0w6S2NM8+KkdsVIvXqrW61rCE3qmysZ83tjUs9Kca51ipXxs/9tghypk72z0F2taRf0juJMRccOziDWz9CDLpXmJ6dxHqmu4XynDZbi4DMozgJqSQWK791CQQJWjNTDNtTHnVnW8+MN6jn9zneafCFktbPvI26lfv1+Gm6M3j9oHPWedL3M6bY4iPlAiNPma7ajUJsgrn81xQ/RpVZ01Qaj9Xam9LfJSL16jNTDdtQ3VzLm94Y0Ky6tGOs7LWK0ZX72fffvkK973zJ8D5IR864wjdW2RGByIPNMn3nTir3Z91ivHNfNKKeNqJxPpmzvnwnohKOW126hIAFXxWkE3qT+JHrrmGFI/btJrEC9kvnW/vsOTr8fDdv3Pzk6Ps2yM0njqPeF/dN429yzBY4A+3XjfrOYylGgKr0Htj0hnDrw56wnT/b+mYJMOGq5yh5aGuCiOI3Am9SDBDnzeyNSH3hrfqeF7os0Pzw9/nG0ZchldnR0fHwYt2f5W2gc9b54hawforp9qABNh5sEpE6CJUZZv/ydCiZz7pkknKUxNpVwFCP16i0ui9MIvE19c4XKgyjUE1XMx1GpR/tGMT88PD0+Pj568PLTZw//zx/Hx8enh4ehw3LvYZTaR945aTGxfzNchFzK/e/TZsfN9gJmnJoO1fviVaXvnX8+XHEiUEkkHHVJNKrazXlxGoF3qG+usO0fhXqcwPxOm6WMw+CPs+JuwIZUiXJUbQ73ozibjubfJrsHZnuxRrg+Ma5vle/IuSHra4pe5rvSCEddmEWCFDBSDxXUN1f4ug5CvhLCveVKivQovGGfbkEfUh8eOyby5HYRpQjtcG+CR8LJ96Dr6rnxEBOnCGrWZxNfZruSCEfdZQ8tDfCTaBS2p765kjW/Nx71ho777mfcaZ8UI3JeTTXh1O13R0QmdxLnTpmfjprtO/vxLeLs1kdKY+RrOYU6nM/zLpI1L5yAwlttbRcL6m9dnEXgfeqbK3TCiEJ9bJF/JnmmJBD8Re/qTyRaDmRd8Y0kVMXz/PTHOMu4o+PQ5UbWz0+nK5M1VM5G4Y4EkhIYqTfAfXEagQ+ob65QexCF+nfTd/vzHGAwFOrxiPxMnuUATcR2FC2kf3i8W4Dy5Me36J1vvKP5RvHTg+Lgs8g15Xd8/ZMSbolGVVtcFKcR+Ij6twa7vVEUl1ZMgDuN9KiEiEB8Lm6d0WtzOi3uKGJI//B4UJbU1x/HGcaUnhY/3MnX4vfo8j7Tu1CvDFDXfbz6OSP1qi0YqYdK6t8btMIIQv67KcBpPmG4XjrGI8rbCTkO7A3+GZ7dBQ3p7x8e72274TI72js+y5LQYR4jUe/IuSnv04nmUbvpncB4QTSq2opoFCqpbwba95fGE/UmsSEyyRnhkg35MNtI8neRtxpmPE7pJtXmh2fHxz+Ojt4KYZ8cHf04Pj49zFVY5J6x4xQ9TVzpUJwL1Oj8kXNhFglSsGKkHmqpb65QiRKF+ndT93zgMYTqxIstMFRvG0l2p6lsH0H0VkkvDl9kqWUt2dePOQUPi4PPI0t67jQ6dzInGlVvTTQK1dSLmqk+iEL9uynGeDLSo3JhqN5WcjT5DxFR747Cmjz80wmNLlXmIdnqtQHa+t45V26hIAF3xVkEPkUnc7RRXFoxMdJMZnk3ujNiqN6WMmQNzt8qwUK1NOlR6fn33XOKnWaOljP0eBddP3PW2UNLAzBSD0OoP4i4qEGofzd1zgcejVNrU+wo76iiWhlCDGTKjYP0qCQCTIFwyoZO/Xxim3AHP4rT2c6dXSyou8WvjtcLvtS/vOjNGoX6d1OYTPJcnWhT4+m4tQRFrJlrYcZFelQKEWaSOvUkSj10Q70rirSOdw59o6otGKmHQdRLmumGEYX6d1OYsif29rOIsJxq5Uf8e4IRi2PhEZpBiMenUdJNlPzzYUIP7JxYxzuHaFS11W1xFoFtqI87o/4gCvXvpp75wONiiEsOc+IP24u/GqCN2HhIj4ovRDTKqSVR8uxNqvUG6zdenWhUtWtG6mEg9coexpgHIf/dFCfT5CRD22bMeTbWiH6/7PtcCn2kR4UXI7XUKekzebycar3But0552ahIAHr4iQC25mpP4i4jkGofzdFWs0l6JMDZo7WiZ7wwu0wJjJMgwtS6Oz0qk/+hKJab7Bed875YrTwzvXPq/vLy8unf/jy8vL+6ud18X/l76o4icCW1HcB6c4ahfp3U7984AmQFx4fZcx1gm9Oh3p+9cdc9tiitN1zCrJn73TIV9lQne6c5WqU6NDq7td7vb1vf13FikldFD8R2JZ6kIB+GFGofzeFutOoNQmPaFSlvdB3xDz7Wm9s6k01sYvTKLep0V2QvpqYpPWBet05I0SKbu5+fdpK6fLupvjvPC0uix8HbE09Jz1Of+ns1PsZxcokp9YkuDDrqWZih2i/J7mKzcxowBdXmKenUwFY+lcWGZcDdcr8vds9FvVeVtS/bu8jRKRutv25wFvUv7mYHRWE/HdTrNPNYiq29J/2A0S+IQ7sroY8chnCivP0dEr5JGLOvM5h+lQu/CrCLVUW67pUofP1eI2q+lgxUg+7UI/Xz7m6Qah/N0Vbz30vfiHiIBo1gPoQ2V0wZHF8tHoJKtDT06mklFkLsevFp9PlzrndKTp0c18fm1leWKdI/SQahZ2ojzujP2sU6o2Ewy3w2YmLi8fiEIG7AX3zuxr6nGboY3uRsnScQuzFwedDzvogXe6TXdqY3wzt6H3h29h8XfwYoAqdzNGGenQkXGfoEz59oooyFaqxuNVX9DGfBBH9iEK96Y2uD/XE4ae7TqTLnXNVxFu2NjgY9celaYbUffFLgDrqH1zk90ZRXFox8apdKNcLimjUMHF7mTPwYxK0Hg4oVDTK6ZFGBidPlGF6VC5cFvGWbS12DcxcGPaQWuwSgQMeqD+IWHgFIf/dFPCcs7kfEtGogWZR74hDy8thgG7m0cxjbTs53aDh8s+HYOLxAB2qa5eDc5TWu3dQWu480q+1BSP1sDP1cWf7XOIg1FN1Iq7oKNeLiGjUYFF7UzN+diIzupnHEiwaZRXdYNpC6AzdCXWokRkaELqpm6b3nvNdGle1tyIahd2pT3pggFQU6m2EQzYpoxdvPESjhgu6NU2DxcmwegzlIFrg1ihcypDsB5HHu06lOImTG1qqdzfacLkdWle1j0YxUg8jUA8SRJqBkpv6d1PM7iukhkdDNGoHMWuvSCGeUOBpjPmEe3g6tSKioviBegaAoA6dzIclJy3GSY16dG7T0nyE8kRAP1RPJ/Mg5Nu2xKx3odgkGKJRu4iZLchLckIzCp7DOA338HR6oJHD+YhPslrta2SGpSZdjxuWWf4s/hck3RVHDgyh/iDiogahXvQQNcNAvTkcqhCN2knIuUZnxhfEAAXPUQSc7OaU7sn0z0ekR9Vq3gP/dtBou/HDMvfF/4YgRuphHOpBgg5ZmpiE+ndT2DWdegt5VCAataOAqS5z7olpUfAcQ8TBbk6zc3lOPSE9qlLzHvjrIUGfKcIyvwbFxVpa/CoOGhhEfa0acD8rKfVv+riZ5KymwiAatSun5duWaK84Mcr1IpiHLGk1ujB0uHtGelSl4gxObEgf88U0s+XOxeNRE/1sZKS+VI24oZWT+id93P4rtI+KgmjUzuL1MqdB8OQo1/N30DzDogWnUnxqil/wRVal+Svuuoi69AvLnA9rqt4II/UwHvXnYshviIzkm7YEvia0j4qBaNTu4m1M84qcHtP13J3FfHY6Pc7I4nxBelSV1jUyv4SiUV++LIXjUSP3bkdq8uPOsl+gMNQ3mEM3KePrJ4L242UCCheapZy9ARJMzUX9K3GKkzL/8y/1geZaWtfI3BRhl89MWrKmG49aF8cKDKYeJKAQIQr1IpnYa3129/0RjRpFsLtin4y5FkgwdTYP2/PBKaxRHHxi6iOktDROAL4owi6fmbiBkmo86qo4UmA49SBB3P7S2ai3EA7epIzdOHdEo8YRrJc5w9PbiNdzLI/9uPWsRteQIdmbAo7UmMy8OHvTqk6Omryd961kP/MpJgkiMfWHIh/bURSXVkzwDiwMhzJHYH4k30LdFqQPt8L60VXQtlFfzJJsqCreJN9LVUjjl1x9ctT0w+UE5+sxUg8jU1+knnDBY5Avdgh/AYhHOWPC6Fi+R7ot5rwgWyGgbypyIN8pZ49X2CukW26t8V9wdWVciyyhAd3Vp3VDNArjUg/R73O9g1Bvph0/y4B25sb4lB9NqK4d5My1Q/soR/PQDbTPjK4IE0BfYTrC1trWyFzWRnHuin9iCvfF/25XK0bqYWTqS9QzLngQ6iUyCTLJQ6WFpDLnS35Ege4ctmta4gHq5zB2p3+nkEZx8Mmpj5HS0TYF+GdllOe6+Bc0jmtSP4lGYWzqQQI2f6NQb6WdoUkZ4/U8EY0aVaCu/oxOb4oHqJvgH5BODYjocvcvp9S2ntp2Mr+tjOIsWgVmltUd1qezLo4O2JV6e04+t6MoLq2YFD1Y+P5xdMAo/1HFCSowbLGtGfNJrcQu1DNLsGFr+V90o9tO20DmXWUM57L4F6ZyXvxv98JIPUxA/UHEQiwI9YYtrUfJ9sFyylDguVB9hOkhO+fOaOyEBaSR4IV6Zo8yhmQXaOe5lbaBzMoRdm0aRz26Kv7Xu1gQjcIE1JtzHnDRg1Bvu5GkSRnxKDtkwIwtTC/z77Gui4NQffCDS/DnoV7dsIkZoCXS1bfRNJB5URfguWnaQ6l65t8UFozUwxTUgwQsxaJQf+9mySRne98MIYfRzYLcGjRj6YCEBhMHGRruGV0Ppi68gXK9bTRNcqxsGN6uVO+LSLneimgUJqHeRYO1WBTqE2DSNCn7ygeQkTkVDhMIMmGbBvc90M7cwrcMhazq1Q2bGJL9Fqbrfa5pILOykXnrlt79y/VWjNTDNNRLd+hkHoR8QkKeLizEo3zsE3GYQowSiW/xLowFCmz0JQnjq1c3bKKT+ZvUZ5sLaBrIvC/iLx9pNlXvWffpeozUw0TkgwRc+CDUW25kalJGPMoFI/WmEaKX+T43Rx/035OXZfqDU6YeW8tv42nymaaBzLruTFfFfz+1ytZWY2vZuB25qAcJaI4RhfoCMFWTMuJRHuicN5EQFRKUcfZCPEpbngpnpxuxOHg8oJvnZ1oGMutq9W6K/356XbuZM1IPk1EPElCOEIX6BJhcTcqIRznYK64bxnES4O5gq6Yfnp/KsqRGec1kYEj2e2gf9YmWf891tXo9ojOXxVE0s/hVHA0wFvUuCCzIolD/fk/Wo4f1lLw5baOm43/7zxmb3hHPT1nzRB+N6tUNm0j1fVeI2vHpNO1kfl0T2umRHFV5iGNaMFIPE1KfMMSKLAj5dIRsF4T1lDjaRk1JPVnzczQG7ornp6g8qVFmcQy2lt/HcISPtAxkLquiN31K13qlRzFSD1NSDxLMufpBqOcj56t8YT0ljTLlSdnvR1P60tlecUnQX56uUQ+cwhhsLb+PZnQfadlIo6pReJ/kqC9f+gzXuyYahSkRJEAb6tNsE67+iUfpylRw0oV9MIExVb0Rj9KTKjXKrOa4OHj8NeNj7H0t33XrIgrzgfZj9R51Ga63Lg4DGJP6HjEFCVGoF8dknFJFPErVATvJE/tqfofQiKU/4lFi9rPFaJ0mMrC1/CE+xt730XkbW1XiUbd0oUVxKJPrFXpDGgQJ0EZxacWk7Av8lRRxSae0jZqc9x0y5w4RQDxKynG6PwqnkWxUn3/MqSt9Wy3r0m898oXuimOZWp8uWchE/UHE8KAg1JMRkjYpo2WBIAr1WvDuZc4tIoF4lI7DhBml6i0QNrG1/AkeJu9omQlcVQZ3WfznrVRFzUbASD1MTj1I0HTAJyb0vbi2Ws6SXnziUXIOiMG34LSSK1D4IoIlpIicMXynmDqvtc/wMHlby07mNa2jejUy/2NVHM2UbohGYXLqz7+sQYJ4TotrqyVvkzL1K5MNNQ1tqAfIP0RrMRUsISUkLW82ukIMyf4cD5M3tewIVxPmuSv+63bui6OZ0IqRepie+g4xncyjUE/CSTynyjpNJJo5A9MacW7VwXtRB0vI/g6SPjWd5jGwtbwFHiZvaXkFamI6PVOGWlbr/SQahQYIEqCN4tKKydwZmG8gGdnmlPfke5fsc5cIYSRWZ3l77TlleBJC3wbfYqWWlemXRSzmfT1r9VpW6/Vr2I5Uir98MXx2B6GeipC7SdkRCyoJ9DBvybdrGk2BpRCP6upb3q9Ep0J7tpa3Qjyq0LJ9QU0NXN8wzVVxPBNhpB6aUA8StBzwiSkdF9dWS8vZHYK+0tBcwCHNXls6c71PKHsR83W/uEZoJPVD0+m1zdbydohH/avlJl1NJ/NfxX/d0nlxPJNYEI1CG+q5vsmDBIGoL/1azu5QNPMeex/BPPs92Jp6iPw9c6KWaphP2sl+6kTBmdGVYmt5W3skW77Wcm7HdUVIp3NHpUVxQBNYMFIPjRAkQBvq28dkktPQvC9So1pz7WVOExY9M9tUO2fZI/hOTzC2lrdG8e9rLc99RUBnVfzHbdVEzoZaEY1CK+pBAsZZByG/jZf9ArEp11f2hVUPTrkFG0gzkOTUxieIxE2jHjnld/KC2x69Eza17GS+rAjb3BX/dVsNmketGKmHVggSoI0fxaXV0vKNJ4uPoG7OSI3qwLPjD4mcmuj50tYpz0ynlDy2litQ/LuhZSfzmsF6vZsq1RzrMIzUQzvqub4ECaJQ38Zr+cbTRcVJH3MmpXVh2S+NohdVzCdt6JCo7JcvTjdccfD4CMmWL1p+Hf2qCNv0rmOryeQapHf6F1IhSIA21Bd+DNh/pD7bIKT0NSe9OPYyn3OzyCK9tJV9glFfvnw5MbpibC1XItnyWcssyJoCuOI/bm3iXuaM1ENLBAnQhvo2Hnn/TxhZ3toBK6te1EuI38I7URjppU3s80fwwOn5xdZyLRqaP5q3POkV4ajencwn7mW+uCz+94AJESRAE+rbeE3feNpmZIm3RAvzjpyyC56QZKDNMeHODMGoZ07DcLlo1WaWxeSja/rKq4jwXBf/cWt3xTGNGI1ipB6aIkiANtQTj1nkbfjBrlwzp5Re9eR3p7NDI44GUtOaH/PIfOYUruDBNQDB7d+/fx+3POMV4air4j9ubcLReozUQ2MECdCG+jZe0zeevBN25dqgTq8zuxudB5W8ExpITYdg1CanC1ccPLZwRO+Epp3Mv6yKwMy7+oejavqu17kmGoXGCBKgDfVlH2GB1+ho3sCc+oXenKpd/thnMW7A7a6yQTDqla9Gl46t5WHondA2r64iaNO/t9JlcUwjWRf/U8DE1IMEjD+Pori0YvjK/QczoibH0qo/t+lFhM0tULA3BYJR/3DaNGJreajsvRPa5tURjvrvv//ui/8lYGrFX74Yvj6COBK/0fazX6A30LZgUqf00hDglF/w+/fvs+zXywUT9kZHMKrglDhDIH2w5AlSbV96RWjmfQKT5949tp1cFP87wNTUv8UJEkShvo13mv0CveUrHaQmc8jXuQaru2ZOCNPGdxKkxkQw6g1OGcxcvh2k7iDVNq+uIoxzW/zHzRXHNAJG6qEH9SABe8FRqG/vMGz/TSypprFPFbIKqywWHlNG6Gg+nv09ohlvcLqC5dFje7PEueptd+4qwjnFf9tecUy7uyEahR7UO27y9R0Fncw9nVBzMr59OpjrcGq/cpD9Ypmh3HkcPDDfpt4CYRP55zvKO+24bSQ6ezhqxUg9dKH+gPvKbRFEcWnFZL8+7/vBoOFxzQmyKzkxunV4H5phHsQIDghGvcNpDgMXcWdJK/Ya59UV8Zn3Ff9te+8e21BrolHoQ/xjqe1EBUyouLZaGEL8vsxp4uOjBYoan298ZlP5odx5RzTZe5/Tm5mudyNI+TRpnFeXOxy1Lv4XgDaKv3wt5PdGod4zn4XeR/KmiY+NYJQe9Yr1F5TqOeLhuYtTEgI/YBSO4uE1itlxvoBU4z6bRYTmfcV/2967xzYMI/XQTfGXr4V+v1GoNzngo/djqQe7jIZglCL1UPkzpuqZotx5oPk3bvkPGYWjqFAfSb6AVOOPpoowTrTJeguiUein+MuXwiyOMMTDUdxpn6LoZFf73wlGSTKJFtB8xdXMJgFPCc/LTxkl3hFYHE2ygFTr8epFkOZ9l8V/3Ny7xzYkGsVIPXRU/OlLoYIqDPFwFFt3n6OF1E4YDiXLY7Ze669yjOgrFXuVDnlefs7nlczTa0ypAlKta2SKKM37+oejLt89tnorgWQvJFb86UthcywM7fFVc+60bZycFmcO22FxJcxitt4BzyhrVOzVoGXUVnzCUfSjH9fsOMvzpHnlQtZw1IqReuhKes+ORuaBFFdXCXfalk7OpK+jqjM+xqUZhFnnrM/dJWxCPMw+Lfa2ZBOOYnLx+PbE56KPpPlGXhGned9V8R+39uvdY6vFSD10pry6JGUlEum9HPoabO2IqpNK81NuL3HqgxZoHBUCLaS2QSLp9gweXI/Yj5nCUYJ09fZtXVdO4air4pgGuiv+aaAt5d0VOkdFohzF4E6rQUCqBv14Hcjf0jyiQqDc+RNzqvRqWJQZ0zlqOvFr9toHp6+3j+dcF/9xa3fFMQ3DSD10J7y7csDdEYlwu+B9AgZ1CEht67B1G04Mu6PF7yOqiaOgp/kHiN3X8ghGzMkPns6P0CHuDlWeFeGoVfEfCx/sBxYCIwIB3XYG7JKF8rW4wDIIGVRjl38L8298hbvQDhKwNRMIwfx3nFLRVc3jPczg4knNAneR6rAMrEk4Kv7j1hbFIQ2JRp13/x2A8OuM6oRgZPfxvmW/MoMQkPrEwR47/T6k06MYqhcLAakSiVGD/ChOpCBK9SZ38j1m0V6PQGZNO6becZxlcUQDMFIPGlQ/w3mDRaNarcdab6AZk6LeNf9GcqcX4egqT6hwMvQgrjAnMWoogygEz68mvn6LF5Hqsgy8qAjo9G65dFkcUb1rolEQoblRxxssnJlm8IL5jTvYi95Hc5gzZkPZEX088S4MiuzSF4fkkQ63V5xONXN2Zlo5+R6raq/Pq68mxNN7Ht0Ig/XWxT8KdCKZHkWMICDJKY58K+3m6Kw4pcntf6djlCPVsheiUUGdkF3653F5zONyJ+o7QnxhNXWydxbmsdLp1XdbRGze17uX+c93j2xb98W/CXQjuJ7kDRbRTPDDiTttZyfhRw1XoEjPl2a6yiHRqLBmQRu+bG1+yuNyV+Ldo/jCau/oW4gkqW4bMTXRnM6Fbjt3Mu9dbQhs0qtS4A0Wk14iHnfaKPZIkfr9sLhiRqOxmeI3/Gn2qxLcj7xdzXlcjkP65csXVh+zvVP3UHe/tODrImjzvl/Ff93S+bvHtR1G6kGMWpSA6oSo1Mr1uNPGQorU7zMWV+YE20fRhCy8k28Za/aIRY1GMev8GdGojk72nLOkzvp9nK8rAjp9m0ft2DrqhmgU1Gh1Q+z4GMLEtOphvnG5R/TjNG8rlPkZ3XgD+Cp2B++zmEthL1mKFLGoUak9tv46oC9YZ7Oj40PL77LvHc9bTZDnpvivW1oVx1NjxUg96PlWPAz6Oeb+CEwoHjXnk3hks5xFeyyuwvgqlWjwjRBnFicBh7S/g8fl6FTjUac8wCSc7H0zi0kddN2IqRmt91/PBKOapuulNdEoKJLJj2I/ODiZeBRrvSlEmzT8qf1vLK4CmenkqRzyKkzlh2Yr/XHtfzvKfp2nIBmPYr9PysmP4zOXmHfnnIRlEbn5QM9qvfv3D2uLaFTxzwESjiTeZ3NSo8L7LnGnHfJVPJVEEamD74QMotnTWNnxgMonenYpj8vJCIXRn5Eapeho7/hM/fvstHuJ500Ru3lfz2q9XWr1GKkHWTOBgr3+jyFM76T/lxNrvWlliEjNT2kXFdLsuHtAivn3Wc2iPjl5XE5MJIz+7IxveWFJQTtYAAAITUlEQVQnR9+Pz0Qb1p0KfJzX9DL/77L4z1vZoVZv0XciIPCxk77J4vvHvMCSOOr6ImSt10Lsnf5D9vkDm+31jAnQFj+3k+/hnpyHxzwuJzfTGW47Z2PZw9HR9+PTQ6G41P43iTunqgiuX9HbXXEsW0ejGKkHcf2WkPu0t0ylW/oMN1pDP0L25z2g/Ul8J3unPe7d/bNjbi7M9s7CTCk9+PaD6GojP7o8tP4xP91LcbJDOfkTmDo+OzzsuRFz8E0lan1exG8+sOjWEXzx/kF9bHVb/FuAnqPvx4cNH0oHh4enxz/YS8lndnT87fDwsNH30/zw8PDb8REfxo0F2+pnbZXI7Gjvz9bx9M+oP/8bh8fHezye8CJCLH+fCr3W/jSsPuyT73JweHh2vEcenL3Z0dHR0d7xH98ON00UIxf8OK8K9NwX/3kbF8WRbBuNYqQeACCbo+MQ/VAOjwlFAWjFOpZ/8G2PXUYAhqqaR/VqZj60kTkj9QAAKc1+fHMOSe2ffaeGCkBrR44PTiL3AHzVJR71GVJ3WRzHdq6KfwkAgDSOjkVnuXxkfkgtMYBurGL5+6dMeQBgrW5mXZ/0qOviOIRjZwAA6Pj6/dRmaTU//EYnDAD9HR1P1bllNH/68JMUBcBeXSFcjxDPsOSoxWXxDwEAkNDs6PhMvE3v/hk5UQCUfN1TjeUfEIkCEMZ9Ecj5SI/0qEHJUYvz4t8BACCt2dH3U8Xavf3D4z36RAGQJPbc5HkJIJrzIpLzofbD9QaN1WOkHgAAha8/js9UNvz/TKlmYQVA3de948PeCaYEogAEdVPEcj6yaB3nWdYd36OfRKMAAHjHydHxt36rq/lDHIpSEwBOjva6BPP3D78dH9FUD0BYV0Uw50Prxueh8vAetD5GAAD8fD36fnzWrmHv/uHp8XeWVQCMnbR6bP55YO4d0VIPQHR1s/X++69ti/Dao/uvS0EhAAC2To5+HB8fHk6z739weHh8vHdElQmAQL4e7R1/Oxw9LjU/fAjbkz4KII+62XqNu5kP6GPeY/ofAAD+To6O9o7/rLF2iU0dHB4efjv+s6JiSQUguNnRn3j+8eHh0ALo/cM/IaiHJyb3CoCEanuF3zU8RXVz//5jpB4AAGM5+uPPSuvB6WHp+f/vT/7T0RGFJQBSmz08CT94aL5+ZBKxB4DloojpfKxduV7l2L8/I/WIRgEAAAAAAKhbF0GdjzWbrresrCP8778VI/UAAAAAAADkVecgXTf6RbVxsv/WRKMAAAAAAAAMVPcLv2rym6obR62LfwIAAAAAAACCfhWBnc+0mF53+ckxFBipBwAAAAAAYOKmCO18osH8uvPKDuuLX8U/AQAAAAAAAE0XRXCnezyqdt5fgwAZAAAAAAAAxlKdHvXf4nbSk187VG817eEAAAAAAABgVPXpUf+tppxiVx2NYqQeAAAAAACAlfr0qCkTkmqjUYzUAwAAAAAAMDMgPWq6dk210air4l8AAAAAAACAuAHpUVPFo2pn6l0U/wIAAAAAAADUXRZRnm3iUVNEgi7rolGLy+JfAAAAAAAAgL7rItCzjfHr5O4rI2JTVQwCAAAAAABgUrdFpGcrP8edabdc1/3PM1IPAAAAAADA1VUR69nKzZjFcueVTcxHDoYBAAAAAACgneWQbub/jVqwVxsRWxf/AgAAAAAAAGwM6mb+x2qc/k3nte2r7ot/AgAAAAAAAEZ+FgGfbd3tXjS3rE2NmmSsHwAAAAAAANpZLoqYT7PY0EVtqSAj9QAAAAAAAOwNLtf709J8l4DUZW2d3lgFggAAAAAAAOjprgj7tAhI1Qej/lsxUg8AAAAAACCA5aoI/NQFpAZEiarL9P6M1CMaBQAAAAAAEML58PZRDxbruiK627sh/4N3xb8DAAAAAAAATxdF7KfW6v52y19+ez8sGYuRegAAAAAAAHGsi+jPgIjU3eWn5+PyamBh4OJX8W8BAAAAAADA127to15cX/16L0tqeXlV37z8JRrFSD0AAAAAAIBQlju2j9oMHV2vry4uL5/DUsvLy4ur9fVO//7qvRgXAAAAAAAATO3aznxK14zUAwAAAAAACOeXbDRqzc0GAAAAAAAQ0O7j9aZxxc0GAAAAAAAQ0pVkNOqCmw0AAAAAACCodREL6m5xyc0GAAAAAAAQllw86uacmw0AAAAAACAwsXjUipF6AAAAAAAAsUnFo34SjQIAAAAAAIhOKB615mYDAAAAAACIT2a+3j03GwAAAAAAQAYXRWCoh8UFNxsAAAAAAEAOvxYC0ShG6gEAAAAAAKRx3j0etSIaBQAAAAAAkMhyVQSImmKkHgAAAAAAQDJdB+xdcbcBAAAAAABkc9GtYG/xi5sNAAAAAAAgn/NOBXurW242AAAAAACAjJZ3RaioAQr1AAAAAAAA0vrVvGDv5pK7DQAAAAAAIK/lzyJgNKk7JuoBAAAAAADkdnnTLhi1IjUKAAAAAAAgveVVETaaxoKuUQAAAAAAAPjy5cvtdYto1JqBegAAAAAAAHg0fcXeNXV6AAAAAAAA+Oti0oDUzS9ONQAAAAAAAF6ZLiB1c8GZBgAAAAAAQGGagNSKYBQAAAAAAADe9mv0puY/6RkFAAAAAACA992uF0VIabDFHdP0AAAAAAAA8LHlxUgpUj+p0gMAAAAAAMA2bu9XRXCp0uqexCgAAAAAAABsbaeIFLEoAAAAAAAAVFterAeM2rtZXyw51wAAAAAAABjkvCoktVpfkBYFAAAAAACA3Swvr9afdje/Xt9fkhUFAAAAAACAsSwvL67urq//6Si1ur6+u7ogEAUAAAAAAJDUly9f/gf9cqDIlFxq1gAAAABJRU5ErkJggg==;fontSize=21;" vertex="1" parent="1">
          <mxGeometry x="-70" y="279.2" width="197.51" height="41.59" as="geometry" />
        </mxCell>
        <mxCell id="xFTIAXRf07ciZsqD7t0A-9" value="" style="shape=image;verticalLabelPosition=bottom;labelBackgroundColor=#ffffff;verticalAlign=top;aspect=fixed;imageAspect=0;image=data:image/png,iVBORw0KGgoAAAANSUhEUgAAAMgAAADICAYAAACtWK6eAAA74klEQVR4nOydB3RTR/bwn6WnXl1kS3KTbWyMDdhA7BQIPSEbEsqGL5ACJJu2hJLshjT+ywIhS0g2hbCQhJQFQiq7CaSQ3aWEElKwgzFgG9tgW26Sbcmyei/fGSERWZZekZ5k2dbvnHdc3ryZebq6M3dm7tyBoRiFzhBnp4pvvQuGWRzwN4dXPEkgnHEn2nMmY6e0R3b4C4fDoNNp6qsVXce+ikqFRyBMlqRAmDH3Hu/ficnl0xNTyqejPWfQtzR0dx76FPyuUlacUPdWnox0XUMlYbAr4IXOEGUlp958W3LqlDlAObj84klE5Gu1qBRmk7xNq649azS0NFjMCrlK8dMRm7VPSUT+IwmgEEABiJaRxdwjA3Lxyshk6GgBMnI4jHoi8g+HQVWQtPS596SJb7ubwUyXcHhjSqNVLhCI9MoHryjkRw+aTbLWaJU71CCTmWzQiwuEsxawOHljWOyc0dEqG1gCbc0fbuvu/M9+q0Uhj1a5/kRdQUArJMl/9HmBaNYCCoXLj3b5/tjtBp2s9d8fNDfs3Gi36zSDXZ9YgM0tLMnKXfakr4k7mNhsWrW87cCepvrt66Pdq0RNQZIEU+aIM+cvEwhnzSfDDFa0ysVDa9PeNzqln71jNEgbB7sug8HVHn3OolTRLb8f7LoEwmE3GVqbPvi7rO3L3cBsjkaZEVcQYKsWT3hpD5bBW6zQVL9jY0vjzk2DXY9oAWQ0vmz7F0SNKSIN6PWb6t9c3968781IlxUxBQGm1Kgxf34pVRybrREaQAhtTbtfi2ZrFW04vOJJBcXPvDqUGi9fgIykl9/b2t68b3ukTK+IKIgoc8Fy0GsQmSf4MHTq2rM6zaVqu12nDpQGDCaJHuxHs7WKJpGQERgr6DX11Vp17VmHw6ALlCYSMgLlNjfs2BgJGRGqIDDM4Y0e/9e3RBl33BtOPuCF+5QVJ/Ta+uoe+bGDem39eTzPe2dfGMx0SWJy+XQ2r7A03AkBWduBPQ0XX1wdC1OP4UClCUTjJr36Sbi9BpBRb/ep78B4LRQZge+KQDRrAZtTMA6YdkTIqPXK7tcu172yNpw8/CFMQRKTy6YVlmzaFcpUIGilVYqfjnjnv3sVp/9HVL28UKiJKZJRjzyXIpx+R6jTlX29v566VL3+kaE6iAcyKpqwdS+DKc7G+6zVolIA2XjXkSIpo1TxnEWh1BGg6Dr+zeXaV9YSJSNCFEScdfejRaWbduF9DnTFLY1vb472ajcYH7E4eWNyR6/ciLe7By3n2R+XT8fbYg42uQUrN+QWrtqI9znQk7c1f7gt2jJicwtLgAUwquipl/E2aEBGlacWX0+EkoStIKF88OBDl7Uf2HPVJWRwTZa09Ln3FI7/61t4uncggPMVqxbEsouEL4XjN+3KkNz9KJ5ngIw6Wve/63UJGUwyc5c+kTt61UY8MjLoWxou/vrnxeE2ZCErCLDziyds3Ytnlgp86C2X39uqikD3HA7gXdIldz+ambN0Ddau3WE3GZoatv+1rWnP65GvYWjQGaIsICM8440e2ZEv21v2be+LMeUHMsrMXbpGkv/Ic1gXL4HpXn9+04quzm8+DrXckBQEdH8l5TsOgi4Q6zMXz669NxZaIzRAa5VX+MRmrEKQd3z7SW3V0/dFvmb4ADKacMOu72j0VDGW9ODLdP7MijtjTTECkVOwckMeDqulrWnvtsbarX8KpSzcCgLs97Kpn5/B2t2ZjJ3SunPPPzAUPngveN9R1nZgT131ugcjXzNsAOWYNHnvCTwyulD5xCKdpvZs5GtHDHjfMVQZkXElJjPZpde//Q2TlZmLJX1r0943qs88evtQcwi02dS9HS2f7GRzC8ZhGSCCgT74bFSKn45Ep4bBAWbVpMl7j1NpSQK0tMBMlDbu2nKhcvXCwXQIDAWrRdkNZMRPnjQFi1kMZGSz6jRa9flf8JSDS0HGXff650mCG2aipQOD2PoLG//YeuX9V/DkH0u4XDYrMAkZLEkBh1swDi09P2nCTQadtNGgu1wTnRoGZnz5zoNY6gtkVFP19H2dbf96Lzo1Ix4gox7Z//4NPnss5n5K2s239ciPHQTKhbUMzApSOH7jO6LMefejpdOqa89W//Lo7/qUv3yPNe9YRiE/8iWwz3lJE24ikag0pLQpqTffBgQGeqDo1fA3gIzSxHMWoaXrU1acOF+xcr6mr/rn6NQscgAlkbcf3AtkxE+aNIVEolCR0gsz7ryvR3b4C6wywjQGwbrO0SM/erC26tmlgz11GwmAzQt6UDSTC7TMPx6ZLYm26zzW6fYO6f536y9seCw6tYou/OSyaSXlOw6ijUuAjE4fnpGJ5XtKQktAZ4izC8Y+8ypaOjAIArbscFQOgF5bf/78mcfngQ8XKR0QDhg8Rq9mV78YWJQDyGi4KgdA3Vt58uyPy6djkVFhCbaFbUQFodIEogk3vv8/tCnPbtmRL2NpFidSGA3SxspTi68H3TlSOjAgzMxZ9mQ06gRkVDxh6160dB3Sz3eNBBmBhgzIyGE3GZDSiTLuuDclbfodaPkhjkFKr3/7Gy5/7HVIaUzGTum5nx+6FdiCaIUNB4Dtquw+9V2GZMkfkdLxkydOBunwDAhDAciIwytEdJdRKStOXPz1yf8XyXrEEkBGJkNHS5r41ruQ0iWnTb29t+f0f5FkFLQHAd022gqse3GpYtWC4WpWBQO0Uk31OxBNGtDrFk/YQqg7uT8C4cz5aDJyzyieH75mVTC6ZYc+BSYlUhpgaqHJKGgPkl/83OtsTt4YpIfrL/xtTW/Pye8w1HfYoVVfrGRzR49HGrTT6AIh5IKgSCySksh0ZvGELbuRVsqBmVFT9fR9w2G2KhRUip+Poa2TABmZTQp5sEXSgD1IYnLZtDQUHyugnbK2/e+GUO9hgdNhNtZWPbsUbTySmbfsSTKZySa6fGH6vPvRzF/plQ/+ruw+8S3RZQ8VgGXTWLP1z2jpkBw5B/QgYNB33ZSPfiCTafRgD4FxR9VPy2fgrO+ww+m0WpwOqyU5dcqcYGnA52izqnuJbMXpDHF2yfU7DiKty1x1H1m9kKgyhypWi0IOwxw+L6n0hmBpQC+s01yqNupbGvzvDehBsLgVX6hcgzj4GUm0Ne95XdF1/BukNJm5S9cQ2YsUT3hpD9rMYlxGv9FYu/VPaDIaVbT2ZWC2+v9/gIIIhMhTXyplxQmdpq4qxLoOS4CphTT3DmzgvMI1m4koC/TwaAPzHvnRg3EZ9QfNHAZjyYzsgTOT/RQkt2DlBjT36Mu1xO75HQ7Y7TpNe9OH25DSiLMXPRSohcIL6OGR7lstKkX9hRceD7ec4QaQUVcH8nYLYYBYCv0UBAwokTJouLjlyaHkEh1Nmht3bkJqoYBJlJSC7uiJhm+w6EA0XNzyxFDzzI0WrU27X0O6z+UXTwLjO9//XVMQgXDmfLSxh7z9YETn9Yc6rVeQBZCV9+BT4eQPZIQ29lB2I9vaIxmTQdqItjZSMPb5fpbANQUBgxSkBxtrXn4qHrsWGVn7l7uR7iellE8HY4hQ88cio5G2aIsX6eVdW5Dup4pmL/CVkVtB+Mll05AWvNxRBptjd+91rGAxydvAABkpTUY2vuAJXkDvgSQjm02rjssIHaOh9TIeGbkVJDEZeVYEbYoszm80NyC7oIiyFj4QSr4C4ewFSPflKKZDnN/AIyO3gjBYWaOQHojlyB2xhl7bcN4QYMHJC4OZLmGysvPx5svm5o8Nds8dYaV++3q8eY5UgIxMxuDbwIGMaAxRFuRVEF7iuLJgiU3GTml85gof0svvvoR0X5L/2Do8+ZHJTDaSW4lK+cv38bEHPmRtyONFcebv3VsDSKA1Q7Jt9drGi5Go4HCmR3b4C6T7qShu2P4kCW66Bem+0dB2BU9+ca42Kkj3vVPyJBYnrwgpYY8cWdhxBgJac5WyIuiuQhhmcfDMZjGYGTlI94fL/v9oolGd/QHJ+4HJvjrsIKEN/voQBB0nOEqUiQ2sAd0AaK4lWnXcBA4FpIkNr3xISN293W7QDbWYVrGCydjRgnSfxc4txJoX0go8kFF85Tw0DPqmOqT7HF7RRBLSyiyaLR0nOGinUqHNHHqBYQ4P6UzHuIxCx6hHjv7O5haMQwzaoOhCXlCJE5xAewt8wWpioe03j8sodHSa+mqk+wxmugRRQey2wEedxUEnWtOucRmFDhbXKdS4WHEiA40euk9WnOhAZ6D0IHHCQ6e5FLQLxzOLFSdyIMkI1cSymHtkEanVCIEI8wdtijcuo/BAkxGighgNrZcJr1EcQonLKLIgKkgkwtXEuQoR22+huIwiChlmshEVhMsvnhS96gw/TMZOabB7aEH5vCDZyFBcRmGDJCMuf+x18UF6BDGbgn/4WIlP40YWNBnB0avKiMQBQZDN52+Xz+9Yz4cEz/gHBk8IkmccgokrSAShM9IzQScQZjYuj6Ih3Y8TInQG8tFtiCYWG8XNIQ4yAtGs2z1f7mAXFlxIebB5hajnEcYJjkA0C9GbHbEHwXrEbpzAUChcZgDzyI2y+4djWPLo6608HSwPTxnxWawwQPqOd3V8+wmigrC58R4kTIJ+sc0mOZ4BfNB82NxCzG7zcfBhNEgbERUkVYS8mSpOcPjJZddDEGQJdt9uN+CJMRY0n1TR7LCjNY5UBMKZ85Hu22xaNQl0I0iJQonAEce9j/wGCIJMwS6TAXkvgi/K7h+OIOVFY4jijo8hkCb+HeKxdHpNfTWpsxX5EJzktKm3E16zEQCDmSGAIMgQ7FIpK85gzUvRdfQ7pLz4SRPHR/ZthicsTh6QkQpYU37T8e6dmn29lSdJhsC7qpye6UlrhuSeP0SvysMHFjsnBYIgXaDLoG+pMxmkiDsOfTEZZR3B8gJXqmjOTZF9m+EJhzcmB4IgYOoqIQjqAW0RBEFaMETs7fnpMEgDWy0KuVZd+yuXXzzRoxj9LhY7R8JgSfJMBmnTYL/QUIHNLZRw+cVCz4c/AIOu6RKe/FSK05XB8gIkp95UEEo9RzJp4rm3AUXwzOSCi+LTMZhNxg73fnX3OohKWXHcc9Pld7kfoNEFaYP9QkOJrNxlsz1f6ICXXluPS0Ggq4fiHA+WHwyzrDDMYUTmbYYnwoy5szwKYvZMglg9yuG+vGPEqwqi+OloMOWAIMiRmbM0bmZhhExmUlPFt46CIKgv2NWnrKjBm2+37D+nkfIcVfQU6qH4ca5CJjMZSSk3jPFMcph9LqtnLGLXqmvPQ14F8QlR468c4KcjTXzLLTDMQTyXIs5VxNl3lcIwCwyeewNdsrYD3/f1VuKOhGjQNXUEyxNcGZLFhTDMCXqoZ5zfEGffNZMMMxyewblvL+LuSWRtBz7TaWrdEUWvKohBetnjVu2rIL4uDnaBaNbswX6xoYA4c2EuBEHqYJei6yju3gO6GnC5W6e5dAUpb4FoFmIExjhXEWcuvMGjHN6pcquPgtgVXUcPe9Ne88VqrHlprY+COLy9h6fLcYgzF8a7cBRoDBGTwxtDCtbKWy0qmaLr++ZQ82+seel7pF5EnLkwvs8dBSYrW8DhjUn0TJEbfRTFrSAWc0+Houv7a25A1xSkr7fylMnY2epRCpePgoDLmphSXiIQzrx50N5sCDBqzJ8Rxx6y9q9qw8m/r7ey22LukQfLPzGlnMZPLksk7o2GH+Oue+Mu0CF7LoNPLwIUxCa98v4/fdP38+ZVyI9+7TPF6+s1CsYjtqzc5b+P+hsNEdjc0UxRxh1spNkrdW9Fd7jlqJQVnUhlCNPviCtIENLS5xZweGO4fj2H70DdqpAfO+X7TD8F6ZB++p7DbjL6jz+8i4aJKeWFwvQ7p0b9zYYAGZJ7+J5FpoCX3W5Qq5S/hH3Go7z9KxlSORmSu5kcXhGdmLcaXqSK5mT69B7+CmLRqmtrzSZZv0asn4IYDa1XerqOHfJbLLR7xiHugUzO6BXzov5mMQ6bW0jJkCym+nz4Ay5Z67+7nA6zM9yyVIrTep3mkgqprKLSF+O9iB9sbiE3TXxLso+LjtGv97B0dXx73P85sv8/DLqm+syc+x7wVwxPJiYqNZFkMfcodJq6jqi9XQxDZ4hI5dP+nUQiUb2f14BLq6411Z57rs/lshFSplZ90ZQhWQwHK49GF7gs5h6HTlMX7m7GYQGTJaGXTf2sjESi+m5VTvB0EOAi9ykrmhprt37qctn7bWQbsKPQqG++3CN3O8c5/cws7yKKZVTR2lvZ3ML46rr7OLU/UmGY5TtNOODq6vhW73AYCdsaC774KmWFAanMUUVrKUyWBOu+92HNmJJNWTDMsgQZd7gH523New87HeYB+24CbrltrHlpo91u0AUbrFMoXFJJ+Y55ZDKTEpU3jFEEwpmkDMndpGAtuXtLgU1r7WzdH3TDU6g0N+wwIZVLoXAdhSWbqESXO9TIyn0gMTGlnOq31uF1LXFfWnWtVNH1fcD1qQEmFnQ16rWWzkgXcfnFo33NK8/ltuEoFK6dQk2ElN0nRqSpxeEVJ5Rc/xaFRKIOcPD0veqq19l0mjrCAyuYTTJXYnK5i8FMdwUrm8FMhyAX5OrrrRyRgR0Sk8uoRaUvJpNI19pxX7PK66QI1577v/+YjG0BwysFVBDo6rFetdmjHrzfo2VmHyUxegc5XH4x3WbVGrTqCyMqdhMMc6AJN75LptNT/f3X+l0NF7c4ZG1fROzL2aescGblLYeQ6pCYUp5g0EldBl3sRCilwvkUGmVsJgXOzqHA2Xmen+kUODuVAmezKXA2+AKbnK7QJ/2YLAlp4k27eTCFneATJslfQSgNF7f80t35bdCzXIJuubVaFIrm+h1v5xauut9nNsv/so0ety5PrapS6DS1hkD5UMjZ2RQ4GzG0Cgo6o+VUVRjPB4VJmzoRdAZ4nxNlLkiAoTEJdqtdClPtAY+oM+hbXO0t+wYoB5M2dVqo9R2AE4I6Lv/oFIhmWTzTvCqYbu0lw85+5Y4p3UTq7TnltNt1hBWNBzZjXj6bcdtcBrVsGp1aMhYM3TCEnAINc4/NIW+22hqbbPbWRout5qLZWlVltJxCPXIuv/gZGoXC9fUGIfl8b93DBZ3mkqK9ZR/iKc6og7jC8Rv/nCFZPNWzEKX2rNqqfH2ATEaZ6tzPDzUYDdIB0zQpvPUbBLz1G9HKQcDa3rOgUG/+DvHMP7yw6bfnZqYevAQatFDz4AhVm7jCvk3+/7fbDVD1L4+51KqBZ2uOybJG2NxxAWXphOlWKUyz1VIYlkoax3TC7qpvP3/mcchoCDvYIybolAmZfPbD93OYC++BySlEhybqstgaL5itVRcttrpfTZaffjFbq6ROlx4ik5nQ2EmvUgTCGRQfM4rquegQBLFAO2Uyysjnfn6oymiQIh50hBo47krda7sEwhlFNHoq2W/h8Jo2MpjihLKpn6fXnVvXpeg6Zib0o4AgahL3T0/pzd+tIjLTJO6f1oajHNDVuK4uh7JmwBde1n4ACqQc0SGBBkFQrt1MA9dMs4YN6bogJ5madrqw4PA7dfW37TebmrHG5MINKYFHEqfs2cBhzF0XwcCEQhqlAFy3ev9hMJ/c1dZzyx9Hj/sLSSCckeAzwZQQYKLJ0XBxcz2ackBYXsBu1xkund/wVun1bz8eYCDoLdRJoXChkvId/DMnFwFzi1ABsOjTlsFk0bN2hzygGYcXKpzPZtGnLQ03H3n7QUip2UxElSINyWGlTDX1SqZmJB1f3aVavVxv+prwQQmNMl6YnXb0MzKJT5wZiZ384ol/TxBl3OFVjgQfr3Sn7+9tTXs7ld0nerFkiil4tbL7RFX1mRVvBvHT8r2c48u2MxOTy4gOis3hs1fcTVRmXNbSJcDKIiq/oQSFLLoxU/Dv8+LkD59PSGASJicu897S7LTjVYOkHFBiSjlJlOF2OPffstGvQe/q+LavsXZrO9Z8MX9Ayu4TF2vPPf8ZwpSm6+rUohiaNPlDWm7ByqAzZKHAZy9/MBbzGqIweKwlW9JTPv4LEZnRKOP5wqR/fEUmcWIt/FC/GT2tutZcU/U0rhO5cLUg8vaDVR3S/VX+SuH3012x3MJVpPHXbSdxeEW43igYFLJoMpe5uCTcfLjMxZNAK0pIpYY4HMbcv/BZD80KJw9SApucnvLJfjKJk0VczcLG5ftdBJdB32K7ULlaiTcj3F1s/YUNR9ua9tYEUQ7fC0oV35LgGTARASmJ+9Sz4WYi4G9+DsfRA8Mdiij57X9SyNkhb9VNS9z2KI1ScAux1QoLl//vNpvWWXlqsdpskuMeG4dkgzbWbq2sPff8r36aGqiihE5pMqildzFpU4WhPs+kTc2gwpJ4ONX+ZCVyVi8J5UFSApvEZy97hvgqEYL7u2fQtzjP/rjcYLfrQvouhjwNJ28/2MHmFlKy85ZzAvUeEYKaxHlyrdFyam0oD6fw1j8zFM9EMVmrBswZ0+BCEonEZIJGHAyrwsmfy1z0aI967V7cz7GWTPUs+uHCZm/7Xmv84pDVfvmi2VrV7AnYZvRM9IDejENKYKdSKQXpFHJWHo06bhwVzi+mUQomedYxBmDQt0BsY6+LwRQn+PzPee7nh6xmE+q6YlDC+rJcrt3aotfW80eP+wsfht319rX7IgKHeccfqXD+Jqv9Mq5lYSqcz2fRpz0SqXpFEmnXDdch3Wcz5o7msx5YzmHOXxWKZwAFFt9Ip07kma1VuHw7mLSpeE2rjq6+p5b06f7xI0Iar1uTwmg51W+LMhXOp7MYt03jMOYtYdGn3eX7rlazArJZNRCDeXVbvqLruLO26llXuN4DYU/zydsPqmvOru222bRe+y7SjnEsLmvJnXgf4rKWLPCspA479KZDDR3K/7eutXt2icOpC8V5NIEK5+OOzkilFOCJCWxuVyy6BUU5ELHaL5v7dP/4X1vPLQ9e6cxPU6hfuMfmkJ/2TydrO+CqObs2bOWAiFAQ6OoUsKny1GJVn7KCmB1BKHCZ/w/3NC2PtXzYB78zWk619Gr/viKUZ0kkTgbeZxjUiZgj/xvMp/+lN31dj7tiQbA5Wk1K7YufNcnG3NyuWFiiNx16z2E3QRfPrnXVVa9zORxGQsohzB43GqSOsz8tN3B4xQnjy96E3a7WEYJGKZzFZtyZrzd9g2k1mMdaOo4KZ42IiCx9uh2HUvkvtEMQlInzUV4IxWGeMLHa6yPie+NyGUEPegGCoAuaM0yIKMXwQvgx0DpNrevHo7NtsrYDIbmbOJw6LK1MQhJnzUqsefJYyzD5cWEsO6ZxuvQug/nkTyE8GkpjGXDAHATCN435Q7RyQJFQEC+gmztfsdpp0LfgGpPoTN/84HDqLqClY9GnPUSFC1GDE9CpE1Ox+F2BMkHZeOoaw4TishuKkynm9SQyKXSPXjKZCVFpglAfD4uIKQh09eAXqLvzO1zPuFxGl0r7xssYkrL57AdR5+/57IfvA+YyWjpQJigbc0Vjm1Baa0UIz2BusrnMBfczaVNDCo3K5RdDU+ecSph4015IIAxr4R83EVWQUFHr39/vcOpQAzzzWEsfQLpPSmBDHMYC1AE9KAuUibeeMUwy3gcstnrcAbUhCMKzwMDJTjv6szBx52oqXIhrKlqrroU6pPtdKsVPkErxM/5ahkFMKojd2WVX63f/HS0dTE4p57GWlge7z2EunIllsw4oC5QZSl1jETq1ZALOR7ot1mrcBySZrFWYz1n0kJbIeWR7nvhCW46wclciZ/V8KpyPqixgbFF/YQMkvbwrIuMMJGJSQSD3bMw/PvIcMYZIImd10AF4Cm89lsG5zlPWsACMucgkfhmeZ0zW6oNOF+reoQFYbY3ncD90FT6dWvKoMPG1g3niWmVBRs+ZrNQjO1N46+9l0qZKQM8fK8SsgtgcrUaD+fSnaOkY1NLFbPrtA2xbNv32sVRYghoFEpQBygqnrrGEgPfCBpwzUhaleuProZSlNX6Jb4AZGCqZxC9n0ac9LuCt/zg77WjL6ExVd66o5og4+cNtydzn7gNjl8FSmphVEMht+uzajSGZe0uu/z9T+BufRYragrOMmIdJm5qSI6x8j8249XE8zxnMJ1/Vm7/Dayq5MZqP/uJwqiOxvpFKoxTM5rGWPJHKf+Gj7LSjzaMzVVJx8ocvsRnzRkWgvKDEtOOe3nTojMOpbiCT+KOR0vlvyaVTJyYxqKWIZ2BD7sG5ugGUQWSdI0GgSCh06kQyieQ+9SuLy1w8mUYpmIdlts4Xh1N3Sd77cMh7hoFZptJuf1bA/+vRUPPAQTaPteQ5cFlsjV/3al/eqDHsC9XEw0xMK4jTpXep9bu3JnP/hNbKu7fkKjV/dafjMu+93+MVigjIG5RBWIUjRHba0RNE5+lw6trbFfPvsjlaLeHko9S+eIxOnbiBw7xjQHSXSAEaA3HyB/ME/Be/71I9sU5vOhixRi6mTSyAUrNlHwRBqGeK+26j5bMfxOKr1ebJe8RhtUuPtHbPmGiynMZ92m4gOpS/f8Fia8TtLh8uFLJoZqZg/2lR0vtPkRJC8ZRBJ+YVxOnSONT6D99BS0chiyazGXfm8lhLJ5BJnFK09CBPkDdhFR0aWDSGz55vkZfNsdgu4N5+ikRbzy2Pma3nPycyT4zAfPayV7PTjr4eiYF8zCsI5O5FNr/uCViHBCmFt/7FFN76lzBk2efJcyTgtDnk/+3qe+r2hnYBQ9a7bKvTpSHcrLQ75JaWrrIl7YpFYx1OXcTHBv7QqSV/Eia9RbiZNyQUBNjJBvPJg2jpGNTSRVRYgrqJx2A+eSBc23uIwSYn8PA4FoaM3vR1bbN87A1q/YerIQgiNBomGjzWkrVM2lRCI6sMCQWBrg6o/4khGQXLO6n1u4fF1C5GSBSyaIqA/9d/jUpvruEy750c6QLtDrlVrnp4R0N70ii56vFbdKZDbzudxpBP98UBM5X/MhY/PswMGQXRm74+7XCqUb180QB5gLyIqdXQgkziFKWn7DnKYy39XTTKc7r0TrX+/aMdioWPX+7MyGtXLCpQaDY/YrJWfQJBEK74VFhh0Cbdy6RNJew47CGjIE6XHgysd4SbD8gjFLeKYQRdnPzBFzzW0qjGBgOfud709WWlZvP70q4b7mtoF6S3ds/O6dW+8aDBfHIvBEGhOEsGgsxmzCPsTP+YXgfxR6V9dV8yd836EHbLuXE4de0gD+JrFlnkqscf8/5OIWdBZHIKi0xKkTBo10+mkEUTQ4jzxRAnf/CV1d5SbrKcjk64dz+cLg1ktJySGi2n9kAQtMddKdqUDBZ9xjQ2Y+4dDOrEecBkCiVvJm3ydAiC3iWinkNKQezOLrNa/+EbfPaykGagdMYDb4A8iK9ZZFHr3w8qbB5r6di0xG0fk0kcPAEUAAJR0jtvNMvHLgy/hsRgspzuMFlOf6zUbP6YRhmfmJb42l9Y9GlP4rV0GLRJhB23MGRMLC8q3fbdnpOu8GLyPDus0Bj21Ui7bpjtcKpxR2unUQoWJLJXT4lMzcLDYrvQ19Zzy1M606G/hfD4yBuDeLHYLqgN5tP/xvsceAY8G5laDS5W+2VFh2LRbGBC4n1WwN/4HkwS4vLhiiby3ke2QBDUifMx3LHBgjHkFARyu1l/grsnCOWZoYTRcqpNod54H97nyCROoYD/4gBv6FjB4VSaDeaTh3A+Rljs5YgqSJJgCpSSNp3wfDWGT046nLparOlBWvAM4RWJMfr0//jBZK3CvXWYz172NBUuxB0VgUxKiVbP04MzPWGHMUZEQWCYA40v+wdp4o3vkbj8YsIjqbtcRifGwA5uPAEZnETXIxZRajaHslDGTeKueRjvQwL+C69mpR55N9RgDDjAG2Qt9GC8fhCuIBxeccKkyXvhVNHsiPZOGsO+/Z7DRNFQedKOCPSmQ1VWuxS3ezyXufgPpAQe3sYMZtGnPZKddrQhK/XITiZtKuHRAmGyiMKiT7sNzzMmazVhLi6EfolzC1bSrpu8j8HhjYn42MbmaLXoTIc/RksH0owwvytIoXZHscflqUwmcUal8NYtC7FI8CV+PDvtqHRUeutRAe+Fh6hwflKIefUjLfHNjRAE4fKvstrqK4goGyJqHYRMZiZcN+WjJA5vjPdM6qig0r7yHimBhjjnrdK+QsiC0VBCa/y8UmDf/DkVltyL57lk7p9eVOm2fWJ3yEOVIUwhi2al8J4D1ztWu/SUznjgc73p0FdGy6luPBkxaVNFaYmvvUKnltyPtxJMvvMIhOmITnTCVhAY5pDKpn4uZrFz7J6TpqBoneBktJy62NZzy4xolDXUUGo2/02c/MESnFZCBp/98J1KzeYvCagCTIUlM5O5fwLXLodTd8FsrToNZGZ3yC9ZbY2tEOT+Ghs83xcWKJ9Jn1bKZS6+nUYpWIRlV+hAXLKswhsrHeSVCS2NO8N26w9LQZIEU/jjy7ZlwDDL5Dl/Ok6MoDHsq0vmPv01jVKI60QtHmv5EwQpSD/IJM54Fn0auIjOuh+MRN12EtnpzCtcReLyi6G66v9z2KxoW4mCE/JYITN3ae7EG98rgWGWV8kSfC7I7/c4g4BKt/0NvM9Q4aypPNbSIRoJ3yXnilRvev8SCGeQr5vyMY3OEIf8PQxJQYpKt0wePXZdiZ9S+FYirhgxgNbw2SmHU417d18Kb/3/RaZGkYWZpH0Vpjr6Tciw2Dnk66cfYLO5hSEdS45bQXILn7hJnLWw0KMEJJ8rwecnIMFklLkUXcdjPmrIcMXp0kNKzZan8T5HhSVzkjhPxtLJtaiQadaveWKV73aIa402hcIlXTflIz6TnYt7SIFLQQTCmWNyC/54s6dgsl/vQfL9W6e55Kr8YYlTp6nDW6c4BKLSbTsW6JgyNFJ4616OpRCgSMAMy2epBZ2LSLDTFsB6cf8NwyxSSfkO3N4CmBUkMbksv3jiK/f59Rpkv5/uq7l+h/3X0/fbrJZQIurHIZpe7Wvb8D5DJvEn8Nh/QFygs9jqf3E4dYOyn8SDWWP45Lm2ntn3mkxNvlPT/qa/u/FmsXOoJeVv4TpqDpOCMFkS0fjyHWtgmMUIoBD9lKP6zApDc+NOW7SjcMcJjkb/zwMOp7oB73PJ3KeeRLrfp9u++0pnbo6s96GJGsNnr2KJX0YQDqtd+mlr9+wiWe8DL2v6zrh+/v52SNF1HEKYLHIriUA4g1tUugXz0dWYbLL84mceoFC4oL9V+ynGtctm00Jnf1yu1Gvro7ZQONgkJpdBXOHAk+B0mnpI0XUsavUgk5lQ9ijEWHlOMlS7BTJNxhXcjUIWzUY7C9Lp0kAaw75z4OpSrX6aSZ9WxGbcdjuLPvs2KiwpgyCIi6dMFLRm6/kverWvbtcaP6/2v3m+4nFXUekWlzhrof+Y2PcnSZy1MLVHflin7D6BupyIOtuUX/T0H7NH/eF3HuXQePyfVJ7f+8BPk1HWe+7nhxqNBumAk41gskgEk0WYN7DYHUqF3dEWrZaoHzA5KwsmpyDaqSlp06Hc0VdPVSBT7HIyxRHQMe7MyUUunWagwzGdOnES3nqZrVWIAaKLJ7wMiTLnIcpSr2klXax4sRRvz253yNvtDjleb1o3pAR2AoN2Uz4FziqiUycWwGRRLkwWCSnkLDFMTknyHBzKhCCI6mms7Z7NcFqHU6ew2i932extzTZ7S63ZWnXBaPn5V7ujDXVHaG7BSnJu4Sqqp/GGPflTPceAg/KYVouK9suJBWesFgVifogfambO0iWjx61bASrsUQivgvT5Kkj1mRVVyu4Toa/GDDGKSrckiLMWIn52KmWFq+qn5RGfwcvMWQqNHrcO0VS22w2uX0/f79Jrh/wZpZgpKX+LJhDOoHlCQVE8q/LXFASCIE6P/Kj2QuVqxANPg84Nk8lMZsn1b20jk2kkz5l3Vo+fle/vtramvVfaWz7CvZNtKAPMp7T0uQlUaqL/YPDaxWCmJ0AuCOrrrYxYPWCYA5Vcv4NMJtOC1gNcV+recCq6ohGAPXboU1Y4xdl3MchkGsVPSbw9CZ3FyU2DXBClr7eyK1g+QVuezNylSykULjfAeAP2XBRl9w/KxtqthARAHmqcr1jltNsNJL9ZvX5XbuEqmMMritii6aiip8gUChexDl0d37ramvdEqgoxi9WicFX99KDeYTf5fmdhj6Jc+5lbuOpGJjs3qOdxQAWBYQ5Xkv/ICr8P27cAis2mdV789clTEX3LGMaob4bOn1nh8J+s8L+KSl+kRqJ8Dq84IUOymIJUtlZdm1BT9fSI2CgWCJ2mzt5Qs1Xv+c5SfXoSis/3mZxTsCKoa01ABSkY+/xGGGaxA8xYeTOlnv1x+b8dDuOImbEKRF9vpVOlrEjw++D7XRzeGCo/uSwkNwckckevpCOVC66as2tHtHwA3Z3f6k3GzgSfgbq/olAEwhnFdIY44Jn7AxREnHX3UnHWwsU+02Jk/96juX7HSb22PqSZjeFG3bnnzBZzD+wngH5XZs7SkAKgBSO3YCVDIJzBRCqzuX6HzWiQjng3H4fD6Dr388OtFnMPyTP2oPlc7s8KhlksSf6jtwZ6foCCCDPmLgqy1uFWELvd4Gpu3Hk4Km83BDCb5K76C5tM3oFfoCtNfAs3MbkshL0NgcnMW5aIVJ7NpqU2N+4ccgHyIoXRILXUX9gk9RxRR/dTFLeSZEgWz+DwirP9n+2nIBxeUWlSSvkUH18r3x7E3Xs0Xdr+dVTfbgig6Pre3Kd07/JkBrsKSzYREpZfmH4nh0LhspDKqq16VkNEWcMJRdf3Sq261uzzOfkrC0WS/9hd/s/1U5Ci0hd3+q069jOvdJpLHe0tHxJx9O+wo/bc8z2egGUBLxY7J4nBkoTdi+SMXpGJVI6841ubsvtE3M8nAM0NOxo9OxcZPpdXQejJqTcNOF/+moLQGeIsDm9MiZ8bez/zqvbc8yPlVCbcmE0ym0pZYUf68mZk343LUc4fOkNMZ7FzBEhlNDfsxLX3eyTRp6zoMhk7bT69SL8eBIZZ3Mycpb/3feaagkjyH33Gr+fw/Z3Sp6y4oNc2EBWiflgivfyeHIIgfrBLlDm/IJz8JfmPFiLl36essJkM0lDiFo8IHA6j7cql189AEMT2UxJvT0KV5D+83PcZt4JQaQJRhmTxw34rsP2mdmvPPR+1Y36HKirFaYXNpgUfemKgi0pLShMIZ2aFkjedIWZnSBaXBssbXLXnnj9P/FsNL7o7v6ux2bQkj6nlVZJrA3YaPVUkEM68Fg7UrSCJKeVTA/jPX3NjN+hb2s0mWUROBBpuNNa8VO1xwgt4iTIX4j2mwI1ANCsfKV+d5pLFbJIZiH+j4UdjzUvfeHoNfzPLbWqJMhdeM7OuKkhyuTfURILfGMTde7Q0vB32yU4jhR7Z4Sa73QBap6RAV6podhmZzMS9up4qnF0SLE9w1VX/5Xhk3mj40SM7XOWwmygBZrPcU76potm3k8h0d9xht4Iw2ZKCIBtM3CaWouvYkUF9oyGEw2G09sgOS5FMoVTxrRPw5svmFY4Jlp9B32LTaeqCOtzF6Y/DYTSrlL9c9pvNonn2ruRBEJSTlHLDLMirIFx+sXePgr+ZRepTVvzicBjjXTcO2pr3/oBkDmXlLsN1hh6DJRFSKFxhsPz6lJUdkXub4UlX56FTPgN0mmeiI9vzOyktfe49IB2cmFw2DYZZHAiCvG4JCT6zWy6DviUax/cOK/TahnarRZVApSUF3E3H4Y3BdURYUkr5eI8yBMRsko3oU0lDQa2qqvUxsdI8CnINFjtnNPhJYvMK/eNb+UYnIXV3HsJ9mlMcCOqRHz3n6bIDXhxecT7WvBgsSS5SXr09p+OzVzixmORdfcqKTgiCRvsrB+RjVZEyJPes8Pm/7zjkqonVWzkizxQPF52mVoq0oEehJiZjzStNPGeuz7NexbiWl05Ti/t8wjgQ1NdbgbibjUoTiGBPV+LyKIXLdxuuTnPpYlRqOgzRqmsbPHPtAWEwxZkQBP2CJS8GU5wXZHu0S6e5NHL20RJMn7LihLv/CAKLLSnwjavr8heCrP3ARxGu47DFbjcYkaKTc3jFwLT9F1o+bO7oMZ7BZCASZO0HvgmroiMYm02LeKhrYkr5dNhPOfopiV5TH7dtQ8RkkHrdq4NBwZIPhcLlIygIkFG8BwkRvbYB9fsdqAdx+Y1F4oQO0oIg1jixCSj5xGUUQQJtuY0rB0HYbFqDX8CAa5fP2hMaCcHy8FxxOYUBkpmVmFw+3VdBBiwSRqeKwxe9pr4O4YuNaZ+6x8shriARQq+pHxCh0RfEbr6vt3LYny0eYUgIioCpAaLRU8VIyhSfho8shBziGScoZL/P2DeoMtbPnuQzoPeOEUd8MIZogdiKMVnZmFd74wTEP2jZtS0EdIYI0+H7drvB4LM3x38bNByXUeQA5i2igni69zgh0tdbEfRAfyotCdNhLjp1LWLg6riMwgNJRuCzjQ/E48RBIK4gceIggKggMIUzwMsxDnYEwlm4zigPhbiMwgNNRogKwuGNKSW8RiMIpM/PZJS1YsnDoJc2hlpGHHSQPj+DvqUBuQeB461TpOjtOf0/LOmsFkXAE6y8xGUUObo7D32KqCAC0eyImwjDFSpNQEioUTTiMgodOkM8IBavPyTQjQS7yWCmS8hk5tA4LDvGSEmbcSfSfYO+CfPBQ0jmGJARiUwnNHr8SEGcufABpPtadc2vJOnld19CSpQkuBrdIQ4+0JwRTYY2zFEqZW1f7kYua9yAmLJx0ElMKZ+OdF+vvVxDMhs7EQ+CFwjjXXgoeJwMg+LezYYRtHFIYjKyoOMEhs0rRBygm02yVlJfb+VJq0WlCJYwVXzrXfEuHD8MZkZQVxKgHA6HEXMkEmXPD/9Fui8QIptzcQZCoSameDajBaRPedVR1z1I1/SdD7o3GoZZHBY7b0yE6jksycxd+gSDGXwAqNNcQnSx9sdikreZEHp6HHtL4njIHvXIc0j3jZ6xuVtBFF0nvkVKnJw6ZQ7B9RvW+EWKGYBB31SHN0952wHEo2rT0m9fgjfPkUyaeM4ipPsmY0cL5FUQnQbZIS4z596VBNdv2JKYXDbNG3QsEKAn6O787368+SI51QFGjfkz4mRLnN8AMkLq4YGMVIqf3OF23QpiRJjqhTxejWzu6JII1HXYIUKZOmxr3rvNbtfhPiJNh7LzjcFMl8RlhA0sMvKOEd0KAv5orHn5KaSH0MyGOBBEItOZqeJbB5xz50sovQfk3hei08RlFD5kMpONR0bXVtJlbV98gPRQWvrvFsMwJ2h82DgQJEibNd8T5zggiq7j36BN2SKBRUbxhV1kxFl3PYQkI1nbgT2+MrqmIKCF6pEfPRjsQQqFy88dvXIjwfUdNoDGo2DsM68ipcGz9hEIICMVQh5ARunZdz8aThnDGSZLUjB63LptSGkUXf11oJ8vVrfsP58jPSzOXvQQk51bGGY9hyVp6bfdjba7r1v+v7ADgXsHj8HIzF26Jt6LBEaYOX8Z0n2rRaVQdH3/le//+itI53efaRG2eIKuKadgxXoC6jrskOQ/tg7pvk5zqdpikreFW057877tSLGcGExxdl7hms3hljMcSc/6/YNI93sDND4DvHk7pPvfRcokVThrPuiqQqzjsKSk/K2vGcx0SbD7DrvJUFf9l4eIKMvhMOrbmz5ENBPcPX1cRv0AMkLq4e12g66l8e0BDcsABZG17X8XqYUiwwzWmJJNu8Ks77BBnHX3o2iuHu3Sz97RaeqqiCqzuXHnJiDQYPdBTx+X0W/kFqzcgCajpvo31xv1zQPiHAcMSGa1KLtSEfYZgNYShjn8XgW2TT/DFTAwL5rwt39SqYkpSOmuXHpjndmEbQchVhISKNQkBG9UICO7zaDT9FX/TGS5Qw3Qk46Z8OIHZDItaABw0Ng0XtzyRKD1qYAbpuTtB/f2KX89hVRwVt7yJ5MEI9cFhUSmM0vKdxxEWjUHdHV8+4k6AhEqW5s++LvF3IN4NHde4ZoXRrKpRSYz2WMnvfoJklMi5F4Y3Lc9WAMWdEdhh/Szd9AqML5s27+w7MoajuSNXvMC2n4CMDCvv/DC45Eo3+kwG6WX338FKQ0wh8umfn4mWrsbY43iiS/vQ3PkBDJqvfze1mD3gypIt+zQp2hep8DWBa3oSJtWTEwum5Y96kHEVW3A+YpVC0JxK8FKe8u+N9FkBFrPkTgeAWNDpGGCFyAjpK0HiBHG+5RnjielTr4Vycam0QVCCjUxRdmN7BE8XEhJm37H+LLtX5BI1KCnR0HugfQ7f1N0HT0Q6foAGaUIZ86jIIT/cZuBrpETjBzIqKh083skEgXpXBXo0vm/PtqnPPM9UhpEBbHZ1L0GbeNFcRaycxfoxuiMdImi69hXKHUf0nB4xZOum/zhCTTl6FNWnKg799zyaNQJyMhhNxvRZmmAOTgSZAR694k3fnAYTTk6pPvfbWncuQktP9QzKsDghcGSFHC4BYhne3N4Y0oFwlkLujq++djlslnR8h1qgLFWSfmOA2gzViZjp/Tsj8unO51WS7TqptPUngWfPejNkdIBGQEl7+489Gm06hZNwLuV3rDrO6QZK8gjowsVqxZg+Z5iOsSlt+eH/7K5o8ejzdgMV3MLdNkTb9p9jI7iSmK1qBRVPz0w02JBnl2KBKBhYnMLxqHJaLiaW0BGE67fdQimsLlI6SzmHlnVT3+YjdVpFNfpRNdP+/Iclkh+YOAIWtFIDlCjBRjsFZViG+RWn1lx52A3DjfO/K4eTUkgj4x+PX3/zXj2xscquQUrN+QWrkJ1pLXbDTrwznot9sNpcQWvBpljCZkJlGjKrcfbh/I6CZnMZBeO3/gOVuVort+xcbCVA7o2cxZ8ld0LkNENM76p4fCKJkanZsQDZDT+uu1fYFEOQGPNK2vxKAcUyvl2TJakoGzq52fQFl+8gJaqsealJ4dSl85PLptWPOGlPUj+Vb7Unnv+AXn7wb2Rrxk22NzCkkmT957AI6O66vUPo229jiUEwlnzC8Y+vy3SMgrpAEjPgPUgnsDJjTUvP9XWvOf1UMqLFlSaQFQ4/q9vYZk/96LoOv7N+YrH50W2ZvgBMppw4/v/w2JuQR7zo+Hii6tjSdEDAd6raMJLe5DcbPyRtR3YU1e9DtGTNxghn5AKujfQRSNtfvcHfJku1736TCCnsMEE9IrCjLn3iDJ//yCe9wFmVTOGqcLBgsnOLSyfur8CaQedP/L2rz8CMgpn52MkADISZc5flpm7dA2e96mr3vCYrA3ZQx2JsI4QBi3uhBt2fYc3BD/o0mXtB/e0N3/4ZjjlE0FOwcoNeRhtWF+GQo8IhdCTeAEykl754JXBnhIGDXFe4ZrNWXnLn8TzHFE9YthnbMMwh1c88eV9oUT306prz7a3fPQPhfzYwWjOeHF4xZMyc+5bJRDNWoDVTvdis2nVYEwV66aIL6E2ZJBn0VPWfmBPj+zwF9Gc8UpMLpsmylz4QKr41rvw9BiQR0a1Vc8uJWLShJBD6ElkOlOS99DTWGcTAtEjO/Jly+V3/kbkvglfkgVT5iQJbrolRTj9DrytqReg0DVn195rNCAfahOLgJY4O+/Bp0KVkcNuMii6jn3V2rT7tUjLKFU8ZxEeU9cXoNCXzm94jCgZEaIgXtjcwhLQHYYTK9Zi7pEZ9dLGvt6KEwa9tDHULh6YFgLR7AWpwlkL2LzCUrw9hT898qMHQas01NcN+Mll0/JGr9qI5omMhK+MdJr66lDdV4CMQC8BBtxEyKhDuv/d+gsbHgsnD38IVRAvoswFywvGPr8t3BeGPN2l3hM0zf279rcAamDg5ruNEqZw+EQfSWbQtzTUn9/w2FCapsYCkNHocX/5B17zJRCDLaNILiVEREEgzwdTMHbdmylpN98WqTIiCRjktV3Z/Vosz1KFCxiLjSnZ+A6XP/a6wa5LKLh3Ata8sjacWSo0IqYgXgTCWfOzcpc9GU6XHk1AC9jW9OE2efuBPURvk41VgIxyClasHypR4oGJJ73ywSsK+dGDkZZRxBXECxiACUSzF4oy5t1PhhmsaJWLFdAaSS+/t7W9ed/2oT7OCAUSmc5MSrlhZpr4d4tFmfPuH+z6BMJklLW2t+zb3iH97B2nw2yMRplRUxAvwPTKkCxZAQbQWN0EIomi6/g3srYvPhju+yTwwOYWlogzFzyQlv471GB40UDWdmCPouvYwcGQUdQVxJeUtOl3FE98eR8Rg3k8gIF3h/Szt6PRRQ91iJxwwYN3Mbm78z/7B3NVf1AVxAsYLCanTplDZ4izgR3MZEsKiJhd8QIUok9ZedJoaGlQdp34diiuYww2/KRJNycJbphJpaWKIy2jHtn//m0mIAolEcSEggQCDBw5vMJSNve3+fFAA33/gNAmY6fUbLp6XJlOU19t0DVdiitEZEhLn3sPiy0pwCsjg17aaPVsKtOqa8/qtY0XY7Un//8BAAD//zIDlnIAwvC/AAAAAElFTkSuQmCC;" vertex="1" parent="1">
          <mxGeometry x="750" y="245" width="110" height="110" as="geometry" />
        </mxCell>
      </root>
    </mxGraphModel>
  </diagram>
</mxfile>
